{"glyphs":{"0":{"ha":772,"x_min":0,"x_max":0,"o":"m 383 981 b 135 853 274 981 191 938 b 50 479 78 768 50 643 b 389 -19 50 147 163 -19 b 638 107 498 -19 581 23 b 722 476 694 191 722 314 b 383 981 722 813 609 981 z m 385 847 b 460 830 413 847 438 841 b 510 778 481 818 498 801 b 541 711 523 755 533 732 b 557 627 549 690 554 662 b 562 549 560 592 561 566 b 563 476 562 532 563 508 b 562 417 563 452 562 433 b 558 352 561 402 560 380 b 548 281 555 324 552 300 b 529 218 544 262 538 241 b 499 163 521 195 511 176 b 452 127 487 149 471 137 b 388 113 433 117 412 113 b 252 197 325 113 280 141 b 210 469 224 254 210 344 b 211 552 210 503 210 530 b 217 635 212 574 214 601 b 233 717 221 668 226 696 b 263 783 241 739 251 761 b 313 831 276 804 292 821 b 385 847 333 842 357 847 z "},"1":{"ha":772,"x_min":0,"x_max":0,"o":"m 524 978 l 396 978 b 113 789 375 852 281 789 l 113 672 l 354 672 l 354 0 l 524 0 z "},"2":{"ha":772,"x_min":0,"x_max":0,"o":"m 696 140 l 222 140 b 431 336 245 196 315 261 b 513 392 470 363 498 381 b 581 446 527 402 550 420 b 645 514 611 472 633 494 b 681 590 658 533 669 559 b 697 690 692 622 697 655 b 611 902 697 778 669 849 b 383 982 554 955 478 982 b 145 890 283 982 204 951 b 57 640 86 828 57 745 l 57 615 l 211 615 b 216 683 212 641 214 664 b 231 745 218 703 223 723 b 259 799 238 767 247 785 b 307 833 271 813 287 824 b 379 846 327 841 351 846 b 494 802 427 846 466 831 b 536 682 522 773 536 733 b 531 630 536 663 534 646 b 509 582 527 614 520 598 b 484 544 498 566 490 554 b 446 508 478 535 465 523 b 408 478 426 492 414 483 b 363 448 403 474 388 464 b 322 421 339 432 325 423 b 228 355 282 394 251 372 b 152 290 206 338 180 316 b 88 212 124 263 103 237 b 50 119 74 186 61 156 b 32 0 39 83 33 44 l 696 0 z "},"3":{"ha":772,"x_min":0,"x_max":0,"o":"m 61 660 l 213 660 b 375 851 217 788 271 851 b 483 813 420 851 456 838 b 524 710 510 787 524 752 b 507 635 524 680 518 655 b 459 592 496 616 480 601 b 397 574 438 584 418 578 b 324 569 377 571 352 569 l 310 569 l 310 450 b 360 451 325 451 342 451 b 500 413 417 451 464 438 b 554 289 536 387 554 345 b 507 162 554 235 538 193 b 379 115 475 131 433 115 b 190 319 258 115 195 183 l 38 319 l 38 299 b 131 67 38 202 69 125 b 375 -21 193 8 274 -21 b 624 67 477 -21 560 8 b 719 293 688 125 719 200 b 672 441 719 351 704 401 b 543 522 641 481 598 508 b 642 597 585 536 618 561 b 679 721 667 632 679 674 b 596 910 679 799 651 862 b 378 982 540 958 468 982 b 150 896 282 982 206 953 b 61 660 94 838 64 760 z "},"4":{"ha":772,"x_min":0,"x_max":0,"o":"m 725 364 l 601 364 l 601 981 l 451 981 l 35 388 l 35 231 l 447 231 l 449 0 l 601 0 l 601 231 l 725 231 z m 450 364 l 165 364 l 450 785 z "},"5":{"ha":772,"x_min":0,"x_max":0,"o":"m 663 967 l 161 967 l 68 443 l 207 439 b 369 526 246 497 300 526 b 504 473 427 526 472 509 b 553 322 537 437 553 387 b 506 167 553 256 537 204 b 372 113 474 131 430 113 b 250 157 323 113 282 127 b 196 276 218 187 200 226 l 39 276 b 134 62 43 187 74 115 b 368 -18 194 9 272 -18 b 618 79 470 -18 553 14 b 715 331 683 144 715 228 b 632 561 715 426 688 503 b 414 649 576 619 504 649 b 231 579 335 649 274 625 l 275 829 l 663 829 z "},"6":{"ha":772,"x_min":0,"x_max":0,"o":"m 704 725 b 613 915 695 806 664 870 b 411 983 561 961 494 983 b 146 847 298 983 210 938 b 50 468 82 756 50 630 b 140 107 50 312 80 191 b 399 -19 200 23 287 -19 b 634 76 494 -19 572 13 b 726 321 696 140 726 222 b 644 553 726 416 699 494 b 426 642 589 612 516 642 b 204 522 332 642 258 602 b 210 578 207 548 209 567 b 219 638 211 589 214 609 b 234 703 224 666 229 688 b 257 760 239 719 247 738 b 292 813 267 783 279 800 b 340 844 305 825 321 835 b 404 858 360 854 381 858 b 551 725 486 858 535 814 z m 394 515 b 521 460 447 515 489 497 b 568 315 552 424 568 375 b 522 168 568 254 553 205 b 399 113 491 131 450 113 b 273 169 347 113 305 131 b 225 319 241 207 225 257 b 271 462 225 379 240 426 b 394 515 301 497 343 515 z "},"7":{"ha":772,"x_min":0,"x_max":0,"o":"m 714 967 l 51 967 l 51 821 l 557 821 b 301 441 460 730 375 603 b 186 0 228 278 190 131 l 360 0 b 465 451 365 146 400 297 b 714 833 530 605 613 732 z "},"8":{"ha":772,"x_min":0,"x_max":0,"o":"m 222 524 b 91 434 166 506 122 476 b 44 281 60 392 44 341 b 138 65 44 192 76 120 b 385 -17 201 11 283 -17 b 633 67 488 -17 570 11 b 728 289 696 123 728 197 b 683 438 728 351 713 400 b 550 524 654 475 609 503 b 688 731 642 563 688 631 b 604 913 688 805 660 866 b 390 985 549 961 477 985 b 169 913 300 985 226 961 b 83 726 112 864 83 802 b 120 601 83 678 96 636 b 222 524 145 565 179 539 z m 389 857 b 499 819 435 857 472 844 b 540 717 527 793 540 759 b 499 613 540 673 526 639 b 388 575 471 588 434 575 b 275 614 341 575 304 588 b 232 717 246 640 232 674 b 274 819 232 759 246 793 b 389 857 303 844 341 857 z m 385 461 b 518 413 440 461 485 445 b 568 285 551 381 568 338 b 521 155 568 229 552 186 b 390 108 489 124 446 108 b 254 157 333 108 288 125 b 204 289 221 189 204 233 b 254 413 204 340 221 381 b 385 461 288 445 331 461 z "},"9":{"ha":772,"x_min":0,"x_max":0,"o":"m 61 242 b 151 54 65 166 95 103 b 358 -19 207 5 276 -19 b 532 28 425 -19 483 -3 b 644 156 581 60 618 103 b 699 323 669 209 688 265 b 717 506 711 381 717 442 b 708 640 717 553 714 598 b 674 769 702 683 691 726 b 613 880 658 812 638 849 b 513 956 588 911 554 936 b 372 985 472 975 425 985 b 135 888 276 985 197 953 b 42 643 73 824 42 742 b 126 413 42 550 70 473 b 342 324 183 353 255 324 b 558 447 433 324 506 365 b 367 107 548 220 484 107 b 260 144 322 107 287 119 b 214 242 233 169 218 202 z m 367 851 b 493 796 419 851 462 833 b 540 647 525 759 540 709 b 493 506 540 589 525 542 b 369 451 462 469 420 451 b 247 504 319 451 278 469 b 201 647 217 539 201 587 b 247 795 201 708 216 758 b 367 851 277 833 317 851 z "},"\r":{"ha":0,"x_min":0,"x_max":0,"o":""}," ":{"ha":386,"x_min":0,"x_max":0,"o":""},"!":{"ha":386,"x_min":0,"x_max":0,"o":"m 278 989 l 108 989 l 108 704 l 151 274 l 233 274 l 278 706 z m 283 176 l 103 176 l 103 0 l 283 0 z "},"\"":{"ha":617,"x_min":0,"x_max":0,"o":"m 233 563 l 258 967 l 118 967 l 143 563 z m 475 563 l 499 967 l 360 967 l 383 563 z "},"#":{"ha":772,"x_min":0,"x_max":0,"o":"m 226 0 l 276 271 l 429 271 l 379 0 l 510 0 l 560 271 l 704 271 l 704 382 l 581 382 l 618 583 l 763 583 l 763 694 l 639 694 l 689 967 l 558 967 l 508 694 l 356 694 l 406 967 l 275 967 l 224 694 l 79 694 l 79 583 l 203 583 l 165 382 l 21 382 l 21 271 l 146 271 l 96 0 z m 450 382 l 297 382 l 335 583 l 488 583 z "},"$":{"ha":772,"x_min":0,"x_max":0,"o":"m 418 1094 l 349 1094 l 349 994 b 127 913 258 986 184 959 b 42 714 70 867 42 801 b 128 526 42 632 71 570 b 349 440 186 482 260 453 l 349 101 b 175 288 233 112 175 174 b 176 303 175 293 175 298 l 18 303 l 18 290 b 110 61 18 191 49 115 b 349 -19 172 7 251 -19 l 349 -139 l 418 -139 l 418 -19 b 656 63 516 -19 596 8 b 747 275 717 117 747 188 b 418 569 747 435 638 533 l 418 875 b 531 833 468 869 506 855 b 569 726 557 810 569 775 l 569 717 l 719 717 l 719 738 b 638 922 719 814 692 876 b 418 994 584 969 511 993 z m 349 585 b 233 633 299 597 260 613 b 192 729 205 654 192 686 b 233 830 192 771 206 804 b 349 874 261 855 300 870 z m 418 425 b 590 267 533 402 590 349 b 543 149 590 219 575 179 b 418 100 512 118 470 102 z "},"%":{"ha":1389,"x_min":0,"x_max":0,"o":"m 1015 1007 l 910 1007 l 360 -43 l 468 -43 z m 351 983 b 181 913 278 983 222 960 b 121 711 141 865 121 798 b 179 506 121 621 140 553 b 349 436 218 459 275 436 b 517 508 423 436 479 460 b 575 719 556 556 575 627 b 518 916 575 806 556 871 b 351 983 480 961 425 983 z m 349 893 b 453 718 418 893 453 835 b 347 525 453 589 418 525 b 243 704 278 525 243 585 b 349 893 243 830 278 893 z m 1051 528 b 881 457 978 528 922 504 b 821 256 841 410 821 343 b 879 51 821 166 840 97 b 1049 -19 918 4 975 -19 b 1217 53 1123 -19 1179 5 b 1275 264 1256 101 1275 171 b 1218 460 1275 350 1256 416 b 1051 528 1180 505 1125 528 z m 1049 438 b 1153 263 1118 438 1153 379 b 1047 69 1153 134 1118 69 b 943 249 978 69 943 129 b 1049 438 943 375 978 438 z "},"&":{"ha":900,"x_min":0,"x_max":0,"o":"m 806 472 l 667 472 b 632 338 660 418 649 373 l 481 525 b 656 778 597 587 656 671 b 588 935 656 842 633 894 b 417 997 543 977 486 997 b 241 935 345 997 287 977 b 172 778 195 894 172 842 b 271 560 172 713 205 640 b 108 438 204 529 150 489 b 46 265 67 388 46 330 b 135 56 46 177 75 108 b 356 -21 194 5 268 -21 b 633 111 467 -21 559 23 l 725 0 l 919 0 l 725 229 b 806 472 770 293 797 374 z m 401 621 l 396 628 b 314 782 341 696 314 748 b 343 851 314 810 324 833 b 417 879 363 870 387 879 b 488 849 445 879 469 869 b 517 774 507 829 517 804 b 401 621 517 717 478 666 z m 353 458 l 549 218 b 364 111 495 147 433 111 b 249 158 319 111 280 127 b 201 269 217 189 201 226 b 242 376 201 312 215 347 b 353 458 269 404 306 431 z "},"'":{"ha":386,"x_min":0,"x_max":0,"o":"m 236 563 l 263 967 l 124 967 l 150 563 z "},"(":{"ha":386,"x_min":0,"x_max":0,"o":"m 396 996 l 269 996 b 69 357 136 805 69 592 b 119 40 69 239 86 134 b 269 -265 152 -53 202 -155 l 397 -265 b 228 360 284 -62 228 146 b 269 688 228 481 242 591 b 396 996 297 786 339 888 z "},")":{"ha":386,"x_min":0,"x_max":0,"o":"m 315 357 b 115 996 315 592 249 805 l -11 996 b 115 688 45 888 88 786 b 157 360 143 591 157 481 b -12 -265 157 146 100 -62 l 115 -265 b 266 40 183 -155 233 -53 b 315 357 299 134 315 239 z "},"*":{"ha":514,"x_min":0,"x_max":0,"o":"m 489 808 l 456 897 l 301 839 l 304 1003 l 208 1003 l 210 839 l 56 897 l 25 808 l 179 756 l 83 625 l 160 569 l 256 707 l 354 569 l 428 625 l 332 756 z "},"+":{"ha":833,"x_min":0,"x_max":0,"o":"m 346 0 l 488 0 l 488 292 l 776 292 l 776 424 l 488 424 l 488 715 l 346 715 l 346 424 l 58 424 l 58 292 l 346 292 z "},",":{"ha":386,"x_min":0,"x_max":0,"o":"m 288 188 l 99 188 l 99 0 l 189 0 b 99 -135 186 -72 156 -117 l 99 -218 b 246 -128 169 -202 218 -172 b 288 46 274 -84 288 -26 z "},"-":{"ha":540,"x_min":0,"x_max":0,"o":"m 474 456 l 67 456 l 67 308 l 474 308 z "},".":{"ha":386,"x_min":0,"x_max":0,"o":"m 288 188 l 99 188 l 99 0 l 288 0 z "},"/":{"ha":489,"x_min":0,"x_max":0,"o":"m 514 1013 l 376 1013 l -25 -24 l 115 -24 z "},":":{"ha":386,"x_min":0,"x_max":0,"o":"m 288 188 l 99 188 l 99 0 l 288 0 z m 288 710 l 99 710 l 99 522 l 288 522 z "},";":{"ha":386,"x_min":0,"x_max":0,"o":"m 288 710 l 99 710 l 99 522 l 288 522 z m 288 188 l 99 188 l 99 0 l 189 0 b 99 -135 186 -72 156 -117 l 99 -218 b 246 -128 169 -202 218 -172 b 288 46 274 -84 288 -26 z "},"<":{"ha":833,"x_min":0,"x_max":0,"o":"m 58 289 l 776 10 l 776 160 l 238 358 l 776 557 l 776 704 l 58 428 z "},"=":{"ha":833,"x_min":0,"x_max":0,"o":"m 58 440 l 776 440 l 776 574 l 58 574 z m 58 142 l 776 142 l 776 275 l 58 275 z "},">":{"ha":833,"x_min":0,"x_max":0,"o":"m 776 289 l 776 428 l 58 704 l 58 557 l 597 358 l 58 160 l 58 10 z "},"?":{"ha":772,"x_min":0,"x_max":0,"o":"m 289 0 l 468 0 l 468 176 l 289 176 z m 304 274 l 454 274 b 468 390 454 333 459 372 b 551 476 477 408 505 437 b 614 532 580 500 601 519 b 658 583 627 545 642 562 b 693 651 675 605 687 627 b 703 733 700 675 703 703 b 617 933 703 816 674 882 b 392 1008 560 983 485 1008 b 151 919 287 1008 207 978 b 61 675 96 859 66 778 l 221 675 b 389 872 225 806 281 872 b 493 833 431 872 466 859 b 533 733 520 807 533 774 b 530 697 533 720 532 708 b 517 662 528 685 523 673 b 502 633 511 650 506 641 b 479 605 498 626 490 616 b 456 581 468 593 460 585 b 427 555 451 576 441 567 b 400 531 413 542 404 534 b 323 420 361 494 335 458 b 304 274 310 383 304 334 z "},"@":{"ha":1111,"x_min":0,"x_max":0,"o":"m 965 179 b 583 44 843 89 716 44 b 247 166 446 44 334 85 b 115 478 159 247 115 351 b 254 811 115 611 162 722 b 601 944 347 900 463 944 b 886 850 718 944 813 913 b 996 604 959 787 996 705 b 939 403 996 530 977 463 b 813 314 901 344 859 314 b 769 328 794 314 780 319 b 754 369 759 338 754 352 b 771 454 754 389 760 417 l 861 758 l 747 758 l 726 682 b 568 781 700 748 647 781 b 373 680 494 781 429 747 b 289 444 317 613 289 534 b 341 291 289 381 306 330 b 478 232 376 252 421 232 b 671 364 560 232 625 276 b 667 333 668 351 667 341 b 699 260 667 303 677 278 b 782 232 720 241 748 232 b 984 342 859 232 926 269 b 1071 597 1042 415 1071 500 b 939 897 1071 719 1027 819 b 600 1013 851 974 738 1013 b 202 860 443 1013 310 962 b 40 481 94 758 40 631 b 197 116 40 331 92 209 b 579 -24 301 23 428 -24 b 796 12 657 -24 729 -12 b 1004 126 863 35 932 74 z m 685 606 b 665 492 685 574 678 536 b 604 370 652 448 632 408 b 513 314 576 333 546 314 b 445 347 484 314 461 325 b 421 438 429 369 421 400 b 441 544 421 470 428 506 b 503 651 454 583 475 619 b 596 699 531 683 562 699 b 660 672 622 699 643 690 b 685 606 676 655 685 632 z "},"A":{"ha":926,"x_min":0,"x_max":0,"o":"m 556 990 l 371 990 l -11 0 l 168 0 l 265 263 l 657 263 l 751 0 l 938 0 z m 611 393 l 310 393 l 464 810 z "},"B":{"ha":978,"x_min":0,"x_max":0,"o":"m 103 989 l 103 0 l 607 0 b 833 81 700 0 775 27 b 919 292 891 134 919 205 b 869 449 919 355 903 407 b 733 532 836 490 791 518 b 836 613 776 549 810 576 b 875 740 862 651 875 693 b 792 922 875 816 847 877 b 554 989 737 966 658 989 z m 272 849 l 514 849 b 653 822 574 849 621 840 b 703 713 686 805 703 768 b 656 608 703 663 687 628 b 508 576 624 587 575 576 l 272 576 z m 272 451 l 529 451 b 611 446 561 451 588 450 b 678 425 634 442 657 435 b 728 377 700 415 717 399 b 746 296 740 355 746 328 b 689 175 746 238 727 197 b 532 142 651 153 599 142 l 272 142 z "},"C":{"ha":1003,"x_min":0,"x_max":0,"o":"m 951 376 l 778 376 b 525 124 756 208 672 124 b 391 156 474 124 429 134 b 300 241 353 177 322 205 b 250 358 278 277 261 316 b 233 494 239 401 233 446 b 262 672 233 558 243 617 b 359 808 281 726 313 771 b 526 864 405 845 461 864 b 688 813 590 864 644 847 b 771 674 731 779 759 733 l 943 674 b 803 924 927 783 881 866 b 529 1011 725 982 634 1011 b 275 940 432 1011 347 987 b 113 752 203 892 149 829 b 58 494 76 675 58 589 b 185 118 58 338 100 213 b 521 -24 269 24 381 -24 b 822 85 644 -24 744 13 b 951 376 899 158 942 255 z "},"D":{"ha":1003,"x_min":0,"x_max":0,"o":"m 104 989 l 104 0 l 490 0 b 678 24 568 0 631 8 b 811 110 726 41 770 69 b 950 511 904 202 950 336 b 804 888 950 675 901 800 b 661 967 761 926 713 953 b 481 989 609 982 549 989 z m 276 842 l 469 842 b 701 752 574 842 651 812 b 776 503 751 692 776 609 b 710 240 776 391 754 303 b 481 146 665 177 589 146 l 276 146 z "},"E":{"ha":875,"x_min":0,"x_max":0,"o":"m 815 989 l 103 989 l 103 0 l 824 0 l 824 149 l 275 149 l 275 440 l 776 440 l 776 581 l 275 581 l 275 843 l 815 843 z "},"F":{"ha":824,"x_min":0,"x_max":0,"o":"m 789 989 l 104 989 l 104 0 l 279 0 l 279 432 l 726 432 l 726 572 l 279 572 l 279 842 l 789 842 z "},"G":{"ha":1054,"x_min":0,"x_max":0,"o":"m 972 529 l 549 529 l 549 396 l 815 396 b 745 197 815 317 792 251 b 546 117 698 144 632 117 b 316 216 448 117 371 150 b 233 490 261 282 233 374 b 315 764 233 606 261 697 b 540 864 370 831 445 864 b 709 813 608 864 664 847 b 792 674 754 779 781 733 l 960 674 b 823 919 949 777 903 859 b 542 1010 743 980 649 1010 b 189 860 394 1010 276 960 b 58 488 102 761 58 637 b 188 118 58 336 102 213 b 526 -24 275 24 388 -24 b 835 118 653 -24 756 24 l 861 0 l 972 0 z "},"H":{"ha":1003,"x_min":0,"x_max":0,"o":"m 901 989 l 728 989 l 728 596 l 275 596 l 275 989 l 101 989 l 101 0 l 275 0 l 275 444 l 728 444 l 728 0 l 901 0 z "},"I":{"ha":386,"x_min":0,"x_max":0,"o":"m 281 989 l 106 989 l 106 0 l 281 0 z "},"J":{"ha":746,"x_min":0,"x_max":0,"o":"m 653 989 l 479 989 l 479 317 b 478 255 479 291 479 270 b 469 203 477 240 474 222 b 447 158 464 183 456 168 b 407 130 438 147 425 138 b 343 118 389 122 368 118 b 231 163 288 118 251 133 b 200 293 210 193 200 237 l 200 347 l 35 347 l 35 310 b 108 61 35 200 59 118 b 349 -24 156 5 237 -24 b 576 57 449 -24 524 3 b 653 293 627 111 653 189 z "},"K":{"ha":951,"x_min":0,"x_max":0,"o":"m 932 989 l 713 989 l 275 540 l 275 989 l 103 989 l 103 0 l 275 0 l 275 332 l 417 474 l 742 0 l 957 0 l 536 594 z "},"L":{"ha":797,"x_min":0,"x_max":0,"o":"m 781 150 l 278 150 l 278 989 l 103 989 l 103 0 l 781 0 z "},"M":{"ha":1235,"x_min":0,"x_max":0,"o":"m 1132 989 l 890 989 l 624 215 l 347 989 l 104 989 l 104 0 l 268 0 l 268 763 l 550 0 l 692 0 l 967 763 l 967 0 l 1132 0 z "},"N":{"ha":1003,"x_min":0,"x_max":0,"o":"m 906 989 l 739 989 l 739 260 l 283 989 l 101 989 l 101 0 l 265 0 l 265 728 l 726 0 l 906 0 z "},"O":{"ha":1056,"x_min":0,"x_max":0,"o":"m 531 1013 b 181 866 383 1013 267 964 b 53 494 96 768 53 644 b 184 119 53 340 97 215 b 528 -24 272 24 386 -24 b 871 120 669 -24 783 24 b 1003 494 959 216 1003 341 b 872 869 1003 648 959 773 b 531 1013 784 965 670 1013 z m 528 867 b 747 766 619 867 692 833 b 828 496 801 699 828 609 b 747 224 828 383 801 292 b 531 122 692 156 620 122 b 309 224 437 122 363 156 b 228 497 255 291 228 382 b 310 766 228 609 255 699 b 528 867 364 833 437 867 z "},"P":{"ha":926,"x_min":0,"x_max":0,"o":"m 107 989 l 107 0 l 281 0 l 281 381 l 560 381 b 794 463 659 381 737 408 b 881 688 852 518 881 593 b 788 913 881 788 850 863 b 536 989 727 964 643 989 z m 281 844 l 507 844 b 711 683 643 844 711 791 b 522 521 711 575 648 521 l 281 521 z "},"Q":{"ha":1056,"x_min":0,"x_max":0,"o":"m 990 3 l 861 114 b 965 278 906 156 940 211 b 1001 496 989 344 1001 417 b 869 866 1001 647 957 770 b 529 1010 781 962 668 1010 b 185 865 388 1010 274 962 b 53 492 97 769 53 644 b 183 119 53 338 96 214 b 524 -24 270 24 384 -24 b 758 33 620 -24 698 -5 l 906 -92 z m 739 221 l 622 322 l 539 228 l 640 142 b 529 118 605 126 568 118 b 310 220 438 118 364 152 b 228 494 255 288 228 380 b 309 763 228 606 255 696 b 526 864 363 830 436 864 b 746 763 618 864 691 830 b 828 494 800 696 828 606 b 739 221 828 387 798 296 z "},"R":{"ha":978,"x_min":0,"x_max":0,"o":"m 103 989 l 103 0 l 275 0 l 275 408 l 506 408 b 672 363 587 408 642 393 b 722 197 701 333 718 278 b 724 168 722 192 723 182 b 725 139 725 154 725 144 l 728 114 l 731 89 b 733 67 731 83 731 76 b 736 47 734 59 735 52 b 740 30 737 41 738 36 b 747 13 742 24 744 18 b 754 0 749 8 751 4 l 940 0 b 928 15 936 5 931 10 b 918 35 924 21 921 28 b 911 56 915 43 913 50 b 905 83 909 62 907 71 b 900 109 903 94 901 103 b 897 140 899 115 898 125 b 894 172 895 155 894 166 b 891 208 893 178 892 190 b 888 246 890 227 888 239 b 881 306 886 271 884 291 b 868 360 879 322 875 339 b 844 410 862 380 853 397 b 803 446 834 423 820 435 b 740 471 785 457 764 465 b 861 562 792 489 832 520 b 904 714 890 604 904 655 b 811 923 904 809 873 879 b 571 989 749 967 669 989 z m 275 847 l 526 847 b 603 842 556 847 582 845 b 667 821 625 838 647 831 b 715 774 688 811 704 795 b 732 696 726 753 732 727 b 713 611 732 662 726 633 b 659 563 701 589 683 573 b 589 543 635 553 612 547 b 504 538 566 539 538 538 l 275 538 z "},"S":{"ha":900,"x_min":0,"x_max":0,"o":"m 815 697 b 708 932 812 803 776 881 b 446 1008 641 983 553 1008 b 180 930 335 1008 246 982 b 81 719 114 878 81 807 l 81 700 b 210 507 86 613 129 549 b 453 429 249 487 330 461 b 468 425 456 428 462 427 b 589 390 525 410 566 399 b 653 348 612 382 634 368 b 683 271 673 328 683 302 b 627 156 683 222 665 184 b 471 115 590 129 538 115 b 286 167 395 115 333 133 b 215 328 239 202 215 256 l 44 328 b 160 67 44 213 83 126 b 461 -22 237 7 337 -22 b 576 -12 501 -22 539 -19 b 683 22 613 -5 649 6 b 772 81 718 38 747 58 b 832 169 797 105 817 134 b 854 288 847 205 854 244 b 722 508 854 388 810 461 b 497 583 682 531 607 556 b 446 597 485 586 468 591 b 283 651 362 619 307 637 b 246 733 258 666 246 694 b 296 834 246 776 263 809 b 435 871 329 859 375 871 b 650 697 568 871 640 813 z "},"T":{"ha":824,"x_min":0,"x_max":0,"o":"m 814 989 l 10 989 l 10 839 l 325 839 l 325 0 l 499 0 l 499 839 l 814 839 z "},"U":{"ha":1003,"x_min":0,"x_max":0,"o":"m 907 989 l 733 989 l 733 406 b 725 290 733 359 731 321 b 694 203 719 259 709 230 b 626 143 680 176 657 156 b 507 124 595 130 555 124 b 269 351 349 124 269 200 l 269 989 l 96 989 l 96 386 b 195 81 96 249 129 147 b 504 -19 261 14 364 -19 b 907 383 773 -19 907 115 z "},"V":{"ha":849,"x_min":0,"x_max":0,"o":"m -7 989 l 325 0 l 518 0 l 857 989 l 681 989 l 425 207 l 175 989 z "},"W":{"ha":1311,"x_min":0,"x_max":0,"o":"m 11 989 l 272 0 l 451 0 l 656 760 l 856 0 l 1032 0 l 1306 989 l 1129 989 l 943 236 l 747 989 l 571 989 l 368 236 l 188 989 z "},"X":{"ha":900,"x_min":0,"x_max":0,"o":"m -8 0 l 192 0 l 443 378 l 690 0 l 901 0 l 550 513 l 878 989 l 683 989 l 449 639 l 224 989 l 17 989 l 344 513 z "},"Y":{"ha":900,"x_min":0,"x_max":0,"o":"m 910 989 l 715 989 l 456 551 l 193 989 l -7 989 l 367 393 l 367 0 l 538 0 l 538 393 z "},"Z":{"ha":875,"x_min":0,"x_max":0,"o":"m 822 989 l 68 989 l 68 839 l 599 839 l 26 143 l 26 0 l 839 0 l 839 150 l 246 150 l 822 851 z "},"[":{"ha":411,"x_min":0,"x_max":0,"o":"m 410 1000 l 99 1000 l 99 -250 l 410 -250 l 410 -126 l 246 -126 l 246 876 l 410 876 z "},"\\":{"ha":489,"x_min":0,"x_max":0,"o":"m 360 -24 l 488 -24 l 132 1013 l 4 1013 z "},"]":{"ha":411,"x_min":0,"x_max":0,"o":"m 1 1000 l 1 876 l 165 876 l 165 -126 l 1 -126 l 1 -250 l 313 -250 l 313 1000 z "},"^":{"ha":833,"x_min":0,"x_max":0,"o":"m 111 376 l 254 376 l 414 790 l 579 376 l 722 376 l 479 967 l 354 967 z "},"_":{"ha":694,"x_min":0,"x_max":0,"o":"m 0 -174 l 694 -174 l 694 -104 l 0 -104 z "},"`":{"ha":335,"x_min":0,"x_max":0,"o":"m 136 1010 l -50 1010 l 147 811 l 263 811 z "},"a":{"ha":772,"x_min":0,"x_max":0,"o":"m 76 496 l 226 496 b 272 594 233 542 248 575 b 386 624 296 614 334 624 b 533 515 484 624 533 588 b 524 464 533 488 530 471 b 482 441 516 454 502 446 b 367 422 462 436 423 430 b 317 416 342 419 325 417 b 269 408 309 415 294 412 b 219 398 245 405 228 401 b 174 383 209 395 194 390 b 131 363 154 377 140 370 b 98 335 122 355 111 346 b 69 299 84 324 75 312 b 53 253 63 286 57 270 b 46 196 48 235 46 216 b 111 40 46 130 68 78 b 288 -18 155 1 213 -18 b 539 68 395 -18 479 11 b 656 -18 549 11 588 -18 b 758 -3 683 -18 718 -13 l 758 108 b 722 106 745 106 733 106 b 692 117 707 106 697 109 b 685 158 687 124 685 138 l 685 522 b 605 686 685 596 658 651 b 390 739 552 721 480 739 b 76 496 198 739 93 658 z m 532 360 l 532 275 b 500 151 532 214 521 173 b 338 94 462 113 408 94 b 242 122 297 94 265 104 b 208 201 220 141 208 167 b 218 249 208 220 212 236 b 241 281 225 263 232 273 b 278 301 250 289 262 296 b 319 313 295 307 308 311 b 365 321 331 316 346 318 b 406 326 372 322 385 324 b 452 333 427 329 442 331 b 490 342 462 334 475 337 b 532 360 506 347 520 353 z "},"b":{"ha":849,"x_min":0,"x_max":0,"o":"m 242 989 l 85 989 l 85 0 l 233 0 l 233 97 b 468 -19 281 19 360 -19 b 704 85 566 -19 645 16 b 793 364 763 155 793 248 b 706 633 793 476 764 566 b 476 735 648 701 572 735 b 242 624 373 735 294 698 z m 436 608 b 580 542 496 608 544 586 b 633 361 616 497 633 437 b 579 177 633 284 615 223 b 436 108 543 131 495 108 b 290 175 374 108 325 131 b 236 357 254 219 236 280 b 290 542 236 436 254 497 b 436 608 325 587 374 609 z "},"c":{"ha":772,"x_min":0,"x_max":0,"o":"m 733 271 l 578 271 b 520 149 569 218 550 178 b 404 107 490 121 451 107 b 263 174 344 107 297 129 b 213 360 229 218 213 280 b 265 548 213 439 230 502 b 410 617 300 594 349 617 b 515 581 452 617 488 605 b 571 476 543 556 562 522 l 728 476 b 630 669 719 559 686 623 b 408 739 574 716 500 739 b 148 634 299 739 212 704 b 51 351 84 564 51 470 b 147 84 51 241 83 152 b 404 -18 211 16 297 -18 b 628 60 494 -18 569 8 b 733 271 687 113 722 183 z "},"d":{"ha":849,"x_min":0,"x_max":0,"o":"m 763 989 l 607 989 l 607 624 b 379 736 556 699 480 736 b 142 634 280 736 201 702 b 54 360 84 566 54 475 b 144 83 54 244 84 152 b 385 -19 203 15 284 -19 b 614 99 492 -19 569 20 l 614 0 l 763 0 z m 408 608 b 558 543 472 608 522 587 b 611 360 593 500 611 438 b 559 175 611 281 594 219 b 414 108 524 131 476 108 b 267 176 352 108 303 131 b 214 363 232 222 214 284 b 266 542 214 438 231 498 b 408 608 301 586 348 608 z "},"e":{"ha":772,"x_min":0,"x_max":0,"o":"m 725 224 l 574 224 b 509 124 558 178 536 145 b 403 93 482 103 446 93 b 260 152 342 93 294 113 b 206 319 225 191 207 247 l 735 319 l 735 336 b 643 630 735 460 704 558 b 394 738 582 702 499 738 b 145 628 294 738 210 701 b 47 350 80 555 47 462 b 142 81 47 241 79 151 b 400 -24 206 11 292 -24 b 610 42 481 -24 552 -2 b 725 224 669 85 707 146 z m 576 425 l 208 425 b 267 569 216 488 235 536 b 393 619 299 603 341 619 b 520 567 445 619 487 602 b 576 425 553 533 572 485 z "},"f":{"ha":438,"x_min":0,"x_max":0,"o":"m 439 990 b 344 994 407 993 376 994 b 181 940 268 994 213 976 b 132 774 148 904 132 849 l 132 717 l 14 717 l 14 601 l 132 601 l 132 0 l 289 0 l 289 601 l 424 601 l 424 717 l 288 717 l 288 786 b 304 855 288 820 293 843 b 369 872 315 866 337 872 b 439 868 385 872 408 871 z "},"g":{"ha":824,"x_min":0,"x_max":0,"o":"m 740 717 l 593 717 l 593 617 b 497 708 563 658 531 689 b 369 736 463 727 420 736 b 138 634 273 736 196 702 b 50 364 79 566 50 476 b 134 103 50 255 78 168 b 361 7 190 39 266 7 b 589 128 461 7 537 47 l 589 43 b 544 -118 589 -31 574 -85 b 400 -168 514 -151 466 -168 b 233 -61 304 -168 248 -132 l 75 -61 b 396 -279 93 -206 200 -279 b 662 -190 521 -279 609 -250 b 740 83 714 -131 740 -40 z m 397 608 b 538 547 457 608 504 588 b 589 375 572 505 589 448 b 538 197 589 300 572 241 b 397 131 503 153 456 131 b 259 194 340 131 294 152 b 207 367 224 237 207 294 b 258 544 207 443 224 502 b 397 608 291 587 338 608 z "},"h":{"ha":797,"x_min":0,"x_max":0,"o":"m 242 989 l 85 989 l 85 0 l 242 0 l 242 385 b 283 543 242 450 256 503 b 417 603 311 583 356 603 b 527 560 471 603 508 588 b 556 435 546 531 556 489 l 556 0 l 715 0 l 715 486 b 650 672 715 568 694 629 b 468 735 606 714 546 735 b 242 618 370 735 294 696 z "},"i":{"ha":335,"x_min":0,"x_max":0,"o":"m 246 993 l 88 993 l 88 838 l 246 838 z m 246 717 l 88 717 l 88 0 l 246 0 z "},"j":{"ha":335,"x_min":0,"x_max":0,"o":"m 251 717 l 93 717 l 93 -79 b 74 -132 93 -106 87 -124 b 11 -144 62 -140 41 -144 b -26 -142 10 -144 -2 -144 l -26 -271 b 40 -275 4 -274 26 -275 b 205 -219 119 -275 174 -256 b 251 -37 236 -182 251 -122 z m 251 994 l 93 994 l 93 838 l 251 838 z "},"k":{"ha":746,"x_min":0,"x_max":0,"o":"m 719 717 l 525 717 l 239 432 l 239 989 l 85 989 l 85 0 l 239 0 l 239 257 l 333 346 l 551 0 l 744 0 l 444 454 z "},"l":{"ha":335,"x_min":0,"x_max":0,"o":"m 246 989 l 89 989 l 89 0 l 246 0 z "},"m":{"ha":1208,"x_min":0,"x_max":0,"o":"m 235 717 l 85 717 l 85 0 l 243 0 l 243 413 b 285 551 243 470 257 516 b 407 603 313 585 353 603 b 502 564 455 603 487 590 b 525 449 517 538 525 500 l 525 0 l 683 0 l 683 421 b 724 555 683 478 697 523 b 840 603 750 587 789 603 b 942 560 890 603 924 588 b 968 440 959 531 968 491 l 968 0 l 1126 0 l 1126 508 b 1060 676 1126 580 1104 635 b 892 736 1015 716 959 736 b 660 614 794 736 717 695 b 583 704 643 653 617 683 b 460 736 548 725 507 736 b 235 615 369 736 294 696 z "},"n":{"ha":797,"x_min":0,"x_max":0,"o":"m 235 717 l 85 717 l 85 0 l 243 0 l 243 386 b 418 604 243 531 301 604 b 493 590 449 604 474 599 b 535 546 513 580 527 565 b 553 488 544 526 550 507 b 557 417 556 469 557 445 l 557 0 l 715 0 l 715 478 b 655 669 715 561 695 625 b 472 736 615 714 554 736 b 235 611 371 736 292 694 z "},"o":{"ha":824,"x_min":0,"x_max":0,"o":"m 415 738 b 149 635 304 738 216 703 b 50 358 83 566 50 474 b 149 81 50 242 83 149 b 415 -22 214 12 303 -22 b 677 81 525 -22 613 12 b 774 358 741 149 774 242 b 676 635 774 474 741 566 b 415 738 612 703 525 738 z m 413 613 b 560 545 475 613 525 590 b 614 360 596 500 614 438 b 560 170 614 279 596 216 b 414 101 525 124 476 101 b 264 169 350 101 300 124 b 210 358 228 215 210 278 b 264 544 210 437 228 499 b 413 613 300 590 350 613 z "},"p":{"ha":849,"x_min":0,"x_max":0,"o":"m 235 717 l 86 717 l 86 -265 l 243 -265 l 243 94 b 476 -18 297 19 375 -18 b 708 84 573 -18 650 16 b 794 356 766 152 794 243 b 706 633 794 471 765 564 b 468 738 646 703 567 738 b 235 621 361 738 283 699 z m 436 610 b 581 541 497 610 546 587 b 635 356 617 495 635 433 b 582 175 635 280 617 219 b 439 108 547 131 499 108 b 291 175 376 108 327 131 b 238 358 255 219 238 281 b 290 543 238 437 255 499 b 436 610 325 588 374 610 z "},"q":{"ha":849,"x_min":0,"x_max":0,"o":"m 763 717 l 614 717 l 614 622 b 382 738 565 699 488 738 b 142 635 281 738 201 703 b 54 356 84 566 54 473 b 140 83 54 241 83 150 b 372 -18 198 16 275 -18 b 607 96 472 -18 550 20 l 607 -265 l 763 -265 z m 408 610 b 558 544 472 610 522 588 b 611 363 593 501 611 440 b 558 176 611 283 594 221 b 411 108 523 131 474 108 b 267 174 350 108 302 130 b 214 354 231 218 214 278 b 267 541 214 433 231 495 b 408 610 302 587 349 610 z "},"r":{"ha":489,"x_min":0,"x_max":0,"o":"m 489 731 l 458 733 b 218 574 349 733 269 680 l 218 717 l 69 717 l 69 0 l 226 0 l 226 315 b 433 583 226 494 295 583 b 489 579 443 583 461 582 z "},"s":{"ha":721,"x_min":0,"x_max":0,"o":"m 651 508 b 567 681 651 585 623 643 b 351 738 511 719 439 738 b 136 680 260 738 188 718 b 58 521 84 641 58 588 b 157 364 58 448 91 395 b 351 306 185 350 250 331 b 360 303 354 305 357 304 b 367 301 363 303 365 302 l 375 300 b 433 285 399 294 418 290 b 478 267 447 281 462 275 b 512 239 494 259 505 250 b 522 199 519 228 522 214 b 480 123 522 167 508 142 b 368 94 452 104 414 94 b 194 229 261 94 203 139 l 43 229 b 131 43 47 148 76 86 b 365 -21 185 0 263 -21 b 593 43 461 -21 537 0 b 678 215 650 86 678 143 b 659 297 678 246 672 273 b 618 352 647 320 633 339 b 549 391 603 366 580 378 b 478 416 518 403 495 412 b 400 435 462 420 436 426 b 364 442 392 437 380 439 b 330 450 348 446 337 448 b 301 458 323 452 313 454 b 276 466 289 461 281 464 b 256 475 271 468 264 471 b 238 486 247 479 241 482 b 227 499 235 490 231 494 b 219 517 223 504 220 510 b 217 539 217 523 217 531 b 250 600 217 565 228 585 b 344 622 272 615 304 622 b 500 508 439 622 491 584 z "},"t":{"ha":463,"x_min":0,"x_max":0,"o":"m 433 717 l 289 717 l 289 932 l 131 932 l 131 717 l 11 717 l 11 601 l 131 601 l 131 260 l 131 250 l 131 242 l 131 233 l 131 172 b 134 122 131 161 132 144 b 145 76 136 100 140 84 b 167 42 150 67 157 56 b 201 14 176 29 188 19 b 253 -1 215 8 233 3 b 326 -7 274 -5 299 -7 b 433 -1 366 -7 402 -5 l 433 124 b 371 121 418 122 397 121 b 323 126 350 121 334 123 b 299 148 311 130 303 137 b 290 177 294 159 291 168 b 289 224 289 186 289 201 l 289 601 l 433 601 z "},"u":{"ha":797,"x_min":0,"x_max":0,"o":"m 713 717 l 554 717 l 554 338 b 513 177 554 273 540 219 b 382 114 485 135 441 114 b 316 125 356 114 334 118 b 274 151 298 132 284 141 b 252 195 265 162 257 176 b 243 247 247 214 244 231 b 242 307 242 262 242 282 l 242 717 l 83 717 l 83 242 b 147 48 83 157 104 93 b 328 -19 189 3 249 -19 b 564 107 425 -19 504 23 l 564 0 l 713 0 z "},"v":{"ha":721,"x_min":0,"x_max":0,"o":"m 11 717 l 272 -1 l 450 -1 l 707 717 l 543 717 l 367 165 l 183 717 z "},"w":{"ha":1081,"x_min":0,"x_max":0,"o":"m 17 717 l 239 0 l 406 0 l 539 532 l 674 0 l 836 0 l 1063 717 l 901 717 l 753 179 l 621 717 l 461 717 l 326 179 l 185 717 z "},"x":{"ha":746,"x_min":0,"x_max":0,"o":"m 275 376 l 4 0 l 190 0 l 367 264 l 549 0 l 739 0 l 465 385 l 708 717 l 525 717 l 368 496 l 218 717 l 26 717 z "},"y":{"ha":721,"x_min":0,"x_max":0,"o":"m 715 717 l 550 717 l 369 189 l 178 717 l 4 717 l 279 21 b 271 -7 278 17 275 8 b 260 -40 266 -22 263 -33 b 248 -69 257 -47 253 -56 b 232 -98 243 -81 238 -91 b 213 -120 226 -105 220 -112 b 188 -137 205 -128 197 -134 b 157 -142 178 -140 168 -142 b 74 -132 135 -142 107 -138 l 74 -265 b 183 -274 117 -271 154 -274 b 233 -269 201 -274 217 -272 b 274 -258 248 -266 262 -262 b 309 -237 286 -253 297 -247 b 338 -212 321 -227 330 -219 b 364 -181 346 -206 355 -195 l 385 -147 b 403 -108 389 -140 396 -127 b 419 -69 411 -90 417 -77 b 435 -27 422 -62 427 -48 b 450 14 442 -6 447 7 z "},"z":{"ha":694,"x_min":0,"x_max":0,"o":"m 642 717 l 58 717 l 58 592 l 431 592 l 31 121 l 31 0 l 663 0 l 663 128 l 236 128 l 642 606 z "},"{":{"ha":411,"x_min":0,"x_max":0,"o":"m -33 417 l -33 332 b 110 272 39 320 87 300 b 144 128 133 244 144 196 l 144 46 b 215 -179 144 -62 168 -137 b 444 -250 261 -221 338 -244 l 444 -165 b 318 -110 385 -161 343 -142 b 281 28 293 -78 281 -32 l 281 111 b 243 296 281 194 268 255 b 88 375 218 337 166 363 b 241 453 163 384 215 410 b 281 638 267 495 281 557 l 281 718 b 319 861 281 783 293 831 b 444 915 344 892 386 910 l 444 1000 b 217 928 342 995 266 971 b 144 701 169 884 144 809 l 144 596 b 103 472 144 539 131 498 b -33 417 76 445 31 427 z "},"|":{"ha":308,"x_min":0,"x_max":0,"o":"m 85 -297 l 224 -297 l 224 1092 l 85 1092 z "},"}":{"ha":411,"x_min":0,"x_max":0,"o":"m 444 332 l 444 417 b 308 472 381 427 335 445 b 267 596 280 498 267 539 l 267 701 b 194 928 267 809 242 884 b -33 1000 145 971 69 995 l -33 915 b 92 861 25 910 67 892 b 131 718 118 831 131 783 l 131 638 b 170 453 131 557 144 495 b 324 375 197 410 248 384 b 168 296 245 363 193 337 b 131 111 143 255 131 194 l 131 28 b 93 -110 131 -32 118 -78 b -33 -165 68 -142 26 -161 l -33 -250 b 197 -179 73 -244 150 -221 b 267 46 243 -137 267 -62 l 267 128 b 301 272 267 196 278 244 b 444 332 325 300 372 320 z "},"~":{"ha":833,"x_min":0,"x_max":0,"o":"m 788 472 l 697 472 b 607 378 686 409 656 378 b 581 379 599 378 590 378 b 558 383 572 380 565 381 b 531 390 551 384 542 387 l 503 400 b 469 411 496 402 485 406 b 431 424 453 417 440 421 b 243 471 333 455 271 471 b 104 406 183 471 137 449 b 46 243 72 362 52 308 l 136 243 b 167 315 140 273 150 297 b 229 342 184 333 205 342 b 269 335 239 342 253 340 b 313 322 285 331 300 327 b 363 305 325 318 342 312 b 403 290 383 298 396 293 b 589 246 496 261 558 246 b 725 304 645 246 691 265 b 788 472 759 343 780 399 z "},"":{"ha":0,"x_min":0,"x_max":0,"o":""}," ":{"ha":386,"x_min":0,"x_max":0,"o":""},"¡":{"ha":386,"x_min":0,"x_max":0,"o":"m 286 738 l 100 738 l 100 564 l 286 564 z m 281 29 l 235 461 l 153 461 l 107 29 l 107 -254 l 281 -254 z "},"¢":{"ha":772,"x_min":0,"x_max":0,"o":"m 372 -144 l 432 -144 l 432 -19 b 633 57 515 -19 582 6 b 733 269 683 108 717 179 l 575 269 b 432 106 564 175 516 120 l 432 613 b 524 575 468 613 499 600 b 569 478 550 550 565 518 l 728 478 b 635 667 722 556 691 619 b 432 738 578 714 511 738 l 432 863 l 372 863 l 372 738 b 141 631 278 738 201 702 b 51 351 81 560 51 467 b 139 88 51 248 81 160 b 372 -19 197 16 275 -19 z m 372 106 b 250 188 318 114 277 141 b 210 351 223 235 210 289 b 249 528 210 418 223 477 b 372 613 275 579 316 607 z "},"£":{"ha":772,"x_min":0,"x_max":0,"o":"m 303 532 b 292 551 302 533 298 539 b 280 574 285 563 281 571 b 269 594 278 576 275 583 b 258 617 264 604 260 612 b 250 638 256 621 254 628 b 242 663 246 648 244 656 b 238 685 241 669 240 676 b 236 708 237 693 236 701 b 283 821 236 754 252 791 b 401 865 314 850 353 865 b 581 669 516 865 576 800 l 738 669 b 649 914 738 774 708 856 b 401 1001 591 972 508 1001 b 160 922 302 1001 222 975 b 68 717 99 869 68 801 b 86 620 68 692 74 659 b 126 532 98 581 112 551 l 46 532 l 46 444 l 169 444 b 201 329 191 400 201 362 b 50 96 201 242 151 164 l 125 -17 b 268 38 181 19 229 38 b 400 14 303 38 347 30 b 560 -19 477 -8 530 -19 b 769 57 649 -19 719 6 l 699 175 b 568 121 663 139 619 121 b 465 142 547 121 513 128 b 360 158 425 153 390 158 b 219 124 317 158 270 147 b 326 237 269 164 305 202 b 358 347 348 272 358 308 b 342 443 358 378 353 410 l 342 444 l 506 444 l 506 532 z "},"¤":{"ha":772,"x_min":0,"x_max":0,"o":"m 47 222 l 128 142 l 219 233 b 388 182 269 199 325 182 b 553 233 451 182 506 199 l 644 142 l 725 222 l 633 314 b 685 479 668 368 685 423 b 633 647 685 546 668 602 l 725 739 l 644 819 l 554 728 b 386 779 500 762 444 779 b 219 728 320 779 265 762 l 128 819 l 47 739 l 139 647 b 88 481 105 597 88 542 b 139 314 88 425 105 369 z m 386 658 b 512 606 435 658 477 641 b 564 481 547 572 564 530 b 512 355 564 431 547 390 b 386 303 477 320 435 303 b 260 355 337 303 295 320 b 208 481 226 390 208 431 b 260 606 208 530 226 572 b 386 658 295 641 337 658 z "},"¥":{"ha":772,"x_min":0,"x_max":0,"o":"m 307 0 l 465 0 l 465 229 l 656 229 l 656 319 l 465 319 l 465 414 l 656 414 l 656 504 l 518 504 l 779 992 l 607 992 l 386 547 l 169 992 l -7 992 l 253 504 l 117 504 l 117 414 l 307 414 l 307 319 l 117 319 l 117 229 l 307 229 z "},"¦":{"ha":308,"x_min":0,"x_max":0,"o":"m 85 -124 l 224 -124 l 224 224 l 85 224 z m 85 571 l 224 571 l 224 918 l 85 918 z "},"§":{"ha":772,"x_min":0,"x_max":0,"o":"m 665 751 b 591 936 665 828 641 890 b 393 1006 541 982 475 1006 b 196 942 313 1006 247 984 b 119 779 145 900 119 846 b 181 638 119 726 140 679 b 74 564 136 625 101 600 b 35 439 48 528 35 486 b 67 324 35 396 46 358 b 139 246 89 291 113 264 b 243 185 165 227 200 207 b 464 56 356 125 430 82 b 515 -35 498 31 515 0 b 481 -109 515 -65 504 -90 b 393 -137 459 -128 429 -137 b 247 1 306 -137 257 -91 l 99 1 b 179 -193 100 -81 127 -146 b 392 -264 231 -240 302 -264 b 592 -199 473 -264 540 -242 b 671 -31 645 -155 671 -99 b 594 129 671 35 645 88 b 700 211 640 148 675 175 b 738 333 725 247 738 288 b 654 499 738 396 710 451 b 496 597 629 520 576 553 b 443 626 482 605 464 614 b 396 651 422 637 406 646 b 358 673 386 657 373 664 b 326 694 344 682 333 689 b 304 713 320 699 313 705 b 287 735 296 721 290 728 b 278 757 284 741 281 749 b 274 783 275 765 274 774 b 306 855 274 813 284 837 b 390 882 327 873 355 882 b 482 849 429 882 460 871 b 519 751 504 826 517 794 z m 263 563 l 517 417 b 594 311 569 387 594 352 b 570 245 594 288 586 266 b 508 201 554 224 533 210 l 257 343 b 175 451 202 373 175 409 b 199 520 175 476 183 499 b 263 563 216 541 237 555 z "},"¨":{"ha":335,"x_min":0,"x_max":0,"o":"m 126 836 l 126 986 l -32 986 l -32 836 z m 207 986 l 207 836 l 365 836 l 365 986 z "},"©":{"ha":1111,"x_min":0,"x_max":0,"o":"m 556 1013 b 190 860 413 1013 291 962 b 38 494 88 759 38 637 b 190 128 38 352 88 230 b 556 -24 291 27 413 -24 b 922 128 698 -24 820 27 b 1074 494 1023 230 1074 352 b 922 860 1074 637 1023 759 b 556 1013 820 962 698 1013 z m 556 944 b 874 813 680 944 786 900 b 1006 494 962 725 1006 619 b 874 176 1006 370 962 264 b 556 44 786 88 680 44 b 238 176 431 44 325 88 b 106 494 150 264 106 370 b 238 813 106 619 150 725 b 556 944 325 900 431 944 z m 813 400 l 707 400 b 567 282 689 321 643 282 b 443 341 515 282 474 302 b 397 500 413 380 397 433 b 442 653 397 563 412 614 b 560 711 471 692 511 711 b 655 678 598 711 629 700 b 704 586 680 656 697 625 l 810 586 b 732 740 806 648 780 700 b 557 801 684 781 625 801 b 360 715 477 801 412 773 b 283 496 309 658 283 585 b 365 278 283 409 310 336 b 569 192 419 221 487 192 b 734 251 633 192 688 211 b 813 400 780 290 806 340 z "},"ª":{"ha":528,"x_min":0,"x_max":0,"o":"m 460 863 b 401 959 460 905 440 937 b 263 992 363 981 316 992 b 110 957 202 992 152 980 b 40 843 69 934 46 896 l 158 843 b 256 901 162 882 194 901 b 317 890 281 901 302 898 b 339 839 331 883 339 866 b 325 814 339 829 334 820 b 210 786 313 806 275 796 b 141 772 180 781 157 777 b 85 751 125 768 106 760 b 38 710 63 741 48 728 b 22 647 27 693 22 672 b 72 552 22 606 39 575 b 192 518 104 529 144 518 b 285 538 221 518 253 525 b 354 586 318 550 341 567 b 440 518 363 541 391 518 b 506 529 463 518 485 522 l 506 624 b 493 622 503 623 499 622 l 483 622 b 464 628 473 621 467 623 b 460 653 461 634 460 642 z m 339 682 b 221 608 339 633 300 608 b 143 654 169 608 143 624 b 167 698 143 673 151 687 b 220 718 182 709 200 715 b 287 728 240 721 262 724 b 339 743 311 733 329 738 z "},"«":{"ha":643,"x_min":0,"x_max":0,"o":"m 558 613 l 343 443 l 343 290 l 558 122 l 558 265 l 426 368 l 558 468 z m 288 613 l 69 443 l 69 293 l 288 121 l 288 265 l 153 369 l 288 471 z "},"¬":{"ha":833,"x_min":0,"x_max":0,"o":"m 58 440 l 640 440 l 640 142 l 776 142 l 776 574 l 58 574 z "},"­":{"ha":540,"x_min":0,"x_max":0,"o":"m 68 303 l 472 303 l 472 453 l 68 453 z "},"®":{"ha":556,"x_min":0,"x_max":0,"o":"m 276 1013 b 94 937 205 1013 144 987 b 18 754 43 886 18 825 b 94 571 18 683 43 622 b 276 494 144 520 205 494 b 460 571 348 494 409 520 b 536 754 512 622 537 683 b 460 937 536 825 511 886 b 276 1013 409 987 348 1013 z m 276 968 b 428 906 336 968 386 947 b 490 754 469 864 490 813 b 428 602 490 695 469 644 b 276 539 386 560 336 539 b 125 602 217 539 167 560 b 63 754 83 644 63 695 b 125 906 63 813 83 864 b 276 968 167 947 217 968 z m 169 897 l 169 613 l 233 613 l 233 719 l 264 719 b 317 707 291 719 308 715 b 331 651 325 699 330 680 b 336 613 331 637 332 624 l 400 613 b 393 651 395 625 393 638 b 382 716 392 681 388 703 b 346 746 375 729 363 739 b 397 814 380 758 397 781 b 271 897 397 869 355 897 z m 233 769 l 233 846 l 268 846 b 332 808 311 846 332 833 b 268 769 332 782 311 769 z "},"¯":{"ha":335,"x_min":0,"x_max":0,"o":"m 368 867 l 368 957 l -32 957 l -32 867 z "},"°":{"ha":556,"x_min":0,"x_max":0,"o":"m 278 981 b 119 915 216 981 163 959 b 54 757 76 872 54 819 b 119 599 54 695 76 642 b 278 533 163 555 216 533 b 436 599 340 533 393 555 b 501 757 480 642 501 695 b 436 915 501 819 480 872 b 278 981 393 959 340 981 z m 278 867 b 356 835 308 867 334 856 b 388 757 377 813 388 788 b 356 680 388 727 377 702 b 278 647 334 658 308 647 b 200 680 247 647 221 658 b 168 757 179 702 168 727 b 200 835 168 788 179 813 b 278 867 221 856 247 867 z "},"±":{"ha":833,"x_min":0,"x_max":0,"o":"m 346 160 l 488 160 l 488 379 l 776 379 l 776 513 l 488 513 l 488 738 l 346 738 l 346 513 l 58 513 l 58 379 l 346 379 z m 58 -22 l 776 -22 l 776 110 l 58 110 z "},"²":{"ha":500,"x_min":0,"x_max":0,"o":"m 467 476 l 171 476 b 197 516 175 489 184 503 b 232 547 209 529 221 540 b 286 582 243 555 261 566 b 339 615 311 598 329 609 b 481 811 433 675 481 741 b 419 947 481 871 460 916 b 264 992 379 977 327 992 b 97 931 194 992 138 972 b 36 765 56 891 36 836 l 157 765 b 258 894 163 851 196 894 b 331 873 287 894 311 887 b 360 808 350 859 360 837 b 337 747 359 787 351 766 b 297 702 322 727 309 712 b 229 656 285 692 263 677 b 168 617 196 635 175 622 b 29 379 76 558 30 479 l 467 379 z "},"³":{"ha":500,"x_min":0,"x_max":0,"o":"m 203 660 b 368 563 313 665 368 633 b 334 491 368 533 357 509 b 250 464 311 473 283 464 b 162 498 212 464 183 475 b 133 582 141 521 131 549 l 22 582 b 250 367 27 438 103 367 b 414 417 316 367 370 384 b 479 557 457 451 479 498 b 449 654 479 596 469 628 b 365 703 428 680 400 696 l 365 706 b 454 831 425 726 454 768 b 395 952 454 885 434 926 b 249 992 356 978 307 992 b 96 938 185 992 134 974 b 35 789 58 903 38 853 l 146 789 b 172 865 144 819 153 845 b 247 894 192 884 217 894 b 314 876 272 894 294 888 b 343 825 333 864 343 847 b 302 758 343 794 329 772 b 203 740 275 744 242 738 z "},"´":{"ha":335,"x_min":0,"x_max":0,"o":"m 63 818 l 178 818 l 375 1017 l 188 1017 z "},"µ":{"ha":797,"x_min":0,"x_max":0,"o":"m 78 -265 l 236 -265 l 236 63 b 288 11 245 46 263 29 b 388 -15 314 -6 347 -15 b 501 13 433 -15 471 -6 b 586 99 531 31 559 60 l 586 0 l 721 0 l 721 717 l 563 717 l 563 399 b 560 319 563 369 562 343 b 547 242 558 296 554 271 b 519 172 541 214 531 191 b 469 125 507 154 491 138 b 390 106 447 112 421 106 b 257 197 324 106 279 136 b 236 399 243 233 236 300 l 236 717 l 78 717 z "},"¶":{"ha":833,"x_min":0,"x_max":0,"o":"m 790 882 l 790 989 l 385 989 b 121 899 274 989 186 959 b 24 654 56 838 24 757 b 97 438 24 565 48 493 b 301 346 146 383 214 352 l 301 -253 l 432 -253 l 432 882 l 586 882 l 586 -253 l 715 -253 l 715 882 z "},"·":{"ha":386,"x_min":0,"x_max":0,"o":"m 288 497 l 99 497 l 99 310 l 288 310 z "},"¸":{"ha":335,"x_min":0,"x_max":0,"o":"m 13 -278 b 156 -310 51 -299 99 -310 b 274 -278 201 -310 240 -299 b 324 -182 307 -256 324 -225 b 288 -105 324 -149 312 -123 b 206 -78 263 -87 236 -78 b 160 -83 185 -78 170 -80 l 158 -82 l 222 0 l 156 0 l 64 -122 l 94 -149 b 149 -135 109 -139 127 -135 b 194 -149 166 -135 181 -139 b 213 -187 206 -158 213 -171 b 128 -244 213 -225 184 -244 b 38 -222 100 -244 70 -237 z "},"¹":{"ha":500,"x_min":0,"x_max":0,"o":"m 50 801 l 218 801 l 218 379 l 339 379 l 339 979 l 242 979 b 50 882 225 914 161 882 z "},"º":{"ha":528,"x_min":0,"x_max":0,"o":"m 515 754 b 451 928 515 827 494 885 b 268 992 409 970 348 992 b 85 928 188 992 127 970 b 21 754 42 885 21 827 b 85 581 21 681 42 623 b 268 518 127 539 188 518 b 451 581 348 518 409 539 b 515 754 494 623 515 681 z m 394 754 b 360 651 392 714 380 680 b 268 608 339 623 309 608 b 175 652 228 608 197 623 b 142 754 153 681 142 715 b 174 857 142 793 153 827 b 268 901 196 887 227 901 b 361 857 308 901 339 887 b 394 754 383 827 394 793 z "},"»":{"ha":643,"x_min":0,"x_max":0,"o":"m 356 614 l 356 469 l 489 364 l 356 264 l 356 122 l 574 290 l 574 440 z m 85 613 l 85 468 l 217 365 l 85 265 l 85 125 l 299 292 l 299 443 z "},"¼":{"ha":1158,"x_min":0,"x_max":0,"o":"m 196 -33 l 306 -33 l 886 1006 l 778 1006 z m 51 801 l 219 801 l 219 379 l 340 379 l 340 979 l 243 979 b 51 882 226 914 163 882 z m 878 239 l 713 239 l 875 458 l 878 458 z m 999 135 l 1064 135 l 1064 239 l 999 239 l 999 594 l 864 594 l 607 247 l 607 135 l 878 135 l 878 0 l 999 0 z "},"½":{"ha":1158,"x_min":0,"x_max":0,"o":"m 1094 97 l 799 97 b 809 119 801 105 805 112 b 827 142 813 127 819 134 b 849 161 835 149 842 156 b 876 181 855 167 864 173 b 904 199 888 189 898 195 b 936 217 911 202 921 209 b 967 236 951 226 961 232 b 1072 325 1012 267 1047 296 b 1108 432 1096 354 1108 389 b 1047 572 1108 493 1088 540 b 892 619 1006 603 955 619 b 724 558 819 619 763 599 b 664 386 684 516 664 459 l 785 386 b 886 522 790 477 824 522 b 959 497 916 522 940 514 b 988 429 978 481 988 458 b 963 356 988 402 979 378 b 902 303 947 334 927 317 b 822 254 878 289 851 273 b 742 197 794 236 767 217 b 681 117 718 178 697 151 b 657 0 665 82 657 44 l 1094 0 z m 50 801 l 218 801 l 218 379 l 339 379 l 339 979 l 242 979 b 50 882 225 914 161 882 z m 190 -33 l 300 -33 l 881 1006 l 772 1006 z "},"¾":{"ha":1158,"x_min":0,"x_max":0,"o":"m 203 658 b 368 563 313 664 368 632 b 334 491 368 533 357 509 b 250 464 311 473 283 464 b 162 498 212 464 183 475 b 133 582 141 521 131 549 l 22 582 b 250 367 27 438 103 367 b 414 417 316 367 370 384 b 479 557 457 451 479 498 b 449 654 479 596 469 628 b 365 703 428 680 400 696 l 365 706 b 454 831 425 726 454 768 b 395 952 454 885 434 926 b 249 992 356 978 307 992 b 96 938 185 992 134 974 b 35 789 58 903 38 853 l 146 789 b 172 865 144 819 153 845 b 247 894 192 884 217 894 b 314 876 272 894 294 888 b 343 825 333 864 343 847 b 301 758 343 794 329 772 b 203 739 274 743 241 737 z m 272 -33 l 382 -33 l 963 1006 l 854 1006 z m 929 239 l 764 239 l 926 458 l 929 458 z m 1050 135 l 1115 135 l 1115 239 l 1050 239 l 1050 594 l 913 594 l 658 247 l 658 135 l 929 135 l 929 0 l 1050 0 z "},"¿":{"ha":772,"x_min":0,"x_max":0,"o":"m 292 738 l 292 564 l 478 564 l 478 738 z m 546 54 b 503 -92 546 -7 532 -56 b 378 -146 475 -128 433 -146 b 286 -108 346 -146 316 -133 b 242 1 256 -82 242 -46 b 244 34 242 13 243 23 b 251 61 246 45 248 54 b 262 85 253 69 257 77 b 275 106 267 94 271 101 b 293 125 279 110 285 117 b 311 142 301 133 307 139 b 333 160 315 146 322 152 b 354 179 343 169 350 175 b 438 288 394 213 422 249 b 463 461 454 326 463 384 l 313 461 b 294 353 313 419 306 383 b 256 286 282 322 270 300 b 190 226 243 272 221 252 b 128 171 163 203 142 185 b 88 103 115 157 102 134 b 68 -4 75 72 68 37 b 154 -204 68 -88 97 -155 b 371 -278 212 -253 284 -278 b 614 -186 473 -278 554 -247 b 704 54 674 -125 704 -45 z "},"À":{"ha":926,"x_min":0,"x_max":0,"o":"m 556 990 l 371 990 l -11 0 l 168 0 l 265 263 l 657 263 l 751 0 l 938 0 z m 611 393 l 310 393 l 464 810 z m 414 1279 l 228 1279 l 425 1081 l 540 1081 z "},"Á":{"ha":926,"x_min":0,"x_max":0,"o":"m 556 990 l 371 990 l -11 0 l 168 0 l 265 263 l 657 263 l 751 0 l 938 0 z m 611 393 l 310 393 l 464 810 z m 381 1088 l 496 1088 l 693 1286 l 506 1286 z "},"Â":{"ha":926,"x_min":0,"x_max":0,"o":"m 556 990 l 371 990 l -11 0 l 168 0 l 265 263 l 657 263 l 751 0 l 938 0 z m 611 393 l 310 393 l 464 810 z m 461 1213 l 560 1088 l 689 1088 l 539 1286 l 385 1286 l 236 1088 l 364 1088 z "},"Ã":{"ha":926,"x_min":0,"x_max":0,"o":"m 556 990 l 371 990 l -11 0 l 168 0 l 265 263 l 657 263 l 751 0 l 938 0 z m 611 393 l 310 393 l 464 810 z m 632 1269 b 563 1208 622 1229 599 1208 b 476 1233 544 1208 515 1217 b 364 1261 432 1252 394 1261 b 267 1213 325 1261 293 1245 b 219 1104 242 1181 226 1145 l 299 1104 b 358 1161 306 1142 326 1161 b 453 1136 381 1161 413 1153 b 556 1110 493 1119 527 1110 b 664 1157 602 1110 638 1125 b 710 1269 686 1181 701 1219 z "},"Ä":{"ha":926,"x_min":0,"x_max":0,"o":"m 556 990 l 371 990 l -11 0 l 168 0 l 265 263 l 657 263 l 751 0 l 938 0 z m 611 393 l 310 393 l 464 810 z m 422 1106 l 422 1256 l 264 1256 l 264 1106 z m 503 1256 l 503 1106 l 661 1106 l 661 1256 z "},"Å":{"ha":926,"x_min":0,"x_max":0,"o":"m 556 990 l 371 990 l -11 0 l 168 0 l 265 263 l 657 263 l 751 0 l 938 0 z m 611 393 l 310 393 l 464 810 z m 378 1186 b 402 1247 378 1211 386 1231 b 461 1271 418 1263 438 1271 b 521 1247 485 1271 505 1263 b 544 1186 537 1231 544 1211 b 521 1126 544 1162 537 1142 b 461 1101 505 1109 485 1101 b 402 1126 438 1101 418 1109 b 378 1186 386 1142 378 1162 z m 461 1043 b 563 1083 501 1043 535 1056 b 606 1186 591 1110 606 1144 b 563 1289 606 1228 591 1262 b 461 1329 535 1316 501 1329 b 359 1289 421 1329 387 1316 b 317 1186 331 1262 317 1228 b 358 1083 317 1144 331 1110 b 461 1043 386 1056 420 1043 z "},"Æ":{"ha":1338,"x_min":0,"x_max":0,"o":"m -10 0 l 183 0 l 303 254 l 635 254 l 635 0 l 1292 0 l 1292 150 l 800 150 l 800 440 l 1253 440 l 1253 582 l 800 582 l 800 842 l 1283 842 l 1283 992 l 483 992 z m 585 842 l 635 842 l 635 386 l 367 386 z "},"Ç":{"ha":1003,"x_min":0,"x_max":0,"o":"m 781 378 b 703 190 772 301 747 238 b 528 118 660 142 602 118 b 303 228 429 118 354 155 b 226 496 252 302 226 391 b 303 763 226 600 252 690 b 528 874 354 837 429 874 b 775 676 659 874 742 808 l 949 676 b 816 924 938 781 893 864 b 528 1015 739 985 643 1015 b 183 865 384 1015 269 965 b 53 496 96 765 53 642 b 167 145 53 360 91 243 b 474 -21 243 47 345 -8 l 397 -122 l 428 -149 b 482 -135 443 -139 461 -135 b 527 -149 500 -135 515 -139 b 546 -187 540 -158 546 -171 b 461 -244 546 -225 518 -244 b 371 -222 445 -244 415 -237 l 346 -278 b 489 -307 381 -297 429 -307 b 608 -277 535 -307 575 -297 b 657 -182 641 -257 657 -225 b 621 -106 657 -150 645 -124 b 539 -79 597 -88 569 -79 b 493 -83 516 -79 500 -81 l 493 -81 l 538 -22 b 826 90 654 -20 750 17 b 950 378 901 163 943 259 z "},"È":{"ha":875,"x_min":0,"x_max":0,"o":"m 815 989 l 103 989 l 103 0 l 824 0 l 824 149 l 275 149 l 275 440 l 776 440 l 776 581 l 275 581 l 275 843 l 815 843 z m 439 1279 l 253 1279 l 450 1081 l 565 1081 z "},"É":{"ha":875,"x_min":0,"x_max":0,"o":"m 815 989 l 103 989 l 103 0 l 824 0 l 824 149 l 275 149 l 275 440 l 776 440 l 776 581 l 275 581 l 275 843 l 815 843 z m 385 1088 l 500 1088 l 697 1286 l 510 1286 z "},"Ê":{"ha":875,"x_min":0,"x_max":0,"o":"m 815 989 l 103 989 l 103 0 l 824 0 l 824 149 l 275 149 l 275 440 l 776 440 l 776 581 l 275 581 l 275 843 l 815 843 z m 463 1213 l 561 1088 l 690 1088 l 540 1286 l 386 1286 l 238 1088 l 365 1088 z "},"Ë":{"ha":875,"x_min":0,"x_max":0,"o":"m 815 989 l 103 989 l 103 0 l 824 0 l 824 149 l 275 149 l 275 440 l 776 440 l 776 581 l 275 581 l 275 843 l 815 843 z m 426 1106 l 426 1256 l 268 1256 l 268 1106 z m 507 1256 l 507 1106 l 665 1106 l 665 1256 z "},"Ì":{"ha":386,"x_min":0,"x_max":0,"o":"m 281 989 l 106 989 l 106 0 l 281 0 z m 143 1279 l -43 1279 l 154 1081 l 269 1081 z "},"Í":{"ha":386,"x_min":0,"x_max":0,"o":"m 281 989 l 106 989 l 106 0 l 281 0 z m 107 1088 l 222 1088 l 419 1286 l 232 1286 z "},"Î":{"ha":386,"x_min":0,"x_max":0,"o":"m 281 989 l 106 989 l 106 0 l 281 0 z m 192 1213 l 290 1088 l 419 1088 l 269 1286 l 115 1286 l -33 1088 l 94 1088 z "},"Ï":{"ha":386,"x_min":0,"x_max":0,"o":"m 281 989 l 106 989 l 106 0 l 281 0 z m 153 1106 l 153 1256 l -6 1256 l -6 1106 z m 233 1256 l 233 1106 l 392 1106 l 392 1256 z "},"Ð":{"ha":1003,"x_min":0,"x_max":0,"o":"m 279 850 l 450 850 b 616 824 516 850 571 841 b 718 747 661 806 695 780 b 767 636 741 713 757 676 b 781 496 776 596 781 550 b 767 356 781 442 776 395 b 718 245 757 316 741 279 b 616 168 695 211 661 186 b 450 142 571 150 516 142 l 279 142 l 279 440 l 550 440 l 550 582 l 279 582 z m 106 0 l 517 0 b 844 138 662 0 771 46 b 954 496 918 230 954 350 b 844 853 954 642 918 761 b 517 992 771 946 662 992 l 106 992 l 106 582 l 13 582 l 13 440 l 106 440 z "},"Ñ":{"ha":1003,"x_min":0,"x_max":0,"o":"m 906 989 l 739 989 l 739 260 l 283 989 l 101 989 l 101 0 l 265 0 l 265 728 l 726 0 l 906 0 z m 669 1269 b 600 1208 659 1229 636 1208 b 514 1233 581 1208 553 1217 b 401 1261 469 1252 432 1261 b 305 1213 363 1261 330 1245 b 257 1104 279 1181 263 1145 l 336 1104 b 396 1161 344 1142 363 1161 b 490 1136 419 1161 450 1153 b 593 1110 530 1119 564 1110 b 701 1157 639 1110 675 1125 b 747 1269 724 1181 739 1219 z "},"Ò":{"ha":1056,"x_min":0,"x_max":0,"o":"m 531 1013 b 181 866 383 1013 267 964 b 53 494 96 768 53 644 b 184 119 53 340 97 215 b 528 -24 272 24 386 -24 b 871 120 669 -24 783 24 b 1003 494 959 216 1003 341 b 872 869 1003 648 959 773 b 531 1013 784 965 670 1013 z m 528 867 b 747 766 619 867 692 833 b 828 496 801 699 828 609 b 747 224 828 383 801 292 b 531 122 692 156 620 122 b 309 224 437 122 363 156 b 228 497 255 291 228 382 b 310 766 228 609 255 699 b 528 867 364 833 437 867 z m 439 1279 l 253 1279 l 450 1081 l 565 1081 z "},"Ó":{"ha":1056,"x_min":0,"x_max":0,"o":"m 531 1013 b 181 866 383 1013 267 964 b 53 494 96 768 53 644 b 184 119 53 340 97 215 b 528 -24 272 24 386 -24 b 871 120 669 -24 783 24 b 1003 494 959 216 1003 341 b 872 869 1003 648 959 773 b 531 1013 784 965 670 1013 z m 528 867 b 747 766 619 867 692 833 b 828 496 801 699 828 609 b 747 224 828 383 801 292 b 531 122 692 156 620 122 b 309 224 437 122 363 156 b 228 497 255 291 228 382 b 310 766 228 609 255 699 b 528 867 364 833 437 867 z m 463 1088 l 578 1088 l 775 1286 l 588 1286 z "},"Ô":{"ha":1056,"x_min":0,"x_max":0,"o":"m 531 1013 b 181 866 383 1013 267 964 b 53 494 96 768 53 644 b 184 119 53 340 97 215 b 528 -24 272 24 386 -24 b 871 120 669 -24 783 24 b 1003 494 959 216 1003 341 b 872 869 1003 648 959 773 b 531 1013 784 965 670 1013 z m 528 867 b 747 766 619 867 692 833 b 828 496 801 699 828 609 b 747 224 828 383 801 292 b 531 122 692 156 620 122 b 309 224 437 122 363 156 b 228 497 255 291 228 382 b 310 766 228 609 255 699 b 528 867 364 833 437 867 z m 531 1213 l 629 1088 l 758 1088 l 608 1286 l 454 1286 l 306 1088 l 433 1088 z "},"Õ":{"ha":1056,"x_min":0,"x_max":0,"o":"m 531 1013 b 181 866 383 1013 267 964 b 53 494 96 768 53 644 b 184 119 53 340 97 215 b 528 -24 272 24 386 -24 b 871 120 669 -24 783 24 b 1003 494 959 216 1003 341 b 872 869 1003 648 959 773 b 531 1013 784 965 670 1013 z m 528 867 b 747 766 619 867 692 833 b 828 496 801 699 828 609 b 747 224 828 383 801 292 b 531 122 692 156 620 122 b 309 224 437 122 363 156 b 228 497 255 291 228 382 b 310 766 228 609 255 699 b 528 867 364 833 437 867 z m 701 1269 b 632 1208 691 1229 668 1208 b 546 1233 613 1208 585 1217 b 433 1261 501 1252 464 1261 b 337 1213 394 1261 362 1245 b 289 1104 311 1181 295 1145 l 368 1104 b 428 1161 375 1142 395 1161 b 522 1136 451 1161 482 1153 b 625 1110 562 1119 596 1110 b 733 1157 671 1110 707 1125 b 779 1269 756 1181 771 1219 z "},"Ö":{"ha":1056,"x_min":0,"x_max":0,"o":"m 531 1013 b 181 866 383 1013 267 964 b 53 494 96 768 53 644 b 184 119 53 340 97 215 b 528 -24 272 24 386 -24 b 871 120 669 -24 783 24 b 1003 494 959 216 1003 341 b 872 869 1003 648 959 773 b 531 1013 784 965 670 1013 z m 528 867 b 747 766 619 867 692 833 b 828 496 801 699 828 609 b 747 224 828 383 801 292 b 531 122 692 156 620 122 b 309 224 437 122 363 156 b 228 497 255 291 228 382 b 310 766 228 609 255 699 b 528 867 364 833 437 867 z m 489 1106 l 489 1256 l 331 1256 l 331 1106 z m 569 1256 l 569 1106 l 728 1106 l 728 1256 z "},"×":{"ha":833,"x_min":0,"x_max":0,"o":"m 318 351 l 76 110 l 196 32 l 415 254 l 638 32 l 757 110 l 514 351 l 757 593 l 638 671 l 415 450 l 196 671 l 76 593 z "},"Ø":{"ha":1056,"x_min":0,"x_max":0,"o":"m 940 1019 l 836 903 b 528 1015 754 978 651 1015 b 183 865 384 1015 269 965 b 53 496 96 765 53 642 b 165 147 53 360 90 244 l 56 22 l 114 -28 l 219 90 b 528 -24 303 14 406 -24 b 873 126 671 -24 786 26 b 1003 496 959 225 1003 349 b 890 846 1003 631 965 748 l 1000 969 z m 778 719 b 829 496 812 660 829 586 b 753 228 829 391 804 302 b 528 118 702 155 627 118 b 322 206 444 118 376 147 z m 276 272 b 226 496 243 335 226 410 b 303 763 226 600 252 690 b 528 874 354 837 429 874 b 733 786 616 874 684 844 z "},"Ù":{"ha":1003,"x_min":0,"x_max":0,"o":"m 907 989 l 733 989 l 733 406 b 725 290 733 359 731 321 b 694 203 719 259 709 230 b 626 143 680 176 657 156 b 507 124 595 130 555 124 b 269 351 349 124 269 200 l 269 989 l 96 989 l 96 386 b 195 81 96 249 129 147 b 504 -19 261 14 364 -19 b 907 383 773 -19 907 115 z m 440 1279 l 254 1279 l 451 1081 l 567 1081 z "},"Ú":{"ha":1003,"x_min":0,"x_max":0,"o":"m 907 989 l 733 989 l 733 406 b 725 290 733 359 731 321 b 694 203 719 259 709 230 b 626 143 680 176 657 156 b 507 124 595 130 555 124 b 269 351 349 124 269 200 l 269 989 l 96 989 l 96 386 b 195 81 96 249 129 147 b 504 -19 261 14 364 -19 b 907 383 773 -19 907 115 z m 428 1088 l 543 1088 l 740 1286 l 553 1286 z "},"Û":{"ha":1003,"x_min":0,"x_max":0,"o":"m 907 989 l 733 989 l 733 406 b 725 290 733 359 731 321 b 694 203 719 259 709 230 b 626 143 680 176 657 156 b 507 124 595 130 555 124 b 269 351 349 124 269 200 l 269 989 l 96 989 l 96 386 b 195 81 96 249 129 147 b 504 -19 261 14 364 -19 b 907 383 773 -19 907 115 z m 503 1213 l 601 1088 l 731 1088 l 581 1286 l 426 1286 l 278 1088 l 406 1088 z "},"Ü":{"ha":1003,"x_min":0,"x_max":0,"o":"m 907 989 l 733 989 l 733 406 b 725 290 733 359 731 321 b 694 203 719 259 709 230 b 626 143 680 176 657 156 b 507 124 595 130 555 124 b 269 351 349 124 269 200 l 269 989 l 96 989 l 96 386 b 195 81 96 249 129 147 b 504 -19 261 14 364 -19 b 907 383 773 -19 907 115 z m 460 1106 l 460 1256 l 301 1256 l 301 1106 z m 540 1256 l 540 1106 l 699 1106 l 699 1256 z "},"Ý":{"ha":900,"x_min":0,"x_max":0,"o":"m 910 989 l 715 989 l 456 551 l 193 989 l -7 989 l 367 393 l 367 0 l 538 0 l 538 393 z m 393 1088 l 508 1088 l 706 1286 l 518 1286 z "},"Þ":{"ha":926,"x_min":0,"x_max":0,"o":"m 279 700 l 536 700 b 707 536 650 700 707 645 b 655 411 707 479 690 437 b 533 372 620 385 580 372 l 279 372 z m 106 0 l 279 0 l 279 231 l 543 231 b 714 260 610 231 667 240 b 819 338 761 279 796 305 b 867 434 841 370 857 402 b 881 535 876 466 881 500 b 867 635 881 570 876 603 b 819 733 857 667 841 700 b 714 813 796 767 761 793 b 543 842 667 832 610 842 l 279 842 l 279 992 l 106 992 z "},"ß":{"ha":797,"x_min":0,"x_max":0,"o":"m 88 0 l 246 0 l 246 710 b 288 850 246 776 260 823 b 389 890 315 877 349 890 b 529 750 482 890 529 844 b 475 633 529 701 511 662 b 338 597 448 609 402 597 l 338 493 b 497 458 408 493 461 481 b 574 322 548 429 574 383 b 567 248 574 294 572 270 b 544 180 563 226 555 203 b 488 125 532 156 513 138 b 390 106 462 112 429 106 b 336 110 364 106 346 107 l 336 -15 b 414 -19 362 -18 388 -19 b 645 74 510 -19 587 12 b 732 315 703 137 732 217 b 681 473 732 375 715 427 b 546 553 647 519 602 545 l 546 556 b 651 634 592 569 627 596 b 688 765 675 672 688 716 b 599 947 688 841 658 902 b 392 1015 541 993 471 1015 b 172 938 302 1015 229 989 b 88 726 116 886 88 815 z "},"à":{"ha":772,"x_min":0,"x_max":0,"o":"m 76 496 l 226 496 b 272 594 233 542 248 575 b 386 624 296 614 334 624 b 533 515 484 624 533 588 b 524 464 533 488 530 471 b 482 441 516 454 502 446 b 367 422 462 436 423 430 b 317 416 342 419 325 417 b 269 408 309 415 294 412 b 219 398 245 405 228 401 b 174 383 209 395 194 390 b 131 363 154 377 140 370 b 98 335 122 355 111 346 b 69 299 84 324 75 312 b 53 253 63 286 57 270 b 46 196 48 235 46 216 b 111 40 46 130 68 78 b 288 -18 155 1 213 -18 b 539 68 395 -18 479 11 b 656 -18 549 11 588 -18 b 758 -3 683 -18 718 -13 l 758 108 b 722 106 745 106 733 106 b 692 117 707 106 697 109 b 685 158 687 124 685 138 l 685 522 b 605 686 685 596 658 651 b 390 739 552 721 480 739 b 76 496 198 739 93 658 z m 532 360 l 532 275 b 500 151 532 214 521 173 b 338 94 462 113 408 94 b 242 122 297 94 265 104 b 208 201 220 141 208 167 b 218 249 208 220 212 236 b 241 281 225 263 232 273 b 278 301 250 289 262 296 b 319 313 295 307 308 311 b 365 321 331 316 346 318 b 406 326 372 322 385 324 b 452 333 427 329 442 331 b 490 342 462 334 475 337 b 532 360 506 347 520 353 z m 356 1010 l 169 1010 l 367 811 l 482 811 z "},"á":{"ha":772,"x_min":0,"x_max":0,"o":"m 76 496 l 226 496 b 272 594 233 542 248 575 b 386 624 296 614 334 624 b 533 515 484 624 533 588 b 524 464 533 488 530 471 b 482 441 516 454 502 446 b 367 422 462 436 423 430 b 317 416 342 419 325 417 b 269 408 309 415 294 412 b 219 398 245 405 228 401 b 174 383 209 395 194 390 b 131 363 154 377 140 370 b 98 335 122 355 111 346 b 69 299 84 324 75 312 b 53 253 63 286 57 270 b 46 196 48 235 46 216 b 111 40 46 130 68 78 b 288 -18 155 1 213 -18 b 539 68 395 -18 479 11 b 656 -18 549 11 588 -18 b 758 -3 683 -18 718 -13 l 758 108 b 722 106 745 106 733 106 b 692 117 707 106 697 109 b 685 158 687 124 685 138 l 685 522 b 605 686 685 596 658 651 b 390 739 552 721 480 739 b 76 496 198 739 93 658 z m 532 360 l 532 275 b 500 151 532 214 521 173 b 338 94 462 113 408 94 b 242 122 297 94 265 104 b 208 201 220 141 208 167 b 218 249 208 220 212 236 b 241 281 225 263 232 273 b 278 301 250 289 262 296 b 319 313 295 307 308 311 b 365 321 331 316 346 318 b 406 326 372 322 385 324 b 452 333 427 329 442 331 b 490 342 462 334 475 337 b 532 360 506 347 520 353 z m 311 818 l 426 818 l 624 1017 l 436 1017 z "},"â":{"ha":772,"x_min":0,"x_max":0,"o":"m 76 496 l 226 496 b 272 594 233 542 248 575 b 386 624 296 614 334 624 b 533 515 484 624 533 588 b 524 464 533 488 530 471 b 482 441 516 454 502 446 b 367 422 462 436 423 430 b 317 416 342 419 325 417 b 269 408 309 415 294 412 b 219 398 245 405 228 401 b 174 383 209 395 194 390 b 131 363 154 377 140 370 b 98 335 122 355 111 346 b 69 299 84 324 75 312 b 53 253 63 286 57 270 b 46 196 48 235 46 216 b 111 40 46 130 68 78 b 288 -18 155 1 213 -18 b 539 68 395 -18 479 11 b 656 -18 549 11 588 -18 b 758 -3 683 -18 718 -13 l 758 108 b 722 106 745 106 733 106 b 692 117 707 106 697 109 b 685 158 687 124 685 138 l 685 522 b 605 686 685 596 658 651 b 390 739 552 721 480 739 b 76 496 198 739 93 658 z m 532 360 l 532 275 b 500 151 532 214 521 173 b 338 94 462 113 408 94 b 242 122 297 94 265 104 b 208 201 220 141 208 167 b 218 249 208 220 212 236 b 241 281 225 263 232 273 b 278 301 250 289 262 296 b 319 313 295 307 308 311 b 365 321 331 316 346 318 b 406 326 372 322 385 324 b 452 333 427 329 442 331 b 490 342 462 334 475 337 b 532 360 506 347 520 353 z m 394 943 l 493 818 l 622 818 l 472 1017 l 318 1017 l 169 818 l 297 818 z "},"ã":{"ha":772,"x_min":0,"x_max":0,"o":"m 76 496 l 226 496 b 272 594 233 542 248 575 b 386 624 296 614 334 624 b 533 515 484 624 533 588 b 524 464 533 488 530 471 b 482 441 516 454 502 446 b 367 422 462 436 423 430 b 317 416 342 419 325 417 b 269 408 309 415 294 412 b 219 398 245 405 228 401 b 174 383 209 395 194 390 b 131 363 154 377 140 370 b 98 335 122 355 111 346 b 69 299 84 324 75 312 b 53 253 63 286 57 270 b 46 196 48 235 46 216 b 111 40 46 130 68 78 b 288 -18 155 1 213 -18 b 539 68 395 -18 479 11 b 656 -18 549 11 588 -18 b 758 -3 683 -18 718 -13 l 758 108 b 722 106 745 106 733 106 b 692 117 707 106 697 109 b 685 158 687 124 685 138 l 685 522 b 605 686 685 596 658 651 b 390 739 552 721 480 739 b 76 496 198 739 93 658 z m 532 360 l 532 275 b 500 151 532 214 521 173 b 338 94 462 113 408 94 b 242 122 297 94 265 104 b 208 201 220 141 208 167 b 218 249 208 220 212 236 b 241 281 225 263 232 273 b 278 301 250 289 262 296 b 319 313 295 307 308 311 b 365 321 331 316 346 318 b 406 326 372 322 385 324 b 452 333 427 329 442 331 b 490 342 462 334 475 337 b 532 360 506 347 520 353 z m 563 1000 b 493 939 552 959 529 939 b 407 964 475 939 446 947 b 294 992 363 982 325 992 b 198 944 256 992 223 976 b 150 835 172 912 156 875 l 229 835 b 289 892 237 873 256 892 b 383 867 312 892 344 883 b 486 840 423 849 457 840 b 594 888 532 840 569 856 b 640 1000 617 912 632 949 z "},"ä":{"ha":772,"x_min":0,"x_max":0,"o":"m 76 496 l 226 496 b 272 594 233 542 248 575 b 386 624 296 614 334 624 b 533 515 484 624 533 588 b 524 464 533 488 530 471 b 482 441 516 454 502 446 b 367 422 462 436 423 430 b 317 416 342 419 325 417 b 269 408 309 415 294 412 b 219 398 245 405 228 401 b 174 383 209 395 194 390 b 131 363 154 377 140 370 b 98 335 122 355 111 346 b 69 299 84 324 75 312 b 53 253 63 286 57 270 b 46 196 48 235 46 216 b 111 40 46 130 68 78 b 288 -18 155 1 213 -18 b 539 68 395 -18 479 11 b 656 -18 549 11 588 -18 b 758 -3 683 -18 718 -13 l 758 108 b 722 106 745 106 733 106 b 692 117 707 106 697 109 b 685 158 687 124 685 138 l 685 522 b 605 686 685 596 658 651 b 390 739 552 721 480 739 b 76 496 198 739 93 658 z m 532 360 l 532 275 b 500 151 532 214 521 173 b 338 94 462 113 408 94 b 242 122 297 94 265 104 b 208 201 220 141 208 167 b 218 249 208 220 212 236 b 241 281 225 263 232 273 b 278 301 250 289 262 296 b 319 313 295 307 308 311 b 365 321 331 316 346 318 b 406 326 372 322 385 324 b 452 333 427 329 442 331 b 490 342 462 334 475 337 b 532 360 506 347 520 353 z m 351 836 l 351 986 l 193 986 l 193 836 z m 432 986 l 432 836 l 590 836 l 590 986 z "},"å":{"ha":772,"x_min":0,"x_max":0,"o":"m 76 496 l 226 496 b 272 594 233 542 248 575 b 386 624 296 614 334 624 b 533 515 484 624 533 588 b 524 464 533 488 530 471 b 482 441 516 454 502 446 b 367 422 462 436 423 430 b 317 416 342 419 325 417 b 269 408 309 415 294 412 b 219 398 245 405 228 401 b 174 383 209 395 194 390 b 131 363 154 377 140 370 b 98 335 122 355 111 346 b 69 299 84 324 75 312 b 53 253 63 286 57 270 b 46 196 48 235 46 216 b 111 40 46 130 68 78 b 288 -18 155 1 213 -18 b 539 68 395 -18 479 11 b 656 -18 549 11 588 -18 b 758 -3 683 -18 718 -13 l 758 108 b 722 106 745 106 733 106 b 692 117 707 106 697 109 b 685 158 687 124 685 138 l 685 522 b 605 686 685 596 658 651 b 390 739 552 721 480 739 b 76 496 198 739 93 658 z m 532 360 l 532 275 b 500 151 532 214 521 173 b 338 94 462 113 408 94 b 242 122 297 94 265 104 b 208 201 220 141 208 167 b 218 249 208 220 212 236 b 241 281 225 263 232 273 b 278 301 250 289 262 296 b 319 313 295 307 308 311 b 365 321 331 316 346 318 b 406 326 372 322 385 324 b 452 333 427 329 442 331 b 490 342 462 334 475 337 b 532 360 506 347 520 353 z m 308 936 b 333 997 308 961 316 981 b 392 1021 349 1013 369 1021 b 451 997 416 1021 436 1013 b 475 936 467 981 475 961 b 451 876 475 912 467 892 b 392 851 436 859 416 851 b 333 876 369 851 349 859 b 308 936 316 892 308 912 z m 392 793 b 494 833 431 793 466 806 b 536 936 522 860 536 894 b 494 1039 536 978 522 1012 b 392 1079 466 1066 431 1079 b 290 1039 352 1079 318 1066 b 247 936 261 1012 247 978 b 289 833 247 894 261 860 b 392 793 317 806 351 793 z "},"æ":{"ha":1235,"x_min":0,"x_max":0,"o":"m 1033 226 b 864 106 1006 146 949 106 b 724 167 802 106 755 126 b 676 318 692 207 676 258 l 1197 318 b 1126 622 1206 443 1182 544 b 864 738 1070 699 982 738 b 636 640 762 738 686 705 b 393 738 591 705 510 738 b 169 682 304 738 230 719 b 71 499 109 645 76 584 l 229 499 b 276 584 233 537 249 565 b 388 613 304 603 341 613 b 528 515 481 613 528 580 b 519 477 528 500 525 488 b 500 453 514 466 507 458 b 467 438 493 447 481 442 b 426 429 452 434 438 431 b 375 422 413 427 396 425 b 321 414 354 419 336 417 b 219 397 280 409 246 404 b 135 365 193 391 164 380 b 67 298 105 349 83 327 b 44 190 52 269 44 233 b 117 35 44 123 69 71 b 304 -19 166 -1 228 -19 b 603 113 445 -19 544 25 b 867 -19 653 25 741 -19 b 1074 46 947 -19 1016 2 b 1192 226 1132 89 1171 150 z m 526 250 b 472 144 526 206 508 170 b 347 106 436 119 394 106 b 245 126 307 106 273 113 b 203 197 217 140 203 164 b 238 281 203 235 214 263 b 333 317 261 298 293 310 b 403 324 345 319 369 321 b 484 336 438 328 465 331 b 526 357 503 341 517 348 z m 676 422 b 729 558 680 477 698 522 b 857 613 761 594 803 613 b 992 561 914 613 959 595 b 1039 422 1024 527 1040 481 z "},"ç":{"ha":772,"x_min":0,"x_max":0,"o":"m 240 -278 b 383 -310 279 -299 327 -310 b 501 -278 429 -310 468 -299 b 551 -182 535 -256 551 -225 b 515 -105 551 -149 539 -123 b 433 -78 491 -87 464 -78 b 388 -83 413 -78 398 -80 l 386 -82 l 436 -18 b 619 54 512 -11 573 13 b 726 269 675 103 711 175 l 568 269 b 512 149 561 218 542 177 b 397 106 482 120 444 106 b 254 178 333 106 286 130 b 207 351 223 226 207 284 b 226 483 207 402 213 446 b 276 564 238 519 255 546 b 338 601 297 581 317 594 b 404 613 359 609 381 613 b 515 578 450 613 487 601 b 568 478 544 555 562 521 l 726 478 b 625 671 719 562 685 626 b 403 738 565 715 491 738 b 140 630 289 738 201 702 b 49 351 79 558 49 465 b 100 141 49 271 66 201 b 247 8 134 81 183 37 b 369 -18 282 -6 323 -15 l 292 -122 l 322 -149 b 376 -135 337 -139 355 -135 b 422 -149 394 -135 409 -139 b 440 -187 434 -158 440 -171 b 356 -244 440 -225 412 -244 b 265 -222 328 -244 298 -237 z "},"è":{"ha":772,"x_min":0,"x_max":0,"o":"m 725 224 l 574 224 b 509 124 558 178 536 145 b 403 93 482 103 446 93 b 260 152 342 93 294 113 b 206 319 225 191 207 247 l 735 319 l 735 336 b 643 630 735 460 704 558 b 394 738 582 702 499 738 b 145 628 294 738 210 701 b 47 350 80 555 47 462 b 142 81 47 241 79 151 b 400 -24 206 11 292 -24 b 610 42 481 -24 552 -2 b 725 224 669 85 707 146 z m 576 425 l 208 425 b 267 569 216 488 235 536 b 393 619 299 603 341 619 b 520 567 445 619 487 602 b 576 425 553 533 572 485 z m 339 1010 l 153 1010 l 350 811 l 465 811 z "},"é":{"ha":772,"x_min":0,"x_max":0,"o":"m 725 224 l 574 224 b 509 124 558 178 536 145 b 403 93 482 103 446 93 b 260 152 342 93 294 113 b 206 319 225 191 207 247 l 735 319 l 735 336 b 643 630 735 460 704 558 b 394 738 582 702 499 738 b 145 628 294 738 210 701 b 47 350 80 555 47 462 b 142 81 47 241 79 151 b 400 -24 206 11 292 -24 b 610 42 481 -24 552 -2 b 725 224 669 85 707 146 z m 576 425 l 208 425 b 267 569 216 488 235 536 b 393 619 299 603 341 619 b 520 567 445 619 487 602 b 576 425 553 533 572 485 z m 332 818 l 447 818 l 644 1017 l 457 1017 z "},"ê":{"ha":772,"x_min":0,"x_max":0,"o":"m 725 224 l 574 224 b 509 124 558 178 536 145 b 403 93 482 103 446 93 b 260 152 342 93 294 113 b 206 319 225 191 207 247 l 735 319 l 735 336 b 643 630 735 460 704 558 b 394 738 582 702 499 738 b 145 628 294 738 210 701 b 47 350 80 555 47 462 b 142 81 47 241 79 151 b 400 -24 206 11 292 -24 b 610 42 481 -24 552 -2 b 725 224 669 85 707 146 z m 576 425 l 208 425 b 267 569 216 488 235 536 b 393 619 299 603 341 619 b 520 567 445 619 487 602 b 576 425 553 533 572 485 z m 397 943 l 496 818 l 625 818 l 475 1017 l 321 1017 l 172 818 l 300 818 z "},"ë":{"ha":772,"x_min":0,"x_max":0,"o":"m 725 224 l 574 224 b 509 124 558 178 536 145 b 403 93 482 103 446 93 b 260 152 342 93 294 113 b 206 319 225 191 207 247 l 735 319 l 735 336 b 643 630 735 460 704 558 b 394 738 582 702 499 738 b 145 628 294 738 210 701 b 47 350 80 555 47 462 b 142 81 47 241 79 151 b 400 -24 206 11 292 -24 b 610 42 481 -24 552 -2 b 725 224 669 85 707 146 z m 576 425 l 208 425 b 267 569 216 488 235 536 b 393 619 299 603 341 619 b 520 567 445 619 487 602 b 576 425 553 533 572 485 z m 356 836 l 356 986 l 197 986 l 197 836 z m 436 986 l 436 836 l 594 836 l 594 986 z "},"ì":{"ha":335,"x_min":0,"x_max":0,"o":"m 246 0 l 246 718 l 88 718 l 88 0 z m 110 1010 l -76 1010 l 121 811 l 236 811 z "},"í":{"ha":335,"x_min":0,"x_max":0,"o":"m 246 0 l 246 718 l 88 718 l 88 0 z m 88 818 l 203 818 l 400 1017 l 213 1017 z "},"î":{"ha":335,"x_min":0,"x_max":0,"o":"m 246 0 l 246 718 l 88 718 l 88 0 z m 167 943 l 265 818 l 394 818 l 244 1017 l 90 1017 l -58 818 l 69 818 z "},"ï":{"ha":335,"x_min":0,"x_max":0,"o":"m 246 0 l 246 718 l 88 718 l 88 0 z m 128 836 l 128 986 l -31 986 l -31 836 z m 208 986 l 208 836 l 367 836 l 367 986 z "},"ð":{"ha":824,"x_min":0,"x_max":0,"o":"m 269 751 l 419 824 b 569 642 493 762 543 701 l 567 642 b 368 703 509 682 443 703 b 144 598 275 703 201 668 b 58 350 87 528 58 445 b 147 83 58 240 88 151 b 390 -19 205 15 287 -19 b 673 105 518 -19 612 22 b 764 429 734 188 764 296 b 549 885 764 613 692 765 l 679 947 l 611 1015 l 465 946 b 321 1015 417 976 369 1000 l 215 931 b 333 883 227 927 267 911 l 200 819 z m 415 578 b 557 508 477 578 525 555 b 606 340 589 462 606 406 b 549 176 606 278 587 224 b 400 106 511 129 461 106 b 263 172 340 106 294 128 b 217 340 232 217 217 273 b 264 512 217 411 232 468 b 415 578 295 556 346 578 z "},"ñ":{"ha":797,"x_min":0,"x_max":0,"o":"m 235 717 l 85 717 l 85 0 l 243 0 l 243 386 b 418 604 243 531 301 604 b 493 590 449 604 474 599 b 535 546 513 580 527 565 b 553 488 544 526 550 507 b 557 417 556 469 557 445 l 557 0 l 715 0 l 715 478 b 655 669 715 561 695 625 b 472 736 615 714 554 736 b 235 611 371 736 292 694 z m 565 1000 b 496 939 555 959 532 939 b 410 964 477 939 449 947 b 297 992 365 982 328 992 b 201 944 258 992 226 976 b 153 835 175 912 159 875 l 232 835 b 292 892 239 873 259 892 b 386 867 315 892 346 883 b 489 840 426 849 460 840 b 597 888 535 840 571 856 b 643 1000 619 912 635 949 z "},"ò":{"ha":824,"x_min":0,"x_max":0,"o":"m 415 738 b 149 635 304 738 216 703 b 50 358 83 566 50 474 b 149 81 50 242 83 149 b 415 -22 214 12 303 -22 b 677 81 525 -22 613 12 b 774 358 741 149 774 242 b 676 635 774 474 741 566 b 415 738 612 703 525 738 z m 413 613 b 560 545 475 613 525 590 b 614 360 596 500 614 438 b 560 170 614 279 596 216 b 414 101 525 124 476 101 b 264 169 350 101 300 124 b 210 358 228 215 210 278 b 264 544 210 437 228 499 b 413 613 300 590 350 613 z m 349 1010 l 163 1010 l 360 811 l 475 811 z "},"ó":{"ha":824,"x_min":0,"x_max":0,"o":"m 415 738 b 149 635 304 738 216 703 b 50 358 83 566 50 474 b 149 81 50 242 83 149 b 415 -22 214 12 303 -22 b 677 81 525 -22 613 12 b 774 358 741 149 774 242 b 676 635 774 474 741 566 b 415 738 612 703 525 738 z m 413 613 b 560 545 475 613 525 590 b 614 360 596 500 614 438 b 560 170 614 279 596 216 b 414 101 525 124 476 101 b 264 169 350 101 300 124 b 210 358 228 215 210 278 b 264 544 210 437 228 499 b 413 613 300 590 350 613 z m 333 818 l 449 818 l 646 1017 l 458 1017 z "},"ô":{"ha":824,"x_min":0,"x_max":0,"o":"m 415 738 b 149 635 304 738 216 703 b 50 358 83 566 50 474 b 149 81 50 242 83 149 b 415 -22 214 12 303 -22 b 677 81 525 -22 613 12 b 774 358 741 149 774 242 b 676 635 774 474 741 566 b 415 738 612 703 525 738 z m 413 613 b 560 545 475 613 525 590 b 614 360 596 500 614 438 b 560 170 614 279 596 216 b 414 101 525 124 476 101 b 264 169 350 101 300 124 b 210 358 228 215 210 278 b 264 544 210 437 228 499 b 413 613 300 590 350 613 z m 414 943 l 513 818 l 642 818 l 492 1017 l 338 1017 l 189 818 l 317 818 z "},"õ":{"ha":824,"x_min":0,"x_max":0,"o":"m 415 738 b 149 635 304 738 216 703 b 50 358 83 566 50 474 b 149 81 50 242 83 149 b 415 -22 214 12 303 -22 b 677 81 525 -22 613 12 b 774 358 741 149 774 242 b 676 635 774 474 741 566 b 415 738 612 703 525 738 z m 413 613 b 560 545 475 613 525 590 b 614 360 596 500 614 438 b 560 170 614 279 596 216 b 414 101 525 124 476 101 b 264 169 350 101 300 124 b 210 358 228 215 210 278 b 264 544 210 437 228 499 b 413 613 300 590 350 613 z m 583 1000 b 514 939 573 959 550 939 b 428 964 495 939 467 947 b 315 992 383 982 346 992 b 219 944 276 992 244 976 b 171 835 193 912 177 875 l 250 835 b 310 892 257 873 277 892 b 404 867 333 892 364 883 b 507 840 444 849 478 840 b 615 888 553 840 589 856 b 661 1000 638 912 653 949 z "},"ö":{"ha":824,"x_min":0,"x_max":0,"o":"m 415 738 b 149 635 304 738 216 703 b 50 358 83 566 50 474 b 149 81 50 242 83 149 b 415 -22 214 12 303 -22 b 677 81 525 -22 613 12 b 774 358 741 149 774 242 b 676 635 774 474 741 566 b 415 738 612 703 525 738 z m 413 613 b 560 545 475 613 525 590 b 614 360 596 500 614 438 b 560 170 614 279 596 216 b 414 101 525 124 476 101 b 264 169 350 101 300 124 b 210 358 228 215 210 278 b 264 544 210 437 228 499 b 413 613 300 590 350 613 z m 375 836 l 375 986 l 217 986 l 217 836 z m 456 986 l 456 836 l 614 836 l 614 986 z "},"÷":{"ha":833,"x_min":0,"x_max":0,"o":"m 58 292 l 776 292 l 776 424 l 58 424 z m 335 13 l 499 13 l 499 193 l 335 193 z m 335 522 l 499 522 l 499 703 l 335 703 z "},"ø":{"ha":824,"x_min":0,"x_max":0,"o":"m 240 215 b 208 360 219 257 208 305 b 260 538 208 428 226 488 b 413 613 295 588 346 613 b 550 554 470 613 516 593 z m 89 -39 l 178 58 b 413 -19 240 6 318 -19 b 678 85 525 -19 613 16 b 775 360 743 155 775 247 b 690 619 775 464 747 551 l 781 718 l 736 757 l 649 661 b 413 738 586 712 507 738 b 147 632 300 738 212 702 b 50 360 82 562 50 471 b 135 100 50 254 78 168 l 44 0 z m 585 503 b 617 360 606 461 617 413 b 565 181 617 290 599 231 b 413 106 530 131 479 106 b 275 164 355 106 309 125 z "},"ù":{"ha":797,"x_min":0,"x_max":0,"o":"m 713 717 l 554 717 l 554 338 b 513 177 554 273 540 219 b 382 114 485 135 441 114 b 316 125 356 114 334 118 b 274 151 298 132 284 141 b 252 195 265 162 257 176 b 243 247 247 214 244 231 b 242 307 242 262 242 282 l 242 717 l 83 717 l 83 242 b 147 48 83 157 104 93 b 328 -19 189 3 249 -19 b 564 107 425 -19 504 23 l 564 0 l 713 0 z m 333 1010 l 147 1010 l 344 811 l 460 811 z "},"ú":{"ha":797,"x_min":0,"x_max":0,"o":"m 713 717 l 554 717 l 554 338 b 513 177 554 273 540 219 b 382 114 485 135 441 114 b 316 125 356 114 334 118 b 274 151 298 132 284 141 b 252 195 265 162 257 176 b 243 247 247 214 244 231 b 242 307 242 262 242 282 l 242 717 l 83 717 l 83 242 b 147 48 83 157 104 93 b 328 -19 189 3 249 -19 b 564 107 425 -19 504 23 l 564 0 l 713 0 z m 335 818 l 450 818 l 647 1017 l 460 1017 z "},"û":{"ha":797,"x_min":0,"x_max":0,"o":"m 713 717 l 554 717 l 554 338 b 513 177 554 273 540 219 b 382 114 485 135 441 114 b 316 125 356 114 334 118 b 274 151 298 132 284 141 b 252 195 265 162 257 176 b 243 247 247 214 244 231 b 242 307 242 262 242 282 l 242 717 l 83 717 l 83 242 b 147 48 83 157 104 93 b 328 -19 189 3 249 -19 b 564 107 425 -19 504 23 l 564 0 l 713 0 z m 399 943 l 497 818 l 626 818 l 476 1017 l 322 1017 l 174 818 l 301 818 z "},"ü":{"ha":797,"x_min":0,"x_max":0,"o":"m 713 717 l 554 717 l 554 338 b 513 177 554 273 540 219 b 382 114 485 135 441 114 b 316 125 356 114 334 118 b 274 151 298 132 284 141 b 252 195 265 162 257 176 b 243 247 247 214 244 231 b 242 307 242 262 242 282 l 242 717 l 83 717 l 83 242 b 147 48 83 157 104 93 b 328 -19 189 3 249 -19 b 564 107 425 -19 504 23 l 564 0 l 713 0 z m 357 836 l 357 986 l 199 986 l 199 836 z m 438 986 l 438 836 l 596 836 l 596 986 z "},"ý":{"ha":721,"x_min":0,"x_max":0,"o":"m 715 717 l 550 717 l 369 189 l 178 717 l 4 717 l 279 21 b 271 -7 278 17 275 8 b 260 -40 266 -22 263 -33 b 248 -69 257 -47 253 -56 b 232 -98 243 -81 238 -91 b 213 -120 226 -105 220 -112 b 188 -137 205 -128 197 -134 b 157 -142 178 -140 168 -142 b 74 -132 135 -142 107 -138 l 74 -265 b 183 -274 117 -271 154 -274 b 233 -269 201 -274 217 -272 b 274 -258 248 -266 262 -262 b 309 -237 286 -253 297 -247 b 338 -212 321 -227 330 -219 b 364 -181 346 -206 355 -195 l 385 -147 b 403 -108 389 -140 396 -127 b 419 -69 411 -90 417 -77 b 435 -27 422 -62 427 -48 b 450 14 442 -6 447 7 z m 307 818 l 422 818 l 619 1017 l 432 1017 z "},"þ":{"ha":849,"x_min":0,"x_max":0,"o":"m 640 358 b 591 179 640 288 624 228 b 442 106 558 130 508 106 b 294 176 380 106 331 129 b 240 358 258 224 240 284 b 292 544 240 437 257 499 b 442 613 326 590 376 613 b 588 538 504 613 552 588 b 640 358 623 488 640 428 z m 88 -265 l 246 -265 l 246 93 l 249 93 b 349 8 271 55 304 27 b 489 -19 393 -10 440 -19 b 719 90 589 -19 666 17 b 799 356 772 162 799 251 b 712 630 799 467 770 558 b 463 738 654 702 571 738 b 341 707 421 738 380 727 b 249 625 302 687 271 659 l 246 625 l 246 992 l 88 992 z "},"ÿ":{"ha":721,"x_min":0,"x_max":0,"o":"m 715 717 l 550 717 l 369 189 l 178 717 l 4 717 l 279 21 b 271 -7 278 17 275 8 b 260 -40 266 -22 263 -33 b 248 -69 257 -47 253 -56 b 232 -98 243 -81 238 -91 b 213 -120 226 -105 220 -112 b 188 -137 205 -128 197 -134 b 157 -142 178 -140 168 -142 b 74 -132 135 -142 107 -138 l 74 -265 b 183 -274 117 -271 154 -274 b 233 -269 201 -274 217 -272 b 274 -258 248 -266 262 -262 b 309 -237 286 -253 297 -247 b 338 -212 321 -227 330 -219 b 364 -181 346 -206 355 -195 l 385 -147 b 403 -108 389 -140 396 -127 b 419 -69 411 -90 417 -77 b 435 -27 422 -62 427 -48 b 450 14 442 -6 447 7 z m 328 836 l 328 986 l 169 986 l 169 836 z m 408 986 l 408 836 l 567 836 l 567 986 z "},"Ā":{"ha":926,"x_min":0,"x_max":0,"o":"m 556 990 l 371 990 l -11 0 l 168 0 l 265 263 l 657 263 l 751 0 l 938 0 z m 611 393 l 310 393 l 464 810 z m 663 1136 l 663 1226 l 263 1226 l 263 1136 z "},"ā":{"ha":772,"x_min":0,"x_max":0,"o":"m 76 496 l 226 496 b 272 594 233 542 248 575 b 386 624 296 614 334 624 b 533 515 484 624 533 588 b 524 464 533 488 530 471 b 482 441 516 454 502 446 b 367 422 462 436 423 430 b 317 416 342 419 325 417 b 269 408 309 415 294 412 b 219 398 245 405 228 401 b 174 383 209 395 194 390 b 131 363 154 377 140 370 b 98 335 122 355 111 346 b 69 299 84 324 75 312 b 53 253 63 286 57 270 b 46 196 48 235 46 216 b 111 40 46 130 68 78 b 288 -18 155 1 213 -18 b 539 68 395 -18 479 11 b 656 -18 549 11 588 -18 b 758 -3 683 -18 718 -13 l 758 108 b 722 106 745 106 733 106 b 692 117 707 106 697 109 b 685 158 687 124 685 138 l 685 522 b 605 686 685 596 658 651 b 390 739 552 721 480 739 b 76 496 198 739 93 658 z m 532 360 l 532 275 b 500 151 532 214 521 173 b 338 94 462 113 408 94 b 242 122 297 94 265 104 b 208 201 220 141 208 167 b 218 249 208 220 212 236 b 241 281 225 263 232 273 b 278 301 250 289 262 296 b 319 313 295 307 308 311 b 365 321 331 316 346 318 b 406 326 372 322 385 324 b 452 333 427 329 442 331 b 490 342 462 334 475 337 b 532 360 506 347 520 353 z m 590 867 l 590 957 l 190 957 l 190 867 z "},"Ă":{"ha":926,"x_min":0,"x_max":0,"o":"m 556 990 l 371 990 l -11 0 l 168 0 l 265 263 l 657 263 l 751 0 l 938 0 z m 611 393 l 310 393 l 464 810 z m 239 1285 b 304 1139 244 1221 266 1172 b 457 1089 342 1106 393 1089 b 616 1138 523 1089 576 1105 b 688 1285 656 1171 680 1220 l 608 1285 b 560 1206 601 1250 585 1224 b 468 1179 535 1188 504 1179 b 319 1285 383 1179 333 1214 z "},"ă":{"ha":772,"x_min":0,"x_max":0,"o":"m 76 496 l 226 496 b 272 594 233 542 248 575 b 386 624 296 614 334 624 b 533 515 484 624 533 588 b 524 464 533 488 530 471 b 482 441 516 454 502 446 b 367 422 462 436 423 430 b 317 416 342 419 325 417 b 269 408 309 415 294 412 b 219 398 245 405 228 401 b 174 383 209 395 194 390 b 131 363 154 377 140 370 b 98 335 122 355 111 346 b 69 299 84 324 75 312 b 53 253 63 286 57 270 b 46 196 48 235 46 216 b 111 40 46 130 68 78 b 288 -18 155 1 213 -18 b 539 68 395 -18 479 11 b 656 -18 549 11 588 -18 b 758 -3 683 -18 718 -13 l 758 108 b 722 106 745 106 733 106 b 692 117 707 106 697 109 b 685 158 687 124 685 138 l 685 522 b 605 686 685 596 658 651 b 390 739 552 721 480 739 b 76 496 198 739 93 658 z m 532 360 l 532 275 b 500 151 532 214 521 173 b 338 94 462 113 408 94 b 242 122 297 94 265 104 b 208 201 220 141 208 167 b 218 249 208 220 212 236 b 241 281 225 263 232 273 b 278 301 250 289 262 296 b 319 313 295 307 308 311 b 365 321 331 316 346 318 b 406 326 372 322 385 324 b 452 333 427 329 442 331 b 490 342 462 334 475 337 b 532 360 506 347 520 353 z m 165 1015 b 231 869 171 951 193 903 b 383 819 269 836 319 819 b 542 869 449 819 502 836 b 614 1015 583 902 606 950 l 535 1015 b 486 937 527 981 511 955 b 394 910 461 919 431 910 b 246 1015 309 910 260 945 z "},"Ą":{"ha":926,"x_min":0,"x_max":0,"o":"m 938 0 l 556 992 l 371 992 l -10 0 l 169 0 l 263 263 l 658 263 l 751 0 b 593 -185 646 -63 593 -125 b 610 -254 593 -212 599 -236 b 655 -292 622 -273 637 -285 b 699 -306 673 -299 688 -304 b 733 -310 711 -309 722 -310 b 879 -206 812 -310 861 -275 l 822 -193 b 750 -240 803 -225 779 -240 b 712 -224 735 -240 722 -235 b 696 -179 701 -212 696 -198 b 724 -99 696 -151 705 -125 b 826 0 742 -73 776 -40 z m 460 821 l 464 821 l 613 394 l 310 394 z "},"ą":{"ha":772,"x_min":0,"x_max":0,"o":"m 685 529 b 600 686 685 600 656 652 b 397 738 544 720 476 738 b 170 682 306 738 231 719 b 71 499 109 645 76 584 l 229 499 b 276 584 233 537 249 565 b 388 613 304 603 341 613 b 536 515 487 613 536 580 b 526 471 536 497 533 482 b 492 445 519 460 508 451 b 448 432 477 439 462 435 b 386 424 434 429 413 426 b 321 414 359 421 338 418 b 219 397 280 409 246 404 b 135 365 193 391 164 380 b 67 298 105 349 83 327 b 44 190 52 269 44 233 b 115 35 44 124 68 72 b 290 -19 163 -1 221 -19 b 426 3 336 -19 381 -12 b 539 68 472 18 509 39 b 581 0 546 35 560 12 b 596 -8 583 -2 588 -5 b 519 -64 561 -30 535 -48 b 451 -185 474 -105 451 -145 b 469 -254 451 -212 457 -236 b 513 -292 480 -273 495 -285 b 558 -306 531 -299 546 -304 b 592 -310 569 -309 581 -310 b 738 -206 670 -310 719 -275 l 681 -193 b 608 -240 661 -225 637 -240 b 570 -224 594 -240 581 -235 b 554 -179 559 -212 554 -198 b 619 -54 554 -139 576 -98 b 640 -37 624 -50 631 -45 b 660 -19 648 -29 655 -23 l 661 -19 b 761 -1 694 -19 727 -13 l 761 108 b 739 106 750 106 743 106 l 722 106 b 693 118 708 106 699 110 b 685 160 688 126 685 140 z m 526 242 b 469 140 526 196 507 162 b 349 106 431 117 391 106 b 249 127 313 106 279 113 b 203 197 218 141 203 165 b 238 281 203 235 214 263 b 332 317 261 298 292 310 b 398 325 344 319 366 321 b 475 338 430 329 456 333 b 526 360 494 343 512 350 z "},"Ć":{"ha":1003,"x_min":0,"x_max":0,"o":"m 951 376 l 778 376 b 525 124 756 208 672 124 b 391 156 474 124 429 134 b 300 241 353 177 322 205 b 250 358 278 277 261 316 b 233 494 239 401 233 446 b 262 672 233 558 243 617 b 359 808 281 726 313 771 b 526 864 405 845 461 864 b 688 813 590 864 644 847 b 771 674 731 779 759 733 l 943 674 b 803 924 927 783 881 866 b 529 1011 725 982 634 1011 b 275 940 432 1011 347 987 b 113 752 203 892 149 829 b 58 494 76 675 58 589 b 185 118 58 338 100 213 b 521 -24 269 24 381 -24 b 822 85 644 -24 744 13 b 951 376 899 158 942 255 z m 457 1088 l 572 1088 l 769 1286 l 582 1286 z "},"ć":{"ha":772,"x_min":0,"x_max":0,"o":"m 733 271 l 578 271 b 520 149 569 218 550 178 b 404 107 490 121 451 107 b 263 174 344 107 297 129 b 213 360 229 218 213 280 b 265 548 213 439 230 502 b 410 617 300 594 349 617 b 515 581 452 617 488 605 b 571 476 543 556 562 522 l 728 476 b 630 669 719 559 686 623 b 408 739 574 716 500 739 b 148 634 299 739 212 704 b 51 351 84 564 51 470 b 147 84 51 241 83 152 b 404 -18 211 16 297 -18 b 628 60 494 -18 569 8 b 733 271 687 113 722 183 z m 335 818 l 450 818 l 647 1017 l 460 1017 z "},"Ĉ":{"ha":1003,"x_min":0,"x_max":0,"o":"m 951 376 l 778 376 b 525 124 756 208 672 124 b 391 156 474 124 429 134 b 300 241 353 177 322 205 b 250 358 278 277 261 316 b 233 494 239 401 233 446 b 262 672 233 558 243 617 b 359 808 281 726 313 771 b 526 864 405 845 461 864 b 688 813 590 864 644 847 b 771 674 731 779 759 733 l 943 674 b 803 924 927 783 881 866 b 529 1011 725 982 634 1011 b 275 940 432 1011 347 987 b 113 752 203 892 149 829 b 58 494 76 675 58 589 b 185 118 58 338 100 213 b 521 -24 269 24 381 -24 b 822 85 644 -24 744 13 b 951 376 899 158 942 255 z m 529 1213 l 628 1088 l 757 1088 l 607 1286 l 453 1286 l 304 1088 l 432 1088 z "},"ĉ":{"ha":772,"x_min":0,"x_max":0,"o":"m 733 271 l 578 271 b 520 149 569 218 550 178 b 404 107 490 121 451 107 b 263 174 344 107 297 129 b 213 360 229 218 213 280 b 265 548 213 439 230 502 b 410 617 300 594 349 617 b 515 581 452 617 488 605 b 571 476 543 556 562 522 l 728 476 b 630 669 719 559 686 623 b 408 739 574 716 500 739 b 148 634 299 739 212 704 b 51 351 84 564 51 470 b 147 84 51 241 83 152 b 404 -18 211 16 297 -18 b 628 60 494 -18 569 8 b 733 271 687 113 722 183 z m 404 943 l 503 818 l 632 818 l 482 1017 l 328 1017 l 179 818 l 307 818 z "},"Ċ":{"ha":1003,"x_min":0,"x_max":0,"o":"m 951 376 l 778 376 b 525 124 756 208 672 124 b 391 156 474 124 429 134 b 300 241 353 177 322 205 b 250 358 278 277 261 316 b 233 494 239 401 233 446 b 262 672 233 558 243 617 b 359 808 281 726 313 771 b 526 864 405 845 461 864 b 688 813 590 864 644 847 b 771 674 731 779 759 733 l 943 674 b 803 924 927 783 881 866 b 529 1011 725 982 634 1011 b 275 940 432 1011 347 987 b 113 752 203 892 149 829 b 58 494 76 675 58 589 b 185 118 58 338 100 213 b 521 -24 269 24 381 -24 b 822 85 644 -24 744 13 b 951 376 899 158 942 255 z m 606 1106 l 606 1256 l 447 1256 l 447 1106 z "},"ċ":{"ha":772,"x_min":0,"x_max":0,"o":"m 733 271 l 578 271 b 520 149 569 218 550 178 b 404 107 490 121 451 107 b 263 174 344 107 297 129 b 213 360 229 218 213 280 b 265 548 213 439 230 502 b 410 617 300 594 349 617 b 515 581 452 617 488 605 b 571 476 543 556 562 522 l 728 476 b 630 669 719 559 686 623 b 408 739 574 716 500 739 b 148 634 299 739 212 704 b 51 351 84 564 51 470 b 147 84 51 241 83 152 b 404 -18 211 16 297 -18 b 628 60 494 -18 569 8 b 733 271 687 113 722 183 z m 479 836 l 479 986 l 321 986 l 321 836 z "},"Č":{"ha":1003,"x_min":0,"x_max":0,"o":"m 951 376 l 778 376 b 525 124 756 208 672 124 b 391 156 474 124 429 134 b 300 241 353 177 322 205 b 250 358 278 277 261 316 b 233 494 239 401 233 446 b 262 672 233 558 243 617 b 359 808 281 726 313 771 b 526 864 405 845 461 864 b 688 813 590 864 644 847 b 771 674 731 779 759 733 l 943 674 b 803 924 927 783 881 866 b 529 1011 725 982 634 1011 b 275 940 432 1011 347 987 b 113 752 203 892 149 829 b 58 494 76 675 58 589 b 185 118 58 338 100 213 b 521 -24 269 24 381 -24 b 822 85 644 -24 744 13 b 951 376 899 158 942 255 z m 751 1286 l 622 1286 l 524 1163 l 426 1286 l 299 1286 l 447 1088 l 601 1088 z "},"č":{"ha":772,"x_min":0,"x_max":0,"o":"m 733 271 l 578 271 b 520 149 569 218 550 178 b 404 107 490 121 451 107 b 263 174 344 107 297 129 b 213 360 229 218 213 280 b 265 548 213 439 230 502 b 410 617 300 594 349 617 b 515 581 452 617 488 605 b 571 476 543 556 562 522 l 728 476 b 630 669 719 559 686 623 b 408 739 574 716 500 739 b 148 634 299 739 212 704 b 51 351 84 564 51 470 b 147 84 51 241 83 152 b 404 -18 211 16 297 -18 b 628 60 494 -18 569 8 b 733 271 687 113 722 183 z m 629 1017 l 500 1017 l 401 893 l 304 1017 l 176 1017 l 325 818 l 479 818 z "},"Ď":{"ha":1003,"x_min":0,"x_max":0,"o":"m 104 989 l 104 0 l 490 0 b 678 24 568 0 631 8 b 811 110 726 41 770 69 b 950 511 904 202 950 336 b 804 888 950 675 901 800 b 661 967 761 926 713 953 b 481 989 609 982 549 989 z m 276 842 l 469 842 b 701 752 574 842 651 812 b 776 503 751 692 776 609 b 710 240 776 391 754 303 b 481 146 665 177 589 146 l 276 146 z m 681 1286 l 551 1286 l 453 1163 l 356 1286 l 228 1286 l 376 1088 l 531 1088 z "},"ď":{"ha":954,"x_min":0,"x_max":0,"o":"m 760 992 l 601 992 l 601 625 l 599 625 b 498 709 575 662 542 690 b 360 738 454 728 408 738 b 140 642 274 738 200 706 b 49 364 79 579 49 486 b 135 88 49 251 77 159 b 385 -19 192 16 275 -19 b 607 97 493 -19 567 19 l 610 97 l 610 0 l 760 0 z m 207 351 b 256 536 207 424 223 485 b 408 613 289 587 340 613 b 553 546 469 613 518 590 b 607 360 589 501 607 439 b 556 181 607 290 590 231 b 406 106 521 131 471 106 b 258 178 341 106 291 130 b 207 351 224 226 207 284 z m 828 793 l 933 793 l 1046 992 l 872 992 z "},"Đ":{"ha":1003,"x_min":0,"x_max":0,"o":"m 279 850 l 450 850 b 616 824 516 850 571 841 b 718 747 661 806 695 780 b 767 636 741 713 757 676 b 781 496 776 596 781 550 b 767 356 781 442 776 395 b 718 245 757 316 741 279 b 616 168 695 211 661 186 b 450 142 571 150 516 142 l 279 142 l 279 440 l 550 440 l 550 582 l 279 582 z m 106 0 l 517 0 b 844 138 662 0 771 46 b 954 496 918 230 954 350 b 844 853 954 642 918 761 b 517 992 771 946 662 992 l 106 992 l 106 582 l 13 582 l 13 440 l 106 440 z "},"đ":{"ha":861,"x_min":0,"x_max":0,"o":"m 760 811 l 869 811 l 869 901 l 760 901 l 760 992 l 601 992 l 601 901 l 389 901 l 389 811 l 601 811 l 601 625 l 599 625 b 498 709 575 662 542 690 b 360 738 454 728 408 738 b 140 642 274 738 200 706 b 49 364 79 579 49 486 b 135 88 49 251 77 159 b 385 -19 192 16 275 -19 b 607 97 493 -19 567 19 l 610 97 l 610 0 l 760 0 z m 207 351 b 256 536 207 424 223 485 b 408 613 289 587 340 613 b 553 546 469 613 518 590 b 607 360 589 501 607 439 b 556 181 607 290 590 231 b 406 106 521 131 471 106 b 258 178 341 106 291 130 b 207 351 224 226 207 284 z "},"Ē":{"ha":875,"x_min":0,"x_max":0,"o":"m 815 989 l 103 989 l 103 0 l 824 0 l 824 149 l 275 149 l 275 440 l 776 440 l 776 581 l 275 581 l 275 843 l 815 843 z m 664 1136 l 664 1226 l 264 1226 l 264 1136 z "},"ē":{"ha":772,"x_min":0,"x_max":0,"o":"m 725 224 l 574 224 b 509 124 558 178 536 145 b 403 93 482 103 446 93 b 260 152 342 93 294 113 b 206 319 225 191 207 247 l 735 319 l 735 336 b 643 630 735 460 704 558 b 394 738 582 702 499 738 b 145 628 294 738 210 701 b 47 350 80 555 47 462 b 142 81 47 241 79 151 b 400 -24 206 11 292 -24 b 610 42 481 -24 552 -2 b 725 224 669 85 707 146 z m 576 425 l 208 425 b 267 569 216 488 235 536 b 393 619 299 603 341 619 b 520 567 445 619 487 602 b 576 425 553 533 572 485 z m 596 867 l 596 957 l 196 957 l 196 867 z "},"Ĕ":{"ha":875,"x_min":0,"x_max":0,"o":"m 815 989 l 103 989 l 103 0 l 824 0 l 824 149 l 275 149 l 275 440 l 776 440 l 776 581 l 275 581 l 275 843 l 815 843 z m 235 1285 b 300 1139 240 1221 262 1172 b 453 1089 338 1106 389 1089 b 612 1138 519 1089 572 1105 b 683 1285 652 1171 676 1220 l 604 1285 b 556 1206 597 1250 581 1224 b 464 1179 531 1188 500 1179 b 315 1285 379 1179 329 1214 z "},"ĕ":{"ha":772,"x_min":0,"x_max":0,"o":"m 725 224 l 574 224 b 509 124 558 178 536 145 b 403 93 482 103 446 93 b 260 152 342 93 294 113 b 206 319 225 191 207 247 l 735 319 l 735 336 b 643 630 735 460 704 558 b 394 738 582 702 499 738 b 145 628 294 738 210 701 b 47 350 80 555 47 462 b 142 81 47 241 79 151 b 400 -24 206 11 292 -24 b 610 42 481 -24 552 -2 b 725 224 669 85 707 146 z m 576 425 l 208 425 b 267 569 216 488 235 536 b 393 619 299 603 341 619 b 520 567 445 619 487 602 b 576 425 553 533 572 485 z m 169 1015 b 235 869 175 951 197 903 b 388 819 273 836 324 819 b 547 869 453 819 506 836 b 618 1015 587 902 611 950 l 539 1015 b 490 937 531 981 515 955 b 399 910 465 919 435 910 b 250 1015 313 910 264 945 z "},"Ė":{"ha":875,"x_min":0,"x_max":0,"o":"m 815 989 l 103 989 l 103 0 l 824 0 l 824 149 l 275 149 l 275 440 l 776 440 l 776 581 l 275 581 l 275 843 l 815 843 z m 542 1106 l 542 1256 l 383 1256 l 383 1106 z "},"ė":{"ha":772,"x_min":0,"x_max":0,"o":"m 725 224 l 574 224 b 509 124 558 178 536 145 b 403 93 482 103 446 93 b 260 152 342 93 294 113 b 206 319 225 191 207 247 l 735 319 l 735 336 b 643 630 735 460 704 558 b 394 738 582 702 499 738 b 145 628 294 738 210 701 b 47 350 80 555 47 462 b 142 81 47 241 79 151 b 400 -24 206 11 292 -24 b 610 42 481 -24 552 -2 b 725 224 669 85 707 146 z m 576 425 l 208 425 b 267 569 216 488 235 536 b 393 619 299 603 341 619 b 520 567 445 619 487 602 b 576 425 553 533 572 485 z m 478 836 l 478 986 l 319 986 l 319 836 z "},"Ę":{"ha":875,"x_min":0,"x_max":0,"o":"m 829 0 l 829 150 l 279 150 l 279 440 l 779 440 l 779 582 l 279 582 l 279 842 l 819 842 l 819 992 l 106 992 l 106 0 l 701 0 b 543 -185 596 -63 543 -125 b 560 -254 543 -212 549 -236 b 605 -292 572 -273 587 -285 b 649 -306 623 -299 638 -304 b 683 -310 661 -309 672 -310 b 829 -206 762 -310 811 -275 l 772 -193 b 700 -240 753 -225 729 -240 b 662 -224 685 -240 672 -235 b 646 -179 651 -212 646 -198 b 674 -99 646 -151 655 -125 b 776 0 692 -73 726 -40 z "},"ę":{"ha":772,"x_min":0,"x_max":0,"o":"m 735 318 b 658 611 749 429 723 527 b 396 738 594 695 506 738 b 144 627 292 738 208 701 b 49 358 81 553 49 464 b 101 141 49 274 66 202 b 250 8 135 80 185 36 b 375 -18 290 -8 331 -17 b 317 -64 351 -35 331 -50 b 249 -185 271 -105 249 -145 b 266 -254 249 -212 254 -236 b 310 -292 278 -273 292 -285 b 355 -306 328 -299 343 -304 b 389 -310 366 -309 378 -310 b 535 -206 468 -310 516 -275 l 478 -193 b 406 -240 458 -225 434 -240 b 367 -224 391 -240 378 -235 b 351 -179 357 -212 351 -198 b 417 -54 351 -139 373 -98 b 463 -14 423 -48 438 -34 b 511 -3 476 -12 493 -8 b 650 80 566 13 612 41 b 725 225 688 119 713 168 l 575 225 b 400 106 547 145 489 106 b 256 167 337 106 289 126 b 207 318 223 207 207 258 z m 207 422 b 263 558 209 477 227 522 b 396 613 298 594 342 613 b 522 557 448 613 490 594 b 576 422 555 520 573 475 z "},"Ě":{"ha":875,"x_min":0,"x_max":0,"o":"m 815 989 l 103 989 l 103 0 l 824 0 l 824 149 l 275 149 l 275 440 l 776 440 l 776 581 l 275 581 l 275 843 l 815 843 z m 688 1286 l 558 1286 l 460 1163 l 363 1286 l 235 1286 l 383 1088 l 538 1088 z "},"ě":{"ha":772,"x_min":0,"x_max":0,"o":"m 725 224 l 574 224 b 509 124 558 178 536 145 b 403 93 482 103 446 93 b 260 152 342 93 294 113 b 206 319 225 191 207 247 l 735 319 l 735 336 b 643 630 735 460 704 558 b 394 738 582 702 499 738 b 145 628 294 738 210 701 b 47 350 80 555 47 462 b 142 81 47 241 79 151 b 400 -24 206 11 292 -24 b 610 42 481 -24 552 -2 b 725 224 669 85 707 146 z m 576 425 l 208 425 b 267 569 216 488 235 536 b 393 619 299 603 341 619 b 520 567 445 619 487 602 b 576 425 553 533 572 485 z m 619 1017 l 490 1017 l 392 893 l 294 1017 l 167 1017 l 315 818 l 469 818 z "},"Ĝ":{"ha":1054,"x_min":0,"x_max":0,"o":"m 972 529 l 549 529 l 549 396 l 815 396 b 745 197 815 317 792 251 b 546 117 698 144 632 117 b 316 216 448 117 371 150 b 233 490 261 282 233 374 b 315 764 233 606 261 697 b 540 864 370 831 445 864 b 709 813 608 864 664 847 b 792 674 754 779 781 733 l 960 674 b 823 919 949 777 903 859 b 542 1010 743 980 649 1010 b 189 860 394 1010 276 960 b 58 488 102 761 58 637 b 188 118 58 336 102 213 b 526 -24 275 24 388 -24 b 835 118 653 -24 756 24 l 861 0 l 972 0 z m 539 1213 l 638 1088 l 767 1088 l 617 1286 l 463 1286 l 314 1088 l 442 1088 z "},"ĝ":{"ha":824,"x_min":0,"x_max":0,"o":"m 740 717 l 593 717 l 593 617 b 497 708 563 658 531 689 b 369 736 463 727 420 736 b 138 634 273 736 196 702 b 50 364 79 566 50 476 b 134 103 50 255 78 168 b 361 7 190 39 266 7 b 589 128 461 7 537 47 l 589 43 b 544 -118 589 -31 574 -85 b 400 -168 514 -151 466 -168 b 233 -61 304 -168 248 -132 l 75 -61 b 396 -279 93 -206 200 -279 b 662 -190 521 -279 609 -250 b 740 83 714 -131 740 -40 z m 397 608 b 538 547 457 608 504 588 b 589 375 572 505 589 448 b 538 197 589 300 572 241 b 397 131 503 153 456 131 b 259 194 340 131 294 152 b 207 367 224 237 207 294 b 258 544 207 443 224 502 b 397 608 291 587 338 608 z m 421 943 l 519 818 l 649 818 l 499 1017 l 344 1017 l 196 818 l 324 818 z "},"Ğ":{"ha":1054,"x_min":0,"x_max":0,"o":"m 972 529 l 549 529 l 549 396 l 815 396 b 745 197 815 317 792 251 b 546 117 698 144 632 117 b 316 216 448 117 371 150 b 233 490 261 282 233 374 b 315 764 233 606 261 697 b 540 864 370 831 445 864 b 709 813 608 864 664 847 b 792 674 754 779 781 733 l 960 674 b 823 919 949 777 903 859 b 542 1010 743 980 649 1010 b 189 860 394 1010 276 960 b 58 488 102 761 58 637 b 188 118 58 336 102 213 b 526 -24 275 24 388 -24 b 835 118 653 -24 756 24 l 861 0 l 972 0 z m 317 1285 b 382 1139 322 1221 344 1172 b 535 1089 420 1106 471 1089 b 694 1138 600 1089 653 1105 b 765 1285 734 1171 758 1220 l 686 1285 b 638 1206 679 1250 663 1224 b 546 1179 613 1188 582 1179 b 397 1285 461 1179 411 1214 z "},"ğ":{"ha":824,"x_min":0,"x_max":0,"o":"m 740 717 l 593 717 l 593 617 b 497 708 563 658 531 689 b 369 736 463 727 420 736 b 138 634 273 736 196 702 b 50 364 79 566 50 476 b 134 103 50 255 78 168 b 361 7 190 39 266 7 b 589 128 461 7 537 47 l 589 43 b 544 -118 589 -31 574 -85 b 400 -168 514 -151 466 -168 b 233 -61 304 -168 248 -132 l 75 -61 b 396 -279 93 -206 200 -279 b 662 -190 521 -279 609 -250 b 740 83 714 -131 740 -40 z m 397 608 b 538 547 457 608 504 588 b 589 375 572 505 589 448 b 538 197 589 300 572 241 b 397 131 503 153 456 131 b 259 194 340 131 294 152 b 207 367 224 237 207 294 b 258 544 207 443 224 502 b 397 608 291 587 338 608 z m 183 1015 b 249 869 189 951 211 903 b 401 819 287 836 338 819 b 560 869 467 819 520 836 b 632 1015 601 902 625 950 l 553 1015 b 504 937 545 981 529 955 b 413 910 479 919 449 910 b 264 1015 327 910 278 945 z "},"Ġ":{"ha":1054,"x_min":0,"x_max":0,"o":"m 972 529 l 549 529 l 549 396 l 815 396 b 745 197 815 317 792 251 b 546 117 698 144 632 117 b 316 216 448 117 371 150 b 233 490 261 282 233 374 b 315 764 233 606 261 697 b 540 864 370 831 445 864 b 709 813 608 864 664 847 b 792 674 754 779 781 733 l 960 674 b 823 919 949 777 903 859 b 542 1010 743 980 649 1010 b 189 860 394 1010 276 960 b 58 488 102 761 58 637 b 188 118 58 336 102 213 b 526 -24 275 24 388 -24 b 835 118 653 -24 756 24 l 861 0 l 972 0 z m 615 1106 l 615 1256 l 457 1256 l 457 1106 z "},"ġ":{"ha":824,"x_min":0,"x_max":0,"o":"m 740 717 l 593 717 l 593 617 b 497 708 563 658 531 689 b 369 736 463 727 420 736 b 138 634 273 736 196 702 b 50 364 79 566 50 476 b 134 103 50 255 78 168 b 361 7 190 39 266 7 b 589 128 461 7 537 47 l 589 43 b 544 -118 589 -31 574 -85 b 400 -168 514 -151 466 -168 b 233 -61 304 -168 248 -132 l 75 -61 b 396 -279 93 -206 200 -279 b 662 -190 521 -279 609 -250 b 740 83 714 -131 740 -40 z m 397 608 b 538 547 457 608 504 588 b 589 375 572 505 589 448 b 538 197 589 300 572 241 b 397 131 503 153 456 131 b 259 194 340 131 294 152 b 207 367 224 237 207 294 b 258 544 207 443 224 502 b 397 608 291 587 338 608 z m 488 836 l 488 986 l 329 986 l 329 836 z "},"Ģ":{"ha":1054,"x_min":0,"x_max":0,"o":"m 971 522 l 549 522 l 549 390 l 813 390 b 738 188 811 304 786 237 b 535 118 691 140 623 116 b 310 228 436 118 361 155 b 233 496 259 302 233 391 b 310 763 233 600 259 690 b 535 874 361 837 436 874 b 706 822 600 874 657 856 b 790 676 754 787 782 738 l 960 676 b 822 926 947 784 901 867 b 535 1015 742 986 647 1015 b 190 865 391 1015 276 965 b 60 496 103 765 60 642 b 190 126 60 349 103 225 b 535 -24 276 26 391 -24 b 697 8 597 -24 651 -13 b 833 117 742 28 788 65 l 860 0 l 971 0 z m 444 -207 l 528 -207 b 465 -257 523 -235 502 -251 l 465 -310 b 626 -193 573 -305 626 -266 l 626 -69 l 444 -69 z "},"ģ":{"ha":824,"x_min":0,"x_max":0,"o":"m 747 718 l 589 718 l 589 619 l 586 619 b 374 738 547 698 476 738 b 137 633 275 738 196 703 b 49 378 78 564 49 479 b 81 188 49 306 59 243 b 187 53 102 133 137 88 b 371 0 236 18 298 0 b 495 33 415 0 457 11 b 586 126 534 56 564 87 l 589 126 l 589 17 b 404 -167 589 -106 527 -167 b 290 -145 357 -167 319 -159 b 232 -61 260 -131 241 -103 l 74 -61 b 132 -193 78 -114 98 -158 b 249 -265 166 -228 205 -252 b 394 -285 293 -278 342 -285 b 657 -204 509 -285 597 -258 b 747 38 717 -150 747 -70 z m 396 125 b 255 195 334 125 287 148 b 207 363 223 242 207 298 b 253 539 207 431 222 490 b 396 613 283 588 331 613 b 541 544 461 613 509 590 b 589 375 573 499 589 443 b 541 198 589 306 573 247 b 396 125 509 149 461 125 z m 501 992 l 418 992 b 481 1042 423 1019 444 1036 l 481 1094 b 319 978 373 1090 319 1051 l 319 854 l 501 854 z "},"Ĥ":{"ha":1003,"x_min":0,"x_max":0,"o":"m 901 989 l 728 989 l 728 596 l 275 596 l 275 989 l 101 989 l 101 0 l 275 0 l 275 444 l 728 444 l 728 0 l 901 0 z m 503 1213 l 601 1088 l 731 1088 l 581 1286 l 426 1286 l 278 1088 l 406 1088 z "},"ĥ":{"ha":797,"x_min":0,"x_max":0,"o":"m 242 989 l 85 989 l 85 0 l 242 0 l 242 385 b 283 543 242 450 256 503 b 417 603 311 583 356 603 b 527 560 471 603 508 588 b 556 435 546 531 556 489 l 556 0 l 715 0 l 715 486 b 650 672 715 568 694 629 b 468 735 606 714 546 735 b 242 618 370 735 294 696 z m 397 1213 l 496 1088 l 625 1088 l 475 1286 l 321 1286 l 172 1088 l 300 1088 z "},"Ħ":{"ha":1003,"x_min":0,"x_max":0,"o":"m 101 0 l 275 0 l 275 413 l 726 413 l 726 0 l 900 0 l 900 992 l 726 992 l 726 753 l 275 753 l 275 992 l 101 992 z m 275 563 l 275 663 l 726 663 l 726 563 z "},"ħ":{"ha":811,"x_min":0,"x_max":0,"o":"m 97 901 l -8 901 l -8 811 l 97 811 l 97 0 l 256 0 l 256 424 b 303 558 256 477 272 522 b 429 613 335 594 377 613 b 533 574 476 613 511 600 b 569 451 556 549 568 508 l 569 0 l 728 0 l 728 493 b 660 675 728 573 705 633 b 474 738 616 717 553 738 b 347 706 427 738 385 727 b 258 624 308 684 279 657 l 256 624 l 256 811 l 431 811 l 431 901 l 256 901 l 256 992 l 97 992 z "},"Ĩ":{"ha":386,"x_min":0,"x_max":0,"o":"m 281 989 l 106 989 l 106 0 l 281 0 z m 361 1269 b 292 1208 351 1229 328 1208 b 206 1233 273 1208 244 1217 b 93 1261 161 1252 124 1261 b -3 1213 54 1261 22 1245 b -51 1104 -29 1181 -45 1145 l 28 1104 b 88 1161 35 1142 55 1161 b 182 1136 111 1161 142 1153 b 285 1110 222 1119 256 1110 b 393 1157 331 1110 367 1125 b 439 1269 415 1181 431 1219 z "},"ĩ":{"ha":335,"x_min":0,"x_max":0,"o":"m 246 0 l 246 718 l 88 718 l 88 0 z m 336 1000 b 267 939 326 959 303 939 b 181 964 248 939 219 947 b 68 992 136 982 99 992 b -28 944 29 992 -3 976 b -76 835 -54 912 -70 875 l 3 835 b 63 892 10 873 30 892 b 157 867 86 892 117 883 b 260 840 197 849 231 840 b 368 888 306 840 342 856 b 414 1000 390 912 406 949 z "},"Ī":{"ha":386,"x_min":0,"x_max":0,"o":"m 281 989 l 106 989 l 106 0 l 281 0 z m 392 1136 l 392 1226 l -8 1226 l -8 1136 z "},"ī":{"ha":335,"x_min":0,"x_max":0,"o":"m 246 0 l 246 718 l 88 718 l 88 0 z m 365 867 l 365 957 l -35 957 l -35 867 z "},"Ĭ":{"ha":386,"x_min":0,"x_max":0,"o":"m 106 992 l 106 0 l 279 0 l 279 992 z m 49 1257 l -32 1257 b 33 1111 -26 1193 -5 1144 b 186 1061 71 1078 122 1061 b 344 1110 250 1061 303 1077 b 417 1257 385 1142 409 1191 l 338 1257 b 288 1178 330 1222 314 1195 b 197 1151 263 1160 232 1151 b 101 1175 160 1151 128 1159 b 49 1257 73 1191 56 1218 z "},"ĭ":{"ha":335,"x_min":0,"x_max":0,"o":"m 88 0 l 246 0 l 246 718 l 88 718 z m 24 983 l -57 983 b 8 838 -51 919 -30 871 b 161 788 46 804 97 788 b 319 836 225 788 278 804 b 392 983 360 869 384 918 l 313 983 b 263 904 305 948 289 922 b 172 878 238 887 207 878 b 76 901 135 878 103 886 b 24 983 48 917 31 944 z "},"Į":{"ha":386,"x_min":0,"x_max":0,"o":"m 279 992 l 106 992 l 106 0 l 213 0 b 69 -185 117 -63 69 -125 b 85 -254 69 -212 75 -236 b 126 -292 96 -273 109 -285 b 166 -306 142 -299 155 -304 b 196 -310 177 -309 187 -310 b 328 -206 265 -310 309 -275 l 276 -193 b 211 -240 258 -225 236 -240 b 176 -224 197 -240 186 -235 b 163 -179 167 -212 163 -198 b 187 -99 163 -151 171 -125 b 279 0 203 -73 234 -40 z "},"į":{"ha":335,"x_min":0,"x_max":0,"o":"m 246 0 l 246 718 l 88 718 l 88 0 l 176 0 b 33 -185 81 -63 33 -125 b 44 -243 33 -207 37 -226 b 71 -280 52 -260 61 -272 b 106 -299 81 -288 93 -294 b 138 -308 120 -304 130 -307 b 161 -310 146 -309 154 -310 b 242 -285 191 -310 218 -302 b 292 -206 267 -269 283 -243 l 240 -193 b 175 -240 223 -225 201 -240 b 141 -223 162 -240 151 -234 b 126 -179 131 -211 126 -197 b 151 -99 126 -151 135 -125 b 244 0 168 -74 199 -41 z m 88 842 l 246 842 l 246 992 l 88 992 z "},"İ":{"ha":386,"x_min":0,"x_max":0,"o":"m 281 989 l 106 989 l 106 0 l 281 0 z m 272 1106 l 272 1256 l 114 1256 l 114 1106 z "},"ı":{"ha":335,"x_min":0,"x_max":0,"o":"m 246 0 l 246 718 l 88 718 l 88 0 z "},"Ĳ":{"ha":1140,"x_min":0,"x_max":0,"o":"m 106 0 l 279 0 l 279 992 l 106 992 z m 1035 992 l 861 992 l 861 310 b 832 164 861 243 851 194 b 722 118 813 133 776 118 b 617 163 672 118 637 133 b 586 296 596 192 586 237 l 586 347 l 413 347 l 413 294 b 485 63 413 198 437 121 b 708 -24 534 5 608 -24 b 851 -3 763 -24 811 -17 b 947 47 892 10 924 27 b 1001 125 969 68 988 94 b 1028 217 1015 156 1024 187 b 1035 319 1033 246 1035 281 z "},"ĳ":{"ha":658,"x_min":0,"x_max":0,"o":"m 88 842 l 246 842 l 246 992 l 88 992 z m 88 0 l 246 0 l 246 718 l 88 718 z m 411 842 l 569 842 l 569 992 l 411 992 z m 411 -54 b 399 -136 411 -93 407 -120 b 347 -160 391 -152 374 -160 b 293 -154 330 -160 312 -158 l 293 -279 b 364 -285 312 -283 335 -285 b 521 -228 436 -285 488 -266 b 569 -61 553 -191 569 -135 l 569 718 l 411 718 z "},"Ĵ":{"ha":746,"x_min":0,"x_max":0,"o":"m 653 989 l 479 989 l 479 317 b 478 255 479 291 479 270 b 469 203 477 240 474 222 b 447 158 464 183 456 168 b 407 130 438 147 425 138 b 343 118 389 122 368 118 b 231 163 288 118 251 133 b 200 293 210 193 200 237 l 200 347 l 35 347 l 35 310 b 108 61 35 200 59 118 b 349 -24 156 5 237 -24 b 576 57 449 -24 524 3 b 653 293 627 111 653 189 z m 546 1213 l 644 1088 l 774 1088 l 624 1286 l 469 1286 l 321 1088 l 449 1088 z "},"ĵ":{"ha":335,"x_min":0,"x_max":0,"o":"m 88 -54 b 76 -136 88 -93 84 -120 b 24 -160 68 -152 50 -160 b -31 -154 6 -160 -12 -158 l -31 -279 b 40 -285 -12 -283 12 -285 b 197 -228 113 -285 165 -266 b 246 -61 230 -191 246 -135 l 246 718 l 88 718 z m 165 943 l 264 818 l 393 818 l 243 1017 l 89 1017 l -60 818 l 68 818 z "},"Ķ":{"ha":951,"x_min":0,"x_max":0,"o":"m 106 0 l 279 0 l 279 333 l 421 474 l 746 0 l 963 0 l 539 596 l 935 992 l 721 992 l 279 540 l 279 992 l 106 992 z m 383 -207 l 467 -207 b 404 -257 462 -235 441 -251 l 404 -310 b 565 -193 512 -305 565 -266 l 565 -69 l 383 -69 z "},"ķ":{"ha":746,"x_min":0,"x_max":0,"o":"m 88 0 l 246 0 l 246 257 l 340 349 l 560 0 l 753 0 l 451 454 l 726 718 l 532 718 l 246 428 l 246 992 l 88 992 z m 297 -207 l 381 -207 b 318 -257 376 -235 355 -251 l 318 -310 b 479 -193 425 -305 479 -266 l 479 -69 l 297 -69 z "},"ĸ":{"ha":746,"x_min":0,"x_max":0,"o":"m 88 718 l 88 0 l 246 0 l 246 257 l 340 349 l 560 0 l 753 0 l 451 454 l 726 718 l 532 718 l 246 428 l 246 718 z "},"Ĺ":{"ha":797,"x_min":0,"x_max":0,"o":"m 781 150 l 278 150 l 278 989 l 103 989 l 103 0 l 781 0 z m 133 1088 l 249 1088 l 446 1286 l 258 1286 z "},"ĺ":{"ha":335,"x_min":0,"x_max":0,"o":"m 246 989 l 89 989 l 89 0 l 246 0 z m 88 1088 l 203 1088 l 400 1286 l 213 1286 z "},"Ļ":{"ha":797,"x_min":0,"x_max":0,"o":"m 106 0 l 783 0 l 783 150 l 279 150 l 279 992 l 106 992 z m 356 -207 l 439 -207 b 376 -257 434 -235 413 -251 l 376 -310 b 538 -193 484 -305 538 -266 l 538 -69 l 356 -69 z "},"ļ":{"ha":335,"x_min":0,"x_max":0,"o":"m 88 0 l 246 0 l 246 992 l 88 992 z m 75 -207 l 158 -207 b 96 -257 154 -235 133 -251 l 96 -310 b 257 -193 203 -305 257 -266 l 257 -69 l 75 -69 z "},"Ľ":{"ha":797,"x_min":0,"x_max":0,"o":"m 106 0 l 783 0 l 783 150 l 279 150 l 279 992 l 106 992 z m 411 793 l 517 793 l 629 992 l 456 992 z "},"ľ":{"ha":443,"x_min":0,"x_max":0,"o":"m 88 0 l 246 0 l 246 992 l 88 992 z m 317 793 l 422 793 l 535 992 l 361 992 z "},"Ŀ":{"ha":797,"x_min":0,"x_max":0,"o":"m 781 150 l 278 150 l 278 989 l 103 989 l 103 0 l 781 0 z m 606 568 l 606 718 l 447 718 l 447 568 z "},"ŀ":{"ha":504,"x_min":0,"x_max":0,"o":"m 88 0 l 246 0 l 246 992 l 88 992 z m 479 568 l 479 718 l 321 718 l 321 568 z "},"Ł":{"ha":797,"x_min":0,"x_max":0,"o":"m 106 440 l 0 365 l 0 240 l 106 315 l 106 0 l 783 0 l 783 150 l 279 150 l 279 438 l 557 635 l 557 764 l 279 567 l 279 992 l 106 992 z "},"ł":{"ha":335,"x_min":0,"x_max":0,"o":"m 88 0 l 246 0 l 246 565 l 340 640 l 340 740 l 246 665 l 246 992 l 88 992 l 88 542 l -7 468 l -7 369 l 88 443 z "},"Ń":{"ha":1003,"x_min":0,"x_max":0,"o":"m 906 989 l 739 989 l 739 260 l 283 989 l 101 989 l 101 0 l 265 0 l 265 728 l 726 0 l 906 0 z m 429 1088 l 544 1088 l 742 1286 l 554 1286 z "},"ń":{"ha":797,"x_min":0,"x_max":0,"o":"m 235 717 l 85 717 l 85 0 l 243 0 l 243 386 b 418 604 243 531 301 604 b 493 590 449 604 474 599 b 535 546 513 580 527 565 b 553 488 544 526 550 507 b 557 417 556 469 557 445 l 557 0 l 715 0 l 715 478 b 655 669 715 561 695 625 b 472 736 615 714 554 736 b 235 611 371 736 292 694 z m 319 818 l 435 818 l 632 1017 l 444 1017 z "},"Ņ":{"ha":1003,"x_min":0,"x_max":0,"o":"m 99 0 l 264 0 l 264 729 l 268 729 l 719 0 l 903 0 l 903 992 l 738 992 l 738 261 l 735 261 l 282 992 l 99 992 z m 396 -207 l 479 -207 b 417 -257 475 -235 454 -251 l 417 -310 b 578 -193 524 -305 578 -266 l 578 -69 l 396 -69 z "},"ņ":{"ha":797,"x_min":0,"x_max":0,"o":"m 83 0 l 242 0 l 242 424 b 290 558 242 477 258 522 b 415 613 322 594 363 613 b 519 574 463 613 497 600 b 556 451 542 549 554 508 l 556 0 l 714 0 l 714 493 b 647 675 714 573 691 633 b 460 738 602 717 539 738 b 332 703 413 738 371 726 b 236 610 293 681 261 650 l 233 613 l 233 718 l 83 718 z m 306 -207 l 389 -207 b 326 -257 384 -235 363 -251 l 326 -310 b 488 -193 434 -305 488 -266 l 488 -69 l 306 -69 z "},"Ň":{"ha":1003,"x_min":0,"x_max":0,"o":"m 906 989 l 739 989 l 739 260 l 283 989 l 101 989 l 101 0 l 265 0 l 265 728 l 726 0 l 906 0 z m 724 1286 l 594 1286 l 496 1163 l 399 1286 l 271 1286 l 419 1088 l 574 1088 z "},"ň":{"ha":797,"x_min":0,"x_max":0,"o":"m 235 717 l 85 717 l 85 0 l 243 0 l 243 386 b 418 604 243 531 301 604 b 493 590 449 604 474 599 b 535 546 513 580 527 565 b 553 488 544 526 550 507 b 557 417 556 469 557 445 l 557 0 l 715 0 l 715 478 b 655 669 715 561 695 625 b 472 736 615 714 554 736 b 235 611 371 736 292 694 z m 628 1017 l 499 1017 l 400 893 l 303 1017 l 175 1017 l 324 818 l 478 818 z "},"ŉ":{"ha":797,"x_min":0,"x_max":0,"o":"m 83 0 l 242 0 l 242 424 b 290 558 242 477 258 522 b 415 613 322 594 363 613 b 519 574 463 613 497 600 b 556 451 542 549 554 508 l 556 0 l 714 0 l 714 493 b 647 675 714 573 691 633 b 460 738 602 717 539 738 b 332 703 413 738 371 726 b 236 610 293 681 261 650 l 233 613 l 233 718 l 83 718 z m -26 992 l 57 992 b -6 942 52 964 31 947 l -6 889 b 156 1006 102 894 156 932 l 156 1129 l -26 1129 z "},"Ŋ":{"ha":1003,"x_min":0,"x_max":0,"o":"m 99 992 l 99 0 l 264 0 l 264 729 l 268 729 l 738 -25 l 738 -54 b 724 -133 738 -89 733 -116 b 668 -160 716 -151 697 -160 b 640 -158 661 -160 651 -159 b 608 -154 629 -157 619 -156 l 608 -279 b 685 -285 627 -283 652 -285 b 850 -227 760 -285 815 -266 b 903 -61 885 -189 903 -133 l 903 992 l 738 992 l 738 261 l 735 261 l 282 992 z "},"ŋ":{"ha":797,"x_min":0,"x_max":0,"o":"m 83 718 l 83 0 l 242 0 l 242 424 b 254 497 242 450 246 474 b 289 558 263 520 274 541 b 343 598 304 575 322 588 b 415 613 364 608 388 613 b 521 574 463 613 498 600 b 556 451 544 549 556 508 l 556 -54 b 545 -133 556 -89 552 -116 b 492 -160 538 -151 520 -160 b 438 -154 474 -160 456 -158 l 438 -279 b 469 -283 448 -281 458 -282 b 508 -285 479 -284 493 -285 b 667 -226 582 -285 635 -265 b 714 -61 698 -187 714 -132 l 714 493 b 646 676 714 575 691 636 b 460 738 600 717 538 738 b 331 703 413 738 369 726 b 236 610 292 681 260 650 l 233 613 l 233 718 z "},"Ō":{"ha":1056,"x_min":0,"x_max":0,"o":"m 531 1013 b 181 866 383 1013 267 964 b 53 494 96 768 53 644 b 184 119 53 340 97 215 b 528 -24 272 24 386 -24 b 871 120 669 -24 783 24 b 1003 494 959 216 1003 341 b 872 869 1003 648 959 773 b 531 1013 784 965 670 1013 z m 528 867 b 747 766 619 867 692 833 b 828 496 801 699 828 609 b 747 224 828 383 801 292 b 531 122 692 156 620 122 b 309 224 437 122 363 156 b 228 497 255 291 228 382 b 310 766 228 609 255 699 b 528 867 364 833 437 867 z m 732 1136 l 732 1226 l 332 1226 l 332 1136 z "},"ō":{"ha":824,"x_min":0,"x_max":0,"o":"m 415 738 b 149 635 304 738 216 703 b 50 358 83 566 50 474 b 149 81 50 242 83 149 b 415 -22 214 12 303 -22 b 677 81 525 -22 613 12 b 774 358 741 149 774 242 b 676 635 774 474 741 566 b 415 738 612 703 525 738 z m 413 613 b 560 545 475 613 525 590 b 614 360 596 500 614 438 b 560 170 614 279 596 216 b 414 101 525 124 476 101 b 264 169 350 101 300 124 b 210 358 228 215 210 278 b 264 544 210 437 228 499 b 413 613 300 590 350 613 z m 617 867 l 617 957 l 217 957 l 217 867 z "},"Ŏ":{"ha":1056,"x_min":0,"x_max":0,"o":"m 531 1013 b 181 866 383 1013 267 964 b 53 494 96 768 53 644 b 184 119 53 340 97 215 b 528 -24 272 24 386 -24 b 871 120 669 -24 783 24 b 1003 494 959 216 1003 341 b 872 869 1003 648 959 773 b 531 1013 784 965 670 1013 z m 528 867 b 747 766 619 867 692 833 b 828 496 801 699 828 609 b 747 224 828 383 801 292 b 531 122 692 156 620 122 b 309 224 437 122 363 156 b 228 497 255 291 228 382 b 310 766 228 609 255 699 b 528 867 364 833 437 867 z m 301 1285 b 367 1139 307 1221 329 1172 b 519 1089 405 1106 456 1089 b 678 1138 585 1089 638 1105 b 750 1285 719 1171 743 1220 l 671 1285 b 622 1206 663 1250 647 1224 b 531 1179 597 1188 567 1179 b 382 1285 445 1179 396 1214 z "},"ŏ":{"ha":824,"x_min":0,"x_max":0,"o":"m 415 738 b 149 635 304 738 216 703 b 50 358 83 566 50 474 b 149 81 50 242 83 149 b 415 -22 214 12 303 -22 b 677 81 525 -22 613 12 b 774 358 741 149 774 242 b 676 635 774 474 741 566 b 415 738 612 703 525 738 z m 413 613 b 560 545 475 613 525 590 b 614 360 596 500 614 438 b 560 170 614 279 596 216 b 414 101 525 124 476 101 b 264 169 350 101 300 124 b 210 358 228 215 210 278 b 264 544 210 437 228 499 b 413 613 300 590 350 613 z m 190 1015 b 256 869 196 951 218 903 b 408 819 294 836 344 819 b 567 869 474 819 527 836 b 639 1015 608 902 631 950 l 560 1015 b 511 937 552 981 536 955 b 419 910 486 919 456 910 b 271 1015 334 910 285 945 z "},"Ő":{"ha":1056,"x_min":0,"x_max":0,"o":"m 531 1013 b 181 866 383 1013 267 964 b 53 494 96 768 53 644 b 184 119 53 340 97 215 b 528 -24 272 24 386 -24 b 871 120 669 -24 783 24 b 1003 494 959 216 1003 341 b 872 869 1003 648 959 773 b 531 1013 784 965 670 1013 z m 528 867 b 747 766 619 867 692 833 b 828 496 801 699 828 609 b 747 224 828 383 801 292 b 531 122 692 156 620 122 b 309 224 437 122 363 156 b 228 497 255 291 228 382 b 310 766 228 609 255 699 b 528 867 364 833 437 867 z m 604 1088 l 718 1088 l 918 1286 l 729 1286 z m 328 1088 l 442 1088 l 642 1286 l 453 1286 z "},"ő":{"ha":824,"x_min":0,"x_max":0,"o":"m 415 738 b 149 635 304 738 216 703 b 50 358 83 566 50 474 b 149 81 50 242 83 149 b 415 -22 214 12 303 -22 b 677 81 525 -22 613 12 b 774 358 741 149 774 242 b 676 635 774 474 741 566 b 415 738 612 703 525 738 z m 413 613 b 560 545 475 613 525 590 b 614 360 596 500 614 438 b 560 170 614 279 596 216 b 414 101 525 124 476 101 b 264 169 350 101 300 124 b 210 358 228 215 210 278 b 264 544 210 437 228 499 b 413 613 300 590 350 613 z m 483 818 l 597 818 l 797 1017 l 608 1017 z m 207 818 l 321 818 l 521 1017 l 332 1017 z "},"Œ":{"ha":1518,"x_min":0,"x_max":0,"o":"m 932 842 l 1451 842 l 1451 992 l 774 992 l 774 913 b 524 1015 713 981 630 1015 b 183 863 381 1015 268 965 b 57 492 99 762 57 638 b 108 236 57 398 74 313 b 265 49 143 159 195 97 b 513 -24 336 0 418 -24 b 774 89 623 -24 710 14 l 774 0 l 1461 0 l 1461 150 l 932 150 l 932 440 l 1408 440 l 1408 582 l 932 582 z m 767 304 b 701 176 767 258 745 215 b 529 118 658 138 600 118 b 360 175 463 118 406 137 b 260 315 313 213 280 259 b 231 494 241 370 231 430 b 260 675 231 559 241 619 b 360 816 280 731 313 778 b 529 874 406 854 463 874 b 705 815 605 874 664 854 b 767 674 746 776 767 729 z "},"œ":{"ha":1260,"x_min":0,"x_max":0,"o":"m 390 613 b 528 538 452 613 498 588 b 574 364 559 489 574 431 b 531 180 574 291 559 229 b 390 106 503 130 456 106 b 249 180 325 106 278 130 b 207 364 221 229 207 291 b 252 538 207 431 222 489 b 390 613 282 588 328 613 z m 882 613 b 1068 422 999 613 1061 549 l 701 422 b 754 557 703 475 721 520 b 882 613 788 594 830 613 z m 1226 318 b 1209 478 1226 376 1221 430 b 1155 611 1197 527 1179 571 b 1051 704 1130 651 1096 682 b 894 738 1007 726 955 738 b 643 617 779 738 695 697 b 392 738 598 697 514 738 b 141 629 286 738 203 701 b 49 361 79 557 49 468 b 134 89 49 252 77 161 b 379 -19 191 17 273 -19 b 635 113 502 -19 588 25 b 892 -19 678 25 764 -19 b 1103 44 976 -19 1047 2 b 1218 228 1160 86 1199 147 l 1060 228 b 1000 138 1052 189 1032 159 b 889 106 968 116 931 106 b 750 165 829 106 782 125 b 701 318 718 205 701 256 z "},"Ŕ":{"ha":978,"x_min":0,"x_max":0,"o":"m 103 989 l 103 0 l 275 0 l 275 408 l 506 408 b 672 363 587 408 642 393 b 722 197 701 333 718 278 b 724 168 722 192 723 182 b 725 139 725 154 725 144 l 728 114 l 731 89 b 733 67 731 83 731 76 b 736 47 734 59 735 52 b 740 30 737 41 738 36 b 747 13 742 24 744 18 b 754 0 749 8 751 4 l 940 0 b 928 15 936 5 931 10 b 918 35 924 21 921 28 b 911 56 915 43 913 50 b 905 83 909 62 907 71 b 900 109 903 94 901 103 b 897 140 899 115 898 125 b 894 172 895 155 894 166 b 891 208 893 178 892 190 b 888 246 890 227 888 239 b 881 306 886 271 884 291 b 868 360 879 322 875 339 b 844 410 862 380 853 397 b 803 446 834 423 820 435 b 740 471 785 457 764 465 b 861 562 792 489 832 520 b 904 714 890 604 904 655 b 811 923 904 809 873 879 b 571 989 749 967 669 989 z m 275 847 l 526 847 b 603 842 556 847 582 845 b 667 821 625 838 647 831 b 715 774 688 811 704 795 b 732 696 726 753 732 727 b 713 611 732 662 726 633 b 659 563 701 589 683 573 b 589 543 635 553 612 547 b 504 538 566 539 538 538 l 275 538 z m 397 1088 l 513 1088 l 710 1286 l 522 1286 z "},"ŕ":{"ha":489,"x_min":0,"x_max":0,"o":"m 489 731 l 458 733 b 218 574 349 733 269 680 l 218 717 l 69 717 l 69 0 l 226 0 l 226 315 b 433 583 226 494 295 583 b 489 579 443 583 461 582 z m 114 818 l 229 818 l 426 1017 l 239 1017 z "},"Ŗ":{"ha":978,"x_min":0,"x_max":0,"o":"m 106 0 l 279 0 l 279 408 l 535 408 b 691 349 612 408 664 388 b 732 146 718 309 732 241 b 758 0 732 77 741 29 l 944 0 b 890 261 908 39 890 126 b 845 415 890 331 875 382 b 743 471 815 447 781 466 l 743 474 b 784 492 757 478 771 484 b 836 530 797 499 815 512 b 888 607 857 548 875 574 b 907 724 900 640 907 679 b 824 922 907 809 879 875 b 579 992 768 968 687 992 l 106 992 z m 279 850 l 561 850 b 687 818 614 850 656 839 b 733 699 718 797 733 757 b 564 540 733 593 677 540 l 279 540 z m 401 -207 l 485 -207 b 422 -257 480 -235 459 -251 l 422 -310 b 583 -193 530 -305 583 -266 l 583 -69 l 401 -69 z "},"ŗ":{"ha":489,"x_min":0,"x_max":0,"o":"m 83 0 l 242 0 l 242 342 b 297 522 242 419 260 479 b 436 588 334 566 381 588 b 504 581 456 588 479 585 l 504 733 b 444 738 474 736 454 738 b 312 688 398 738 354 721 b 235 579 270 655 244 619 l 232 579 l 232 718 l 83 718 z m 71 -207 l 154 -207 b 92 -257 150 -235 129 -251 l 92 -310 b 253 -193 199 -305 253 -266 l 253 -69 l 71 -69 z "},"Ř":{"ha":978,"x_min":0,"x_max":0,"o":"m 103 989 l 103 0 l 275 0 l 275 408 l 506 408 b 672 363 587 408 642 393 b 722 197 701 333 718 278 b 724 168 722 192 723 182 b 725 139 725 154 725 144 l 728 114 l 731 89 b 733 67 731 83 731 76 b 736 47 734 59 735 52 b 740 30 737 41 738 36 b 747 13 742 24 744 18 b 754 0 749 8 751 4 l 940 0 b 928 15 936 5 931 10 b 918 35 924 21 921 28 b 911 56 915 43 913 50 b 905 83 909 62 907 71 b 900 109 903 94 901 103 b 897 140 899 115 898 125 b 894 172 895 155 894 166 b 891 208 893 178 892 190 b 888 246 890 227 888 239 b 881 306 886 271 884 291 b 868 360 879 322 875 339 b 844 410 862 380 853 397 b 803 446 834 423 820 435 b 740 471 785 457 764 465 b 861 562 792 489 832 520 b 904 714 890 604 904 655 b 811 923 904 809 873 879 b 571 989 749 967 669 989 z m 275 847 l 526 847 b 603 842 556 847 582 845 b 667 821 625 838 647 831 b 715 774 688 811 704 795 b 732 696 726 753 732 727 b 713 611 732 662 726 633 b 659 563 701 589 683 573 b 589 543 635 553 612 547 b 504 538 566 539 538 538 l 275 538 z m 693 1286 l 564 1286 l 465 1163 l 368 1286 l 240 1286 l 389 1088 l 543 1088 z "},"ř":{"ha":489,"x_min":0,"x_max":0,"o":"m 489 731 l 458 733 b 218 574 349 733 269 680 l 218 717 l 69 717 l 69 0 l 226 0 l 226 315 b 433 583 226 494 295 583 b 489 579 443 583 461 582 z m 519 1017 l 390 1017 l 292 893 l 194 1017 l 67 1017 l 215 818 l 369 818 z "},"Ś":{"ha":900,"x_min":0,"x_max":0,"o":"m 815 697 b 708 932 812 803 776 881 b 446 1008 641 983 553 1008 b 180 930 335 1008 246 982 b 81 719 114 878 81 807 l 81 700 b 210 507 86 613 129 549 b 453 429 249 487 330 461 b 468 425 456 428 462 427 b 589 390 525 410 566 399 b 653 348 612 382 634 368 b 683 271 673 328 683 302 b 627 156 683 222 665 184 b 471 115 590 129 538 115 b 286 167 395 115 333 133 b 215 328 239 202 215 256 l 44 328 b 160 67 44 213 83 126 b 461 -22 237 7 337 -22 b 576 -12 501 -22 539 -19 b 683 22 613 -5 649 6 b 772 81 718 38 747 58 b 832 169 797 105 817 134 b 854 288 847 205 854 244 b 722 508 854 388 810 461 b 497 583 682 531 607 556 b 446 597 485 586 468 591 b 283 651 362 619 307 637 b 246 733 258 666 246 694 b 296 834 246 776 263 809 b 435 871 329 859 375 871 b 650 697 568 871 640 813 z m 383 1088 l 499 1088 l 696 1286 l 508 1286 z "},"ś":{"ha":721,"x_min":0,"x_max":0,"o":"m 651 508 b 567 681 651 585 623 643 b 351 738 511 719 439 738 b 136 680 260 738 188 718 b 58 521 84 641 58 588 b 157 364 58 448 91 395 b 351 306 185 350 250 331 b 360 303 354 305 357 304 b 367 301 363 303 365 302 l 375 300 b 433 285 399 294 418 290 b 478 267 447 281 462 275 b 512 239 494 259 505 250 b 522 199 519 228 522 214 b 480 123 522 167 508 142 b 368 94 452 104 414 94 b 194 229 261 94 203 139 l 43 229 b 131 43 47 148 76 86 b 365 -21 185 0 263 -21 b 593 43 461 -21 537 0 b 678 215 650 86 678 143 b 659 297 678 246 672 273 b 618 352 647 320 633 339 b 549 391 603 366 580 378 b 478 416 518 403 495 412 b 400 435 462 420 436 426 b 364 442 392 437 380 439 b 330 450 348 446 337 448 b 301 458 323 452 313 454 b 276 466 289 461 281 464 b 256 475 271 468 264 471 b 238 486 247 479 241 482 b 227 499 235 490 231 494 b 219 517 223 504 220 510 b 217 539 217 523 217 531 b 250 600 217 565 228 585 b 344 622 272 615 304 622 b 500 508 439 622 491 584 z m 267 818 l 382 818 l 579 1017 l 392 1017 z "},"Ŝ":{"ha":900,"x_min":0,"x_max":0,"o":"m 815 697 b 708 932 812 803 776 881 b 446 1008 641 983 553 1008 b 180 930 335 1008 246 982 b 81 719 114 878 81 807 l 81 700 b 210 507 86 613 129 549 b 453 429 249 487 330 461 b 468 425 456 428 462 427 b 589 390 525 410 566 399 b 653 348 612 382 634 368 b 683 271 673 328 683 302 b 627 156 683 222 665 184 b 471 115 590 129 538 115 b 286 167 395 115 333 133 b 215 328 239 202 215 256 l 44 328 b 160 67 44 213 83 126 b 461 -22 237 7 337 -22 b 576 -12 501 -22 539 -19 b 683 22 613 -5 649 6 b 772 81 718 38 747 58 b 832 169 797 105 817 134 b 854 288 847 205 854 244 b 722 508 854 388 810 461 b 497 583 682 531 607 556 b 446 597 485 586 468 591 b 283 651 362 619 307 637 b 246 733 258 666 246 694 b 296 834 246 776 263 809 b 435 871 329 859 375 871 b 650 697 568 871 640 813 z m 458 1213 l 557 1088 l 686 1088 l 536 1286 l 382 1286 l 233 1088 l 361 1088 z "},"ŝ":{"ha":721,"x_min":0,"x_max":0,"o":"m 651 508 b 567 681 651 585 623 643 b 351 738 511 719 439 738 b 136 680 260 738 188 718 b 58 521 84 641 58 588 b 157 364 58 448 91 395 b 351 306 185 350 250 331 b 360 303 354 305 357 304 b 367 301 363 303 365 302 l 375 300 b 433 285 399 294 418 290 b 478 267 447 281 462 275 b 512 239 494 259 505 250 b 522 199 519 228 522 214 b 480 123 522 167 508 142 b 368 94 452 104 414 94 b 194 229 261 94 203 139 l 43 229 b 131 43 47 148 76 86 b 365 -21 185 0 263 -21 b 593 43 461 -21 537 0 b 678 215 650 86 678 143 b 659 297 678 246 672 273 b 618 352 647 320 633 339 b 549 391 603 366 580 378 b 478 416 518 403 495 412 b 400 435 462 420 436 426 b 364 442 392 437 380 439 b 330 450 348 446 337 448 b 301 458 323 452 313 454 b 276 466 289 461 281 464 b 256 475 271 468 264 471 b 238 486 247 479 241 482 b 227 499 235 490 231 494 b 219 517 223 504 220 510 b 217 539 217 523 217 531 b 250 600 217 565 228 585 b 344 622 272 615 304 622 b 500 508 439 622 491 584 z m 369 943 l 468 818 l 597 818 l 447 1017 l 293 1017 l 144 818 l 272 818 z "},"Ş":{"ha":900,"x_min":0,"x_max":0,"o":"m 278 -278 b 421 -310 317 -299 364 -310 b 539 -278 466 -310 506 -299 b 589 -182 572 -256 589 -225 b 553 -105 589 -149 577 -123 b 471 -78 529 -87 501 -78 b 425 -83 450 -78 435 -80 l 424 -82 l 468 -24 b 604 -6 516 -22 562 -16 b 785 94 678 11 738 44 b 854 288 831 144 854 209 b 804 441 854 343 838 394 b 661 540 771 488 723 521 b 572 565 646 545 616 553 b 440 600 527 577 483 589 b 375 617 398 611 376 617 b 257 744 296 640 257 682 b 312 843 257 790 275 823 b 439 874 348 863 391 874 b 653 699 572 874 644 815 l 826 699 b 717 931 826 798 790 875 b 446 1015 645 987 554 1015 b 191 940 348 1015 263 990 b 83 724 119 889 83 817 b 303 472 83 594 156 510 b 419 442 334 464 373 454 b 527 414 465 431 501 421 b 599 390 553 406 577 399 b 681 268 653 370 681 329 b 629 162 681 226 663 191 b 471 118 595 133 542 118 b 289 170 396 118 335 135 b 219 331 243 205 219 258 l 46 331 b 116 113 47 242 70 169 b 300 -3 162 57 223 19 b 404 -21 331 -12 366 -18 l 329 -122 l 360 -149 b 414 -135 375 -139 393 -135 b 459 -149 431 -135 447 -139 b 478 -187 472 -158 478 -171 b 393 -244 478 -225 450 -244 b 303 -222 365 -244 335 -237 z "},"ş":{"ha":721,"x_min":0,"x_max":0,"o":"m 192 -278 b 335 -310 231 -299 278 -310 b 453 -278 380 -310 419 -299 b 503 -182 486 -256 503 -225 b 467 -105 503 -149 491 -123 b 385 -78 443 -87 415 -78 b 339 -83 364 -78 349 -80 l 338 -82 l 386 -18 b 475 -7 421 -16 451 -12 b 625 69 536 7 586 32 b 683 214 664 106 683 155 b 665 302 683 248 677 278 b 610 363 652 327 634 347 b 538 399 586 378 562 391 b 451 424 515 408 486 416 l 403 433 b 353 444 380 438 363 441 b 312 455 344 446 330 450 b 272 469 294 460 281 465 b 244 486 264 474 255 480 b 224 509 234 493 227 500 b 218 539 220 518 218 528 b 242 585 218 558 226 574 b 293 608 259 597 275 604 b 349 613 311 611 329 613 b 494 517 433 613 481 581 l 660 517 b 564 684 651 593 619 648 b 360 738 508 720 440 738 b 257 727 325 738 290 734 b 161 694 224 720 192 709 b 88 630 131 680 106 658 b 60 532 69 602 60 569 b 78 441 60 497 66 466 b 133 380 91 416 109 395 b 204 344 156 365 180 353 b 290 319 228 335 257 327 b 339 309 301 317 318 313 b 388 299 360 305 376 301 b 429 288 399 296 413 292 b 468 274 446 283 459 278 b 497 256 477 269 487 263 b 517 232 506 249 513 241 b 525 200 522 223 524 212 b 511 151 526 181 521 164 b 469 122 501 137 487 128 b 417 109 451 116 434 111 b 365 106 401 107 384 106 b 203 231 265 106 211 147 l 44 231 b 97 79 45 169 63 119 b 236 -4 130 39 177 12 b 321 -18 259 -11 288 -15 l 243 -122 l 274 -149 b 328 -135 288 -139 306 -135 b 373 -149 345 -135 360 -139 b 392 -187 385 -158 392 -171 b 307 -244 392 -225 363 -244 b 217 -222 279 -244 249 -237 z "},"Š":{"ha":900,"x_min":0,"x_max":0,"o":"m 815 697 b 708 932 812 803 776 881 b 446 1008 641 983 553 1008 b 180 930 335 1008 246 982 b 81 719 114 878 81 807 l 81 700 b 210 507 86 613 129 549 b 453 429 249 487 330 461 b 468 425 456 428 462 427 b 589 390 525 410 566 399 b 653 348 612 382 634 368 b 683 271 673 328 683 302 b 627 156 683 222 665 184 b 471 115 590 129 538 115 b 286 167 395 115 333 133 b 215 328 239 202 215 256 l 44 328 b 160 67 44 213 83 126 b 461 -22 237 7 337 -22 b 576 -12 501 -22 539 -19 b 683 22 613 -5 649 6 b 772 81 718 38 747 58 b 832 169 797 105 817 134 b 854 288 847 205 854 244 b 722 508 854 388 810 461 b 497 583 682 531 607 556 b 446 597 485 586 468 591 b 283 651 362 619 307 637 b 246 733 258 666 246 694 b 296 834 246 776 263 809 b 435 871 329 859 375 871 b 650 697 568 871 640 813 z m 682 1286 l 553 1286 l 454 1163 l 357 1286 l 229 1286 l 378 1088 l 532 1088 z "},"š":{"ha":721,"x_min":0,"x_max":0,"o":"m 651 508 b 567 681 651 585 623 643 b 351 738 511 719 439 738 b 136 680 260 738 188 718 b 58 521 84 641 58 588 b 157 364 58 448 91 395 b 351 306 185 350 250 331 b 360 303 354 305 357 304 b 367 301 363 303 365 302 l 375 300 b 433 285 399 294 418 290 b 478 267 447 281 462 275 b 512 239 494 259 505 250 b 522 199 519 228 522 214 b 480 123 522 167 508 142 b 368 94 452 104 414 94 b 194 229 261 94 203 139 l 43 229 b 131 43 47 148 76 86 b 365 -21 185 0 263 -21 b 593 43 461 -21 537 0 b 678 215 650 86 678 143 b 659 297 678 246 672 273 b 618 352 647 320 633 339 b 549 391 603 366 580 378 b 478 416 518 403 495 412 b 400 435 462 420 436 426 b 364 442 392 437 380 439 b 330 450 348 446 337 448 b 301 458 323 452 313 454 b 276 466 289 461 281 464 b 256 475 271 468 264 471 b 238 486 247 479 241 482 b 227 499 235 490 231 494 b 219 517 223 504 220 510 b 217 539 217 523 217 531 b 250 600 217 565 228 585 b 344 622 272 615 304 622 b 500 508 439 622 491 584 z m 593 1017 l 464 1017 l 365 893 l 268 1017 l 140 1017 l 289 818 l 443 818 z "},"Ţ":{"ha":824,"x_min":0,"x_max":0,"o":"m 11 842 l 325 842 l 325 0 l 499 0 l 499 842 l 814 842 l 814 992 l 11 992 z m 319 -207 l 403 -207 b 340 -257 398 -235 377 -251 l 340 -310 b 501 -193 448 -305 501 -266 l 501 -69 l 319 -69 z "},"ţ":{"ha":463,"x_min":0,"x_max":0,"o":"m 11 600 l 131 600 l 131 176 b 173 35 132 111 147 64 b 329 -7 199 7 251 -7 b 432 1 351 -7 386 -4 l 432 124 b 365 118 417 120 395 118 b 302 140 332 118 311 125 b 289 217 293 154 289 180 l 289 600 l 432 600 l 432 718 l 289 718 l 289 933 l 131 933 l 131 718 l 11 718 z m 193 -207 l 276 -207 b 214 -257 272 -235 251 -251 l 214 -310 b 375 -193 321 -305 375 -266 l 375 -69 l 193 -69 z "},"Ť":{"ha":824,"x_min":0,"x_max":0,"o":"m 814 989 l 10 989 l 10 839 l 325 839 l 325 0 l 499 0 l 499 839 l 814 839 z m 640 1286 l 511 1286 l 413 1163 l 315 1286 l 188 1286 l 336 1088 l 490 1088 z "},"ť":{"ha":543,"x_min":0,"x_max":0,"o":"m 417 793 l 522 793 l 635 992 l 461 992 z m 11 600 l 131 600 l 131 176 b 173 35 132 111 147 64 b 329 -7 199 7 251 -7 b 432 1 351 -7 386 -4 l 432 124 b 365 118 417 120 395 118 b 302 140 332 118 311 125 b 289 217 293 154 289 180 l 289 600 l 432 600 l 432 718 l 289 718 l 289 933 l 131 933 l 131 718 l 11 718 z "},"Ŧ":{"ha":824,"x_min":0,"x_max":0,"o":"m 11 842 l 325 842 l 325 650 l 104 650 l 104 560 l 325 560 l 325 0 l 499 0 l 499 560 l 726 560 l 726 650 l 499 650 l 499 842 l 814 842 l 814 992 l 11 992 z "},"ŧ":{"ha":463,"x_min":0,"x_max":0,"o":"m 11 600 l 131 600 l 131 481 l 0 481 l 0 390 l 131 390 l 131 176 b 173 35 132 111 147 64 b 329 -7 199 7 251 -7 b 432 1 351 -7 386 -4 l 432 124 b 365 118 417 120 395 118 b 302 140 332 118 311 125 b 289 217 293 154 289 180 l 289 390 l 444 390 l 444 481 l 289 481 l 289 600 l 432 600 l 432 718 l 289 718 l 289 933 l 131 933 l 131 718 l 11 718 z "},"Ũ":{"ha":1003,"x_min":0,"x_max":0,"o":"m 907 989 l 733 989 l 733 406 b 725 290 733 359 731 321 b 694 203 719 259 709 230 b 626 143 680 176 657 156 b 507 124 595 130 555 124 b 269 351 349 124 269 200 l 269 989 l 96 989 l 96 386 b 195 81 96 249 129 147 b 504 -19 261 14 364 -19 b 907 383 773 -19 907 115 z m 672 1269 b 603 1208 662 1229 639 1208 b 517 1233 584 1208 556 1217 b 404 1261 472 1252 435 1261 b 308 1213 365 1261 333 1245 b 260 1104 282 1181 266 1145 l 339 1104 b 399 1161 346 1142 366 1161 b 493 1136 422 1161 453 1153 b 596 1110 533 1119 567 1110 b 704 1157 642 1110 678 1125 b 750 1269 726 1181 742 1219 z "},"ũ":{"ha":797,"x_min":0,"x_max":0,"o":"m 713 717 l 554 717 l 554 338 b 513 177 554 273 540 219 b 382 114 485 135 441 114 b 316 125 356 114 334 118 b 274 151 298 132 284 141 b 252 195 265 162 257 176 b 243 247 247 214 244 231 b 242 307 242 262 242 282 l 242 717 l 83 717 l 83 242 b 147 48 83 157 104 93 b 328 -19 189 3 249 -19 b 564 107 425 -19 504 23 l 564 0 l 713 0 z m 568 1000 b 499 939 558 959 535 939 b 413 964 480 939 451 947 b 300 992 368 982 331 992 b 203 944 261 992 229 976 b 156 835 178 912 162 875 l 235 835 b 294 892 242 873 262 892 b 389 867 318 892 349 883 b 492 840 429 849 463 840 b 600 888 538 840 574 856 b 646 1000 622 912 638 949 z "},"Ū":{"ha":1003,"x_min":0,"x_max":0,"o":"m 907 989 l 733 989 l 733 406 b 725 290 733 359 731 321 b 694 203 719 259 709 230 b 626 143 680 176 657 156 b 507 124 595 130 555 124 b 269 351 349 124 269 200 l 269 989 l 96 989 l 96 386 b 195 81 96 249 129 147 b 504 -19 261 14 364 -19 b 907 383 773 -19 907 115 z m 703 1136 l 703 1226 l 303 1226 l 303 1136 z "},"ū":{"ha":797,"x_min":0,"x_max":0,"o":"m 713 717 l 554 717 l 554 338 b 513 177 554 273 540 219 b 382 114 485 135 441 114 b 316 125 356 114 334 118 b 274 151 298 132 284 141 b 252 195 265 162 257 176 b 243 247 247 214 244 231 b 242 307 242 262 242 282 l 242 717 l 83 717 l 83 242 b 147 48 83 157 104 93 b 328 -19 189 3 249 -19 b 564 107 425 -19 504 23 l 564 0 l 713 0 z m 606 867 l 606 957 l 206 957 l 206 867 z "},"Ŭ":{"ha":1003,"x_min":0,"x_max":0,"o":"m 907 989 l 733 989 l 733 406 b 725 290 733 359 731 321 b 694 203 719 259 709 230 b 626 143 680 176 657 156 b 507 124 595 130 555 124 b 269 351 349 124 269 200 l 269 989 l 96 989 l 96 386 b 195 81 96 249 129 147 b 504 -19 261 14 364 -19 b 907 383 773 -19 907 115 z m 279 1285 b 344 1139 285 1221 306 1172 b 497 1089 382 1106 433 1089 b 656 1138 563 1089 616 1105 b 728 1285 697 1171 720 1220 l 649 1285 b 600 1206 641 1250 625 1224 b 508 1179 575 1188 544 1179 b 360 1285 423 1179 374 1214 z "},"ŭ":{"ha":797,"x_min":0,"x_max":0,"o":"m 713 717 l 554 717 l 554 338 b 513 177 554 273 540 219 b 382 114 485 135 441 114 b 316 125 356 114 334 118 b 274 151 298 132 284 141 b 252 195 265 162 257 176 b 243 247 247 214 244 231 b 242 307 242 262 242 282 l 242 717 l 83 717 l 83 242 b 147 48 83 157 104 93 b 328 -19 189 3 249 -19 b 564 107 425 -19 504 23 l 564 0 l 713 0 z m 182 1015 b 247 869 188 951 209 903 b 400 819 285 836 336 819 b 559 869 466 819 519 836 b 631 1015 599 902 623 950 l 551 1015 b 503 937 544 981 528 955 b 411 910 478 919 447 910 b 263 1015 326 910 276 945 z "},"Ů":{"ha":1003,"x_min":0,"x_max":0,"o":"m 907 989 l 733 989 l 733 406 b 725 290 733 359 731 321 b 694 203 719 259 709 230 b 626 143 680 176 657 156 b 507 124 595 130 555 124 b 269 351 349 124 269 200 l 269 989 l 96 989 l 96 386 b 195 81 96 249 129 147 b 504 -19 261 14 364 -19 b 907 383 773 -19 907 115 z m 421 1186 b 445 1247 421 1211 429 1231 b 504 1271 461 1263 481 1271 b 564 1247 528 1271 548 1263 b 588 1186 580 1231 588 1211 b 564 1126 588 1162 580 1142 b 504 1101 548 1109 528 1101 b 445 1126 481 1101 461 1109 b 421 1186 429 1142 421 1162 z m 504 1043 b 606 1083 544 1043 578 1056 b 649 1186 634 1110 649 1144 b 606 1289 649 1228 634 1262 b 504 1329 578 1316 544 1329 b 402 1289 464 1329 430 1316 b 360 1186 374 1262 360 1228 b 401 1083 360 1144 374 1110 b 504 1043 429 1056 463 1043 z "},"ů":{"ha":797,"x_min":0,"x_max":0,"o":"m 713 717 l 554 717 l 554 338 b 513 177 554 273 540 219 b 382 114 485 135 441 114 b 316 125 356 114 334 118 b 274 151 298 132 284 141 b 252 195 265 162 257 176 b 243 247 247 214 244 231 b 242 307 242 262 242 282 l 242 717 l 83 717 l 83 242 b 147 48 83 157 104 93 b 328 -19 189 3 249 -19 b 564 107 425 -19 504 23 l 564 0 l 713 0 z m 322 936 b 347 997 322 961 330 981 b 406 1021 363 1013 382 1021 b 465 997 430 1021 450 1013 b 489 936 481 981 489 961 b 465 876 489 912 481 892 b 406 851 450 859 430 851 b 347 876 382 851 363 859 b 322 936 330 892 322 912 z m 406 793 b 508 833 445 793 479 806 b 550 936 536 860 550 894 b 508 1039 550 978 536 1012 b 406 1079 479 1066 445 1079 b 303 1039 366 1079 332 1066 b 261 936 275 1012 261 978 b 303 833 261 894 275 860 b 406 793 331 806 365 793 z "},"Ű":{"ha":1003,"x_min":0,"x_max":0,"o":"m 907 989 l 733 989 l 733 406 b 725 290 733 359 731 321 b 694 203 719 259 709 230 b 626 143 680 176 657 156 b 507 124 595 130 555 124 b 269 351 349 124 269 200 l 269 989 l 96 989 l 96 386 b 195 81 96 249 129 147 b 504 -19 261 14 364 -19 b 907 383 773 -19 907 115 z m 582 1088 l 696 1088 l 896 1286 l 707 1286 z m 306 1088 l 419 1088 l 619 1286 l 431 1286 z "},"ű":{"ha":797,"x_min":0,"x_max":0,"o":"m 713 717 l 554 717 l 554 338 b 513 177 554 273 540 219 b 382 114 485 135 441 114 b 316 125 356 114 334 118 b 274 151 298 132 284 141 b 252 195 265 162 257 176 b 243 247 247 214 244 231 b 242 307 242 262 242 282 l 242 717 l 83 717 l 83 242 b 147 48 83 157 104 93 b 328 -19 189 3 249 -19 b 564 107 425 -19 504 23 l 564 0 l 713 0 z m 478 818 l 592 818 l 792 1017 l 603 1017 z m 201 818 l 315 818 l 515 1017 l 326 1017 z "},"Ų":{"ha":1003,"x_min":0,"x_max":0,"o":"m 94 357 b 158 126 94 263 116 187 b 335 0 200 66 259 24 b 471 -22 380 -14 425 -21 b 418 -64 448 -39 430 -53 b 350 -185 373 -105 350 -145 b 367 -254 350 -212 356 -236 b 412 -292 379 -273 394 -285 b 456 -306 430 -299 445 -304 b 490 -310 468 -309 479 -310 b 636 -206 569 -310 618 -275 l 579 -193 b 507 -240 560 -225 536 -240 b 469 -224 492 -240 479 -235 b 453 -179 458 -212 453 -198 b 518 -54 453 -139 475 -98 b 556 -21 529 -44 542 -33 b 668 0 596 -18 634 -11 b 845 126 744 24 803 66 b 908 357 887 187 908 263 l 908 992 l 735 992 l 735 414 b 732 332 735 381 734 353 b 717 256 730 311 725 285 b 681 188 708 227 696 204 b 612 144 665 171 642 156 b 501 126 582 132 545 126 b 391 144 458 126 421 132 b 322 188 361 156 338 171 b 286 256 306 204 294 227 b 271 332 278 285 273 311 b 268 414 269 353 268 381 l 268 992 l 94 992 z "},"ų":{"ha":797,"x_min":0,"x_max":0,"o":"m 714 0 l 714 718 l 556 718 l 556 301 b 379 106 556 171 497 106 b 276 146 334 106 300 119 b 242 278 253 173 242 217 l 242 718 l 83 718 l 83 263 b 147 50 83 167 105 96 b 351 -19 190 4 258 -19 b 469 14 391 -19 430 -8 b 556 100 507 36 536 65 l 558 100 l 558 0 b 408 -185 458 -63 408 -125 b 425 -254 408 -212 414 -236 b 467 -292 436 -273 450 -285 b 509 -306 483 -299 497 -304 b 542 -310 521 -309 531 -310 b 627 -285 572 -310 601 -302 b 679 -206 653 -269 671 -243 l 625 -193 b 557 -240 606 -225 584 -240 b 521 -224 543 -240 531 -235 b 506 -179 511 -212 506 -198 b 531 -99 506 -151 514 -125 b 629 0 548 -74 581 -41 z "},"Ŵ":{"ha":1311,"x_min":0,"x_max":0,"o":"m 11 989 l 272 0 l 451 0 l 656 760 l 856 0 l 1032 0 l 1306 989 l 1129 989 l 943 236 l 747 989 l 571 989 l 368 236 l 188 989 z m 656 1213 l 754 1088 l 883 1088 l 733 1286 l 579 1286 l 431 1088 l 558 1088 z "},"ŵ":{"ha":1081,"x_min":0,"x_max":0,"o":"m 17 717 l 239 0 l 406 0 l 539 532 l 674 0 l 836 0 l 1063 717 l 901 717 l 753 179 l 621 717 l 461 717 l 326 179 l 185 717 z m 547 943 l 646 818 l 775 818 l 625 1017 l 471 1017 l 322 818 l 450 818 z "},"Ŷ":{"ha":900,"x_min":0,"x_max":0,"o":"m 910 989 l 715 989 l 456 551 l 193 989 l -7 989 l 367 393 l 367 0 l 538 0 l 538 393 z m 458 1213 l 557 1088 l 686 1088 l 536 1286 l 382 1286 l 233 1088 l 361 1088 z "},"ŷ":{"ha":721,"x_min":0,"x_max":0,"o":"m 715 717 l 550 717 l 369 189 l 178 717 l 4 717 l 279 21 b 271 -7 278 17 275 8 b 260 -40 266 -22 263 -33 b 248 -69 257 -47 253 -56 b 232 -98 243 -81 238 -91 b 213 -120 226 -105 220 -112 b 188 -137 205 -128 197 -134 b 157 -142 178 -140 168 -142 b 74 -132 135 -142 107 -138 l 74 -265 b 183 -274 117 -271 154 -274 b 233 -269 201 -274 217 -272 b 274 -258 248 -266 262 -262 b 309 -237 286 -253 297 -247 b 338 -212 321 -227 330 -219 b 364 -181 346 -206 355 -195 l 385 -147 b 403 -108 389 -140 396 -127 b 419 -69 411 -90 417 -77 b 435 -27 422 -62 427 -48 b 450 14 442 -6 447 7 z m 365 943 l 464 818 l 593 818 l 443 1017 l 289 1017 l 140 818 l 268 818 z "},"Ÿ":{"ha":900,"x_min":0,"x_max":0,"o":"m 910 989 l 715 989 l 456 551 l 193 989 l -7 989 l 367 393 l 367 0 l 538 0 l 538 393 z m 417 1106 l 417 1256 l 258 1256 l 258 1106 z m 497 1256 l 497 1106 l 656 1106 l 656 1256 z "},"Ź":{"ha":875,"x_min":0,"x_max":0,"o":"m 822 989 l 68 989 l 68 839 l 599 839 l 26 143 l 26 0 l 839 0 l 839 150 l 246 150 l 822 851 z m 375 1088 l 490 1088 l 688 1286 l 500 1286 z "},"ź":{"ha":694,"x_min":0,"x_max":0,"o":"m 642 717 l 58 717 l 58 592 l 431 592 l 31 121 l 31 0 l 663 0 l 663 128 l 236 128 l 642 606 z m 285 818 l 400 818 l 597 1017 l 410 1017 z "},"Ż":{"ha":875,"x_min":0,"x_max":0,"o":"m 822 989 l 68 989 l 68 839 l 599 839 l 26 143 l 26 0 l 839 0 l 839 150 l 246 150 l 822 851 z m 528 1106 l 528 1256 l 369 1256 l 369 1106 z "},"ż":{"ha":694,"x_min":0,"x_max":0,"o":"m 642 717 l 58 717 l 58 592 l 431 592 l 31 121 l 31 0 l 663 0 l 663 128 l 236 128 l 642 606 z m 429 836 l 429 986 l 271 986 l 271 836 z "},"Ž":{"ha":875,"x_min":0,"x_max":0,"o":"m 822 989 l 68 989 l 68 839 l 599 839 l 26 143 l 26 0 l 839 0 l 839 150 l 246 150 l 822 851 z m 675 1286 l 546 1286 l 447 1163 l 350 1286 l 222 1286 l 371 1088 l 525 1088 z "},"ž":{"ha":694,"x_min":0,"x_max":0,"o":"m 642 717 l 58 717 l 58 592 l 431 592 l 31 121 l 31 0 l 663 0 l 663 128 l 236 128 l 642 606 z m 578 1017 l 449 1017 l 350 893 l 253 1017 l 125 1017 l 274 818 l 428 818 z "},"ſ":{"ha":438,"x_min":0,"x_max":0,"o":"m 13 718 l 13 600 l 131 600 l 131 0 l 289 0 l 289 792 b 312 851 289 821 297 841 b 367 867 327 862 345 867 b 408 865 382 867 396 866 b 440 858 419 863 430 861 l 440 982 b 329 992 418 988 381 992 b 255 984 303 992 278 989 b 192 953 231 979 210 969 b 147 888 173 938 158 916 b 131 778 136 860 131 823 l 131 718 z "},"Ə":{"ha":1056,"x_min":0,"x_max":0,"o":"m 528 1015 b 373 991 472 1015 421 1007 b 245 924 325 975 283 952 b 148 822 208 895 175 861 b 83 692 121 782 99 739 l 263 692 b 360 822 284 744 316 788 b 528 874 403 856 459 874 b 651 848 575 874 616 865 b 740 779 685 831 715 808 b 797 680 764 750 783 717 b 825 561 811 642 820 603 l 56 561 b 53 529 55 551 54 540 b 53 496 53 518 53 507 b 85 294 53 425 64 357 b 179 129 107 231 138 176 b 328 17 220 82 270 45 b 528 -24 387 -10 454 -24 b 727 17 602 -24 668 -10 b 876 129 786 45 836 82 b 970 294 917 176 948 231 b 1003 496 992 357 1003 425 b 970 696 1003 566 992 633 b 876 861 948 759 917 814 b 727 974 836 908 786 946 b 528 1015 668 1001 602 1015 z m 528 118 b 408 142 482 118 443 126 b 321 206 374 157 345 179 b 263 299 297 232 277 263 b 232 411 248 334 238 371 l 822 411 b 792 299 817 371 806 334 b 733 206 777 263 757 232 b 647 142 709 179 680 157 b 528 118 613 126 573 118 z "},"ƒ":{"ha":772,"x_min":0,"x_max":0,"o":"m 611 608 l 469 608 l 497 746 b 538 842 507 793 521 825 b 617 868 554 859 581 868 b 672 865 634 868 653 867 l 696 989 b 606 993 661 992 631 993 b 422 939 524 993 463 975 b 338 758 381 903 353 843 l 310 608 l 182 608 l 161 497 l 289 497 l 203 50 b 197 19 202 46 200 36 b 191 -11 194 3 192 -7 b 183 -36 190 -15 187 -23 b 173 -61 180 -49 176 -57 b 158 -79 170 -65 165 -71 b 138 -96 152 -87 145 -93 b 111 -104 131 -99 122 -101 b 75 -108 100 -107 88 -108 b 21 -107 54 -108 36 -108 l 0 -231 b 82 -235 42 -233 69 -235 b 281 -174 178 -235 245 -215 b 364 39 318 -134 345 -63 l 450 497 l 590 497 z "},"Ơ":{"ha":1186,"x_min":0,"x_max":0,"o":"m 1136 982 l 1017 914 l 1063 836 b 1001 808 1038 823 1018 814 b 956 799 984 802 969 799 b 914 811 937 799 923 803 b 756 960 873 873 820 923 b 528 1015 691 997 615 1015 b 328 974 454 1015 387 1001 b 179 861 270 946 220 908 b 85 696 138 814 107 759 b 53 496 64 633 53 566 b 85 294 53 425 64 357 b 179 129 107 231 138 176 b 328 17 220 82 270 45 b 528 -24 387 -10 454 -24 b 727 17 602 -24 668 -10 b 876 129 786 45 836 82 b 970 294 917 176 948 231 b 1003 496 992 357 1003 425 b 960 721 1003 575 988 650 b 972 719 964 720 969 719 l 985 719 b 1051 732 1006 719 1028 724 b 1119 764 1075 740 1097 751 l 1226 825 z m 528 874 b 665 842 581 874 626 863 b 758 756 703 820 734 792 b 812 635 782 721 800 680 b 829 496 823 589 829 543 b 812 357 829 449 823 402 b 758 235 800 312 782 271 b 665 150 734 200 703 171 b 528 118 626 129 581 118 b 391 150 475 118 429 129 b 297 235 353 171 321 200 b 244 357 273 271 255 312 b 226 496 232 402 226 449 b 244 635 226 543 232 589 b 297 756 255 680 273 721 b 391 842 321 792 353 820 b 528 874 429 863 475 874 z "},"ơ":{"ha":951,"x_min":0,"x_max":0,"o":"m 901 774 l 782 706 l 828 628 b 765 599 804 615 783 605 b 710 590 747 593 728 590 b 590 699 680 637 640 673 b 413 738 539 725 480 738 b 259 709 355 738 304 728 b 145 631 214 690 176 664 b 74 511 114 597 91 557 b 50 360 58 465 50 414 b 74 207 50 304 58 253 b 145 88 91 161 114 121 b 259 9 176 54 214 28 b 413 -19 304 -10 355 -19 b 566 9 470 -19 521 -10 b 680 88 611 28 649 54 b 751 207 711 121 734 161 b 775 360 767 253 775 304 b 750 511 775 414 767 465 b 817 524 771 511 794 515 b 885 556 840 532 863 543 l 992 617 z m 413 106 b 321 128 377 106 347 113 b 257 186 295 143 274 162 b 220 267 240 210 228 237 b 208 360 212 297 208 328 b 220 451 208 390 212 421 b 257 533 228 482 240 509 b 321 590 274 556 295 575 b 413 613 347 605 377 613 b 504 590 448 613 478 605 b 568 533 530 575 551 556 b 605 451 585 509 597 482 b 617 360 613 421 617 390 b 605 267 617 328 613 297 b 568 186 597 237 585 210 b 504 128 551 162 530 143 b 413 106 478 113 448 106 z "},"Ƣ":{"ha":1188,"x_min":0,"x_max":0,"o":"m 1088 -265 l 1088 992 l 490 992 b 292 953 413 992 347 979 b 157 847 237 927 192 891 b 78 689 122 802 96 749 b 53 496 61 629 53 564 b 78 303 53 427 61 363 b 157 145 96 243 122 190 b 292 39 192 100 237 65 b 490 0 347 13 413 0 l 781 0 l 781 850 l 914 850 l 914 -265 z m 607 850 l 607 142 l 557 142 b 390 169 488 142 433 151 b 290 244 348 187 314 212 b 240 356 265 276 248 313 b 226 496 231 399 226 446 b 240 635 226 546 231 592 b 290 748 248 678 265 716 b 390 823 314 780 348 805 b 557 850 433 841 488 850 z "},"ƣ":{"ha":974,"x_min":0,"x_max":0,"o":"m 401 0 l 628 0 l 628 615 l 726 615 l 726 -265 l 885 -265 l 885 718 l 401 718 b 243 690 340 718 288 709 b 134 613 199 671 162 645 b 71 499 106 580 85 542 b 50 358 57 455 50 408 b 71 219 50 309 57 263 b 134 106 85 176 106 138 b 243 28 162 73 199 47 b 401 0 288 9 340 0 z m 210 358 b 220 460 210 394 213 428 b 258 542 227 491 240 519 b 333 596 276 565 301 583 b 457 615 365 609 406 615 l 469 615 l 469 103 l 457 103 b 333 122 406 103 365 109 b 258 176 301 135 276 153 b 220 258 240 200 227 227 b 210 358 213 289 210 322 z "},"Ư":{"ha":1147,"x_min":0,"x_max":0,"o":"m 1097 982 l 978 914 l 1024 836 b 960 808 1000 823 978 814 b 908 799 942 802 925 799 l 908 992 l 735 992 l 735 414 b 730 313 735 381 733 347 b 702 220 727 278 717 247 b 633 153 687 193 664 170 b 501 126 602 135 558 126 b 370 153 445 126 401 135 b 301 220 339 170 316 193 b 273 313 285 247 276 278 b 268 414 270 347 268 381 l 268 992 l 94 992 l 94 357 b 124 190 94 293 104 238 b 206 72 143 143 171 103 b 335 0 242 40 285 16 b 501 -24 385 -16 440 -24 b 668 0 563 -24 618 -16 b 797 72 718 16 761 40 b 879 190 832 103 860 143 b 908 357 899 238 908 293 l 908 724 b 944 719 919 721 931 719 b 1015 733 969 719 992 724 b 1081 764 1037 741 1059 752 l 1188 825 z "},"ư":{"ha":942,"x_min":0,"x_max":0,"o":"m 892 774 l 772 706 l 818 628 b 758 599 795 615 775 605 b 714 590 742 593 727 590 l 714 718 l 556 718 l 556 301 b 547 224 556 274 553 248 b 517 162 541 200 531 179 b 463 121 503 145 485 131 b 379 106 440 111 413 106 b 278 144 336 106 302 119 b 242 278 254 170 242 215 l 242 718 l 83 718 l 83 263 b 147 51 83 168 104 97 b 351 -19 189 4 257 -19 b 469 13 391 -19 430 -9 b 556 100 507 35 536 64 l 558 100 l 558 0 l 714 0 l 714 514 b 727 512 719 513 723 512 b 740 511 731 511 736 511 b 807 524 762 511 784 515 b 875 556 830 532 853 543 l 982 617 z "},"Ƶ":{"ha":875,"x_min":0,"x_max":0,"o":"m 90 569 l 90 419 l 261 419 l 32 142 l 32 0 l 844 0 l 844 150 l 253 150 l 472 419 l 757 419 l 757 569 l 594 569 l 831 860 l 831 992 l 76 992 l 76 842 l 610 842 l 385 569 z "},"ƶ":{"ha":694,"x_min":0,"x_max":0,"o":"m 71 431 l 71 303 l 188 303 l 31 111 l 31 0 l 663 0 l 663 125 l 231 125 l 382 303 l 618 303 l 618 431 l 490 431 l 642 607 l 642 718 l 58 718 l 58 593 l 428 593 l 293 431 z "},"ǀ":{"ha":308,"x_min":0,"x_max":0,"o":"m 83 1092 l 83 -297 l 225 -297 l 225 1092 z "},"ǁ":{"ha":617,"x_min":0,"x_max":0,"o":"m 83 1092 l 83 -297 l 225 -297 l 225 1092 z m 392 1092 l 392 -297 l 533 -297 l 533 1092 z "},"ǃ":{"ha":386,"x_min":0,"x_max":0,"o":"m 100 174 l 100 0 l 286 0 l 286 174 z m 107 992 l 107 706 l 153 276 l 235 276 l 281 706 l 281 992 z "},"Ǆ":{"ha":1878,"x_min":0,"x_max":0,"o":"m 106 992 l 106 0 l 517 0 b 714 39 593 0 658 13 b 850 145 769 65 815 100 b 928 303 885 190 911 243 b 954 496 946 363 954 427 b 928 689 954 564 946 629 b 850 847 911 749 885 802 b 714 953 815 891 769 927 b 517 992 658 979 593 992 z m 279 142 l 279 850 l 450 850 b 616 823 518 850 573 841 b 717 748 659 805 693 780 b 767 635 742 716 759 678 b 781 496 776 592 781 546 b 767 356 781 446 776 399 b 717 244 759 313 742 276 b 616 169 693 212 659 187 b 450 142 573 151 518 142 z m 1079 992 l 1079 842 l 1613 842 l 1035 142 l 1035 0 l 1847 0 l 1847 150 l 1256 150 l 1833 860 l 1833 992 z m 1517 1061 l 1667 1260 l 1538 1260 l 1439 1136 l 1342 1260 l 1214 1260 l 1363 1061 z "},"ǅ":{"ha":1697,"x_min":0,"x_max":0,"o":"m 106 992 l 106 0 l 517 0 b 714 39 593 0 658 13 b 850 145 769 65 815 100 b 928 303 885 190 911 243 b 954 496 946 363 954 427 b 928 689 954 564 946 629 b 850 847 911 749 885 802 b 714 953 815 891 769 927 b 517 992 658 979 593 992 z m 279 142 l 279 850 l 450 850 b 616 823 518 850 573 841 b 717 748 659 805 693 780 b 767 635 742 716 759 678 b 781 496 776 592 781 546 b 767 356 781 446 776 399 b 717 244 759 313 742 276 b 616 169 693 212 659 187 b 450 142 573 151 518 142 z m 1061 718 l 1061 593 l 1431 593 l 1033 111 l 1033 0 l 1665 0 l 1665 125 l 1233 125 l 1644 607 l 1644 718 z m 1425 788 l 1575 986 l 1446 986 l 1347 863 l 1250 986 l 1122 986 l 1271 788 z "},"ǆ":{"ha":1543,"x_min":0,"x_max":0,"o":"m 760 0 l 760 992 l 601 992 l 601 625 l 599 625 b 553 676 587 644 572 661 b 494 711 535 690 516 702 b 428 731 473 720 451 727 b 360 738 405 735 382 738 b 245 716 321 738 283 730 b 145 649 208 702 174 679 b 75 532 116 618 93 579 b 49 364 57 485 49 429 b 69 213 49 310 56 260 b 132 92 83 166 104 126 b 237 10 160 57 195 30 b 385 -19 279 -9 328 -19 b 514 8 430 -19 473 -10 b 607 97 555 26 586 56 l 610 97 l 610 0 z m 207 351 b 217 447 207 384 210 416 b 252 530 224 478 236 505 b 315 590 268 554 289 574 b 408 613 340 605 371 613 b 553 546 469 613 518 590 b 607 360 589 501 607 439 b 595 267 607 328 603 297 b 559 186 587 237 575 210 b 497 128 543 162 522 143 b 406 106 471 113 441 106 b 317 126 371 106 342 113 b 255 182 292 140 271 159 b 219 261 239 205 227 231 b 207 351 211 291 207 321 z m 907 718 l 907 593 l 1276 593 l 879 111 l 879 0 l 1511 0 l 1511 125 l 1079 125 l 1490 607 l 1490 718 z m 1271 788 l 1421 986 l 1292 986 l 1193 863 l 1096 986 l 968 986 l 1117 788 z "},"Ǉ":{"ha":1543,"x_min":0,"x_max":0,"o":"m 106 992 l 106 0 l 783 0 l 783 150 l 279 150 l 279 992 z m 1438 319 l 1438 992 l 1264 992 l 1264 310 b 1258 228 1264 279 1262 252 b 1237 167 1255 204 1247 184 b 1194 131 1226 151 1212 139 b 1125 118 1176 122 1153 118 b 1017 165 1072 118 1036 134 b 989 296 998 196 989 239 l 989 347 l 815 347 l 815 294 b 832 168 815 249 821 207 b 885 67 843 129 861 96 b 976 1 909 39 939 17 b 1111 -24 1013 -16 1058 -24 b 1283 6 1182 -24 1240 -14 b 1381 83 1326 25 1359 51 b 1426 193 1404 116 1419 152 b 1438 319 1434 234 1438 276 z "},"ǈ":{"ha":1132,"x_min":0,"x_max":0,"o":"m 106 992 l 106 0 l 783 0 l 783 150 l 279 150 l 279 992 z m 885 992 l 885 842 l 1043 842 l 1043 992 z m 885 718 l 885 -54 b 874 -133 885 -89 881 -116 b 821 -160 867 -151 850 -160 b 796 -158 813 -160 805 -159 b 767 -154 787 -157 777 -156 l 767 -279 b 798 -283 777 -281 787 -282 b 838 -285 809 -284 822 -285 b 996 -226 912 -285 964 -265 b 1043 -61 1027 -187 1043 -132 l 1043 718 z "},"ǉ":{"ha":669,"x_min":0,"x_max":0,"o":"m 88 992 l 88 0 l 246 0 l 246 992 z m 422 992 l 422 842 l 581 842 l 581 992 z m 422 718 l 422 -54 b 412 -133 422 -89 419 -116 b 358 -160 405 -151 387 -160 b 333 -158 351 -160 343 -159 b 304 -154 324 -157 314 -156 l 304 -279 b 335 -283 314 -281 325 -282 b 375 -285 346 -284 359 -285 b 533 -226 449 -285 502 -265 b 581 -61 565 -187 581 -132 l 581 718 z "},"Ǌ":{"ha":1749,"x_min":0,"x_max":0,"o":"m 99 992 l 99 0 l 264 0 l 264 729 l 268 729 l 719 0 l 903 0 l 903 992 l 738 992 l 738 261 l 735 261 l 282 992 z m 1643 319 l 1643 992 l 1469 992 l 1469 310 b 1464 228 1469 279 1468 252 b 1442 167 1460 204 1453 184 b 1399 131 1432 151 1417 139 b 1331 118 1381 122 1358 118 b 1223 165 1278 118 1242 134 b 1194 296 1204 196 1194 239 l 1194 347 l 1021 347 l 1021 294 b 1038 168 1021 249 1026 207 b 1090 67 1049 129 1066 96 b 1182 1 1114 39 1145 17 b 1317 -24 1219 -16 1264 -24 b 1488 6 1388 -24 1445 -14 b 1587 83 1531 25 1564 51 b 1632 193 1609 116 1625 152 b 1643 319 1639 234 1643 276 z "},"ǋ":{"ha":1338,"x_min":0,"x_max":0,"o":"m 99 992 l 99 0 l 264 0 l 264 729 l 268 729 l 719 0 l 903 0 l 903 992 l 738 992 l 738 261 l 735 261 l 282 992 z m 1090 992 l 1090 842 l 1249 842 l 1249 992 z m 1090 718 l 1090 -54 b 1080 -133 1090 -89 1087 -116 b 1026 -160 1073 -151 1055 -160 b 1001 -158 1019 -160 1011 -159 b 972 -154 992 -157 982 -156 l 972 -279 b 1003 -283 982 -281 993 -282 b 1043 -285 1014 -284 1027 -285 b 1201 -226 1117 -285 1170 -265 b 1249 -61 1233 -187 1249 -132 l 1249 718 z "},"ǌ":{"ha":1132,"x_min":0,"x_max":0,"o":"m 83 718 l 83 0 l 242 0 l 242 424 b 254 497 242 450 246 474 b 289 558 263 520 274 541 b 343 598 304 575 322 588 b 415 613 364 608 388 613 b 519 574 463 613 497 600 b 556 451 542 549 554 508 l 556 0 l 714 0 l 714 493 b 646 676 714 575 691 636 b 460 738 600 717 538 738 b 331 703 413 738 369 726 b 236 610 292 681 260 650 l 233 613 l 233 718 z m 885 992 l 885 842 l 1043 842 l 1043 992 z m 885 718 l 885 -54 b 874 -133 885 -89 881 -116 b 821 -160 867 -151 850 -160 b 796 -158 813 -160 805 -159 b 767 -154 787 -157 777 -156 l 767 -279 b 798 -283 777 -281 787 -282 b 838 -285 809 -284 822 -285 b 996 -226 912 -285 964 -265 b 1043 -61 1027 -187 1043 -132 l 1043 718 z "},"Ǎ":{"ha":926,"x_min":0,"x_max":0,"o":"m 371 992 l -10 0 l 169 0 l 263 263 l 658 263 l 751 0 l 938 0 l 556 992 z m 310 394 l 460 821 l 464 821 l 613 394 z m 540 1061 l 690 1260 l 561 1260 l 463 1136 l 365 1260 l 238 1260 l 386 1061 z "},"ǎ":{"ha":772,"x_min":0,"x_max":0,"o":"m 685 160 l 685 529 b 660 626 685 567 676 599 b 594 690 643 652 621 674 b 501 726 566 707 536 719 b 397 738 467 734 432 738 b 281 726 357 738 319 734 b 178 688 243 719 209 706 b 104 614 148 669 124 644 b 71 499 85 583 74 545 l 229 499 b 278 585 233 538 249 566 b 388 613 306 603 343 613 b 438 609 403 613 420 611 b 485 595 455 607 471 602 b 522 565 500 588 512 578 b 536 515 531 552 536 536 b 519 463 536 492 530 475 b 472 438 507 452 491 443 b 403 426 452 432 429 428 b 321 414 377 423 350 419 b 222 398 288 410 254 405 b 133 364 189 391 159 380 b 69 299 106 348 85 326 b 44 190 53 271 44 235 b 65 98 44 155 51 124 b 119 33 78 72 96 50 b 197 -6 141 16 168 3 b 290 -19 227 -15 258 -19 b 423 1 333 -19 377 -12 b 539 68 469 15 507 38 b 581 0 545 36 559 13 b 661 -19 602 -13 629 -19 b 685 -18 668 -19 675 -19 b 713 -14 694 -17 703 -16 b 740 -8 722 -12 731 -10 b 761 -1 748 -5 756 -3 l 761 108 b 739 106 753 106 745 106 l 722 106 b 692 118 707 106 697 110 b 685 160 687 126 685 140 z m 526 360 l 526 242 b 508 178 526 217 520 196 b 463 136 496 161 481 147 b 406 113 445 125 426 117 b 349 106 385 108 366 106 b 302 110 335 106 319 107 b 255 124 285 113 269 117 b 218 153 241 131 228 141 b 203 197 208 165 203 180 b 213 249 203 218 206 235 b 242 284 220 264 230 275 b 283 305 254 293 268 300 b 332 317 299 310 315 314 b 438 331 367 323 402 328 b 526 360 473 334 502 344 z m 479 807 l 629 1006 l 500 1006 l 401 882 l 304 1006 l 176 1006 l 325 807 z "},"Ǐ":{"ha":386,"x_min":0,"x_max":0,"o":"m 106 992 l 106 0 l 279 0 l 279 992 z m 268 1061 l 418 1260 l 289 1260 l 190 1136 l 93 1260 l -35 1260 l 114 1061 z "},"ǐ":{"ha":335,"x_min":0,"x_max":0,"o":"m 88 0 l 246 0 l 246 718 l 88 718 z m 243 788 l 393 986 l 264 986 l 165 863 l 68 986 l -60 986 l 89 788 z "},"Ǒ":{"ha":1056,"x_min":0,"x_max":0,"o":"m 528 874 b 665 842 581 874 626 863 b 758 756 703 820 734 792 b 812 635 782 721 800 680 b 829 496 823 589 829 543 b 812 357 829 449 823 402 b 758 235 800 312 782 271 b 665 150 734 200 703 171 b 528 118 626 129 581 118 b 391 150 475 118 429 129 b 297 235 353 171 321 200 b 244 357 273 271 255 312 b 226 496 232 402 226 449 b 244 635 226 543 232 589 b 297 756 255 680 273 721 b 391 842 321 792 353 820 b 528 874 429 863 475 874 z m 528 1015 b 328 974 454 1015 387 1001 b 179 861 270 946 220 908 b 85 696 138 814 107 759 b 53 496 64 633 53 566 b 85 294 53 425 64 357 b 179 129 107 231 138 176 b 328 17 220 82 270 45 b 528 -24 387 -10 454 -24 b 727 17 602 -24 668 -10 b 876 129 786 45 836 82 b 970 294 917 176 948 231 b 1003 496 992 357 1003 425 b 970 696 1003 566 992 633 b 876 861 948 759 917 814 b 727 974 836 908 786 946 b 528 1015 668 1001 602 1015 z m 604 1085 l 754 1283 l 625 1283 l 526 1160 l 429 1283 l 301 1283 l 450 1085 z "},"ǒ":{"ha":824,"x_min":0,"x_max":0,"o":"m 413 -19 b 566 9 470 -19 521 -10 b 680 88 611 28 649 54 b 751 207 711 121 734 161 b 775 360 767 253 775 304 b 751 511 775 414 767 465 b 680 631 734 557 711 597 b 566 709 649 664 611 690 b 413 738 521 728 470 738 b 259 709 355 738 304 728 b 145 631 214 690 176 664 b 74 511 114 597 91 557 b 50 360 58 465 50 414 b 74 207 50 304 58 253 b 145 88 91 161 114 121 b 259 9 176 54 214 28 b 413 -19 304 -10 355 -19 z m 413 106 b 321 128 377 106 347 113 b 257 186 295 143 274 162 b 220 267 240 210 228 237 b 208 360 212 297 208 328 b 220 451 208 390 212 421 b 257 533 228 482 240 509 b 321 590 274 556 295 575 b 413 613 347 605 377 613 b 504 590 448 613 478 605 b 568 533 530 575 551 556 b 605 451 585 509 597 482 b 617 360 613 421 617 390 b 605 267 617 328 613 297 b 568 186 597 237 585 210 b 504 128 551 162 530 143 b 413 106 478 113 448 106 z m 489 807 l 639 1006 l 510 1006 l 411 882 l 314 1006 l 186 1006 l 335 807 z "},"Ǔ":{"ha":1003,"x_min":0,"x_max":0,"o":"m 94 992 l 94 357 b 124 190 94 293 104 238 b 206 72 143 143 171 103 b 335 0 242 40 285 16 b 501 -24 385 -16 440 -24 b 668 0 563 -24 618 -16 b 797 72 718 16 761 40 b 879 190 832 103 860 143 b 908 357 899 238 908 293 l 908 992 l 735 992 l 735 414 b 730 313 735 381 733 347 b 702 220 727 278 717 247 b 633 153 687 193 664 170 b 501 126 602 135 558 126 b 370 153 445 126 401 135 b 301 220 339 170 316 193 b 273 313 285 247 276 278 b 268 414 270 347 268 381 l 268 992 z m 578 1061 l 728 1260 l 599 1260 l 500 1136 l 403 1260 l 275 1260 l 424 1061 z "},"ǔ":{"ha":797,"x_min":0,"x_max":0,"o":"m 714 0 l 714 718 l 556 718 l 556 301 b 547 224 556 274 553 248 b 517 162 541 200 531 179 b 463 121 503 145 485 131 b 379 106 440 111 413 106 b 278 144 336 106 302 119 b 242 278 254 170 242 215 l 242 718 l 83 718 l 83 263 b 147 51 83 168 104 97 b 351 -19 189 4 257 -19 b 469 13 391 -19 430 -9 b 556 100 507 35 536 64 l 558 100 l 558 0 z m 475 788 l 625 986 l 496 986 l 397 863 l 300 986 l 172 986 l 321 788 z "},"Ǖ":{"ha":1003,"x_min":0,"x_max":0,"o":"m 94 992 l 94 357 b 124 190 94 293 104 238 b 206 72 143 143 171 103 b 335 0 242 40 285 16 b 501 -24 385 -16 440 -24 b 668 0 563 -24 618 -16 b 797 72 718 16 761 40 b 879 190 832 103 860 143 b 908 357 899 238 908 293 l 908 992 l 735 992 l 735 414 b 730 313 735 381 733 347 b 702 220 727 278 717 247 b 633 153 687 193 664 170 b 501 126 602 135 558 126 b 370 153 445 126 401 135 b 301 220 339 170 316 193 b 273 313 285 247 276 278 b 268 414 270 347 268 381 l 268 992 z m 303 1061 l 461 1061 l 461 1211 l 303 1211 z m 700 1211 l 542 1211 l 542 1061 l 700 1061 z m 301 1281 l 701 1281 l 701 1371 l 301 1371 z "},"ǖ":{"ha":797,"x_min":0,"x_max":0,"o":"m 714 0 l 714 718 l 556 718 l 556 301 b 547 224 556 274 553 248 b 517 162 541 200 531 179 b 463 121 503 145 485 131 b 379 106 440 111 413 106 b 278 144 336 106 302 119 b 242 278 254 170 242 215 l 242 718 l 83 718 l 83 263 b 147 51 83 168 104 97 b 351 -19 189 4 257 -19 b 469 13 391 -19 430 -9 b 556 100 507 35 536 64 l 558 100 l 558 0 z m 200 788 l 358 788 l 358 938 l 200 938 z m 597 938 l 439 938 l 439 788 l 597 788 z m 199 1007 l 599 1007 l 599 1097 l 199 1097 z "},"Ǘ":{"ha":1003,"x_min":0,"x_max":0,"o":"m 94 992 l 94 357 b 124 190 94 293 104 238 b 206 72 143 143 171 103 b 335 0 242 40 285 16 b 501 -24 385 -16 440 -24 b 668 0 563 -24 618 -16 b 797 72 718 16 761 40 b 879 190 832 103 860 143 b 908 357 899 238 908 293 l 908 992 l 735 992 l 735 414 b 730 313 735 381 733 347 b 702 220 727 278 717 247 b 633 153 687 193 664 170 b 501 126 602 135 558 126 b 370 153 445 126 401 135 b 301 220 339 170 316 193 b 273 313 285 247 276 278 b 268 414 270 347 268 381 l 268 992 z m 303 1061 l 461 1061 l 461 1211 l 303 1211 z m 700 1211 l 542 1211 l 542 1061 l 700 1061 z m 557 1479 l 432 1281 l 547 1281 l 744 1479 z "},"ǘ":{"ha":797,"x_min":0,"x_max":0,"o":"m 714 0 l 714 718 l 556 718 l 556 301 b 547 224 556 274 553 248 b 517 162 541 200 531 179 b 463 121 503 145 485 131 b 379 106 440 111 413 106 b 278 144 336 106 302 119 b 242 278 254 170 242 215 l 242 718 l 83 718 l 83 263 b 147 51 83 168 104 97 b 351 -19 189 4 257 -19 b 469 13 391 -19 430 -9 b 556 100 507 35 536 64 l 558 100 l 558 0 z m 200 788 l 358 788 l 358 938 l 200 938 z m 597 938 l 439 938 l 439 788 l 597 788 z m 451 1210 l 326 1011 l 442 1011 l 639 1210 z "},"Ǚ":{"ha":1003,"x_min":0,"x_max":0,"o":"m 94 992 l 94 357 b 124 190 94 293 104 238 b 206 72 143 143 171 103 b 335 0 242 40 285 16 b 501 -24 385 -16 440 -24 b 668 0 563 -24 618 -16 b 797 72 718 16 761 40 b 879 190 832 103 860 143 b 908 357 899 238 908 293 l 908 992 l 735 992 l 735 414 b 730 313 735 381 733 347 b 702 220 727 278 717 247 b 633 153 687 193 664 170 b 501 126 602 135 558 126 b 370 153 445 126 401 135 b 301 220 339 170 316 193 b 273 313 285 247 276 278 b 268 414 270 347 268 381 l 268 992 z m 303 1061 l 461 1061 l 461 1211 l 303 1211 z m 700 1211 l 542 1211 l 542 1061 l 700 1061 z m 578 1281 l 728 1479 l 599 1479 l 500 1356 l 403 1479 l 275 1479 l 424 1281 z "},"ǚ":{"ha":797,"x_min":0,"x_max":0,"o":"m 714 0 l 714 718 l 556 718 l 556 301 b 547 224 556 274 553 248 b 517 162 541 200 531 179 b 463 121 503 145 485 131 b 379 106 440 111 413 106 b 278 144 336 106 302 119 b 242 278 254 170 242 215 l 242 718 l 83 718 l 83 263 b 147 51 83 168 104 97 b 351 -19 189 4 257 -19 b 469 13 391 -19 430 -9 b 556 100 507 35 536 64 l 558 100 l 558 0 z m 200 788 l 358 788 l 358 938 l 200 938 z m 597 938 l 439 938 l 439 788 l 597 788 z m 475 1007 l 625 1206 l 496 1206 l 397 1082 l 300 1206 l 172 1206 l 321 1007 z "},"Ǜ":{"ha":1003,"x_min":0,"x_max":0,"o":"m 94 992 l 94 357 b 124 190 94 293 104 238 b 206 72 143 143 171 103 b 335 0 242 40 285 16 b 501 -24 385 -16 440 -24 b 668 0 563 -24 618 -16 b 797 72 718 16 761 40 b 879 190 832 103 860 143 b 908 357 899 238 908 293 l 908 992 l 735 992 l 735 414 b 730 313 735 381 733 347 b 702 220 727 278 717 247 b 633 153 687 193 664 170 b 501 126 602 135 558 126 b 370 153 445 126 401 135 b 301 220 339 170 316 193 b 273 313 285 247 276 278 b 268 414 270 347 268 381 l 268 992 z m 303 1061 l 461 1061 l 461 1211 l 303 1211 z m 700 1211 l 542 1211 l 542 1061 l 700 1061 z m 449 1479 l 263 1479 l 460 1281 l 575 1281 z "},"ǜ":{"ha":797,"x_min":0,"x_max":0,"o":"m 714 0 l 714 718 l 556 718 l 556 301 b 547 224 556 274 553 248 b 517 162 541 200 531 179 b 463 121 503 145 485 131 b 379 106 440 111 413 106 b 278 144 336 106 302 119 b 242 278 254 170 242 215 l 242 718 l 83 718 l 83 263 b 147 51 83 168 104 97 b 351 -19 189 4 257 -19 b 469 13 391 -19 430 -9 b 556 100 507 35 536 64 l 558 100 l 558 0 z m 200 788 l 358 788 l 358 938 l 200 938 z m 597 938 l 439 938 l 439 788 l 597 788 z m 363 1206 l 176 1206 l 374 1007 l 489 1007 z "},"Ǟ":{"ha":926,"x_min":0,"x_max":0,"o":"m 371 992 l -10 0 l 169 0 l 263 263 l 658 263 l 751 0 l 938 0 l 556 992 z m 310 394 l 460 821 l 464 821 l 613 394 z m 265 1061 l 424 1061 l 424 1211 l 265 1211 z m 663 1211 l 504 1211 l 504 1061 l 663 1061 z m 264 1281 l 664 1281 l 664 1371 l 264 1371 z "},"ǟ":{"ha":772,"x_min":0,"x_max":0,"o":"m 685 160 l 685 529 b 660 626 685 567 676 599 b 594 690 643 652 621 674 b 501 726 566 707 536 719 b 397 738 467 734 432 738 b 281 726 357 738 319 734 b 178 688 243 719 209 706 b 104 614 148 669 124 644 b 71 499 85 583 74 545 l 229 499 b 278 585 233 538 249 566 b 388 613 306 603 343 613 b 438 609 403 613 420 611 b 485 595 455 607 471 602 b 522 565 500 588 512 578 b 536 515 531 552 536 536 b 519 463 536 492 530 475 b 472 438 507 452 491 443 b 403 426 452 432 429 428 b 321 414 377 423 350 419 b 222 398 288 410 254 405 b 133 364 189 391 159 380 b 69 299 106 348 85 326 b 44 190 53 271 44 235 b 65 98 44 155 51 124 b 119 33 78 72 96 50 b 197 -6 141 16 168 3 b 290 -19 227 -15 258 -19 b 423 1 333 -19 377 -12 b 539 68 469 15 507 38 b 581 0 545 36 559 13 b 661 -19 602 -13 629 -19 b 685 -18 668 -19 675 -19 b 713 -14 694 -17 703 -16 b 740 -8 722 -12 731 -10 b 761 -1 748 -5 756 -3 l 761 108 b 739 106 753 106 745 106 l 722 106 b 692 118 707 106 697 110 b 685 160 687 126 685 140 z m 526 360 l 526 242 b 508 178 526 217 520 196 b 463 136 496 161 481 147 b 406 113 445 125 426 117 b 349 106 385 108 366 106 b 302 110 335 106 319 107 b 255 124 285 113 269 117 b 218 153 241 131 228 141 b 203 197 208 165 203 180 b 213 249 203 218 206 235 b 242 284 220 264 230 275 b 283 305 254 293 268 300 b 332 317 299 310 315 314 b 438 331 367 323 402 328 b 526 360 473 334 502 344 z m 204 807 l 363 807 l 363 957 l 204 957 z m 601 957 l 443 957 l 443 807 l 601 807 z m 203 1026 l 603 1026 l 603 1117 l 203 1117 z "},"Ǡ":{"ha":926,"x_min":0,"x_max":0,"o":"m 371 992 l -10 0 l 169 0 l 263 263 l 658 263 l 751 0 l 938 0 l 556 992 z m 310 394 l 460 821 l 464 821 l 613 394 z m 385 1061 l 543 1061 l 543 1211 l 385 1211 z m 264 1281 l 664 1281 l 664 1371 l 264 1371 z "},"ǡ":{"ha":772,"x_min":0,"x_max":0,"o":"m 685 160 l 685 529 b 660 626 685 567 676 599 b 594 690 643 652 621 674 b 501 726 566 707 536 719 b 397 738 467 734 432 738 b 281 726 357 738 319 734 b 178 688 243 719 209 706 b 104 614 148 669 124 644 b 71 499 85 583 74 545 l 229 499 b 278 585 233 538 249 566 b 388 613 306 603 343 613 b 438 609 403 613 420 611 b 485 595 455 607 471 602 b 522 565 500 588 512 578 b 536 515 531 552 536 536 b 519 463 536 492 530 475 b 472 438 507 452 491 443 b 403 426 452 432 429 428 b 321 414 377 423 350 419 b 222 398 288 410 254 405 b 133 364 189 391 159 380 b 69 299 106 348 85 326 b 44 190 53 271 44 235 b 65 98 44 155 51 124 b 119 33 78 72 96 50 b 197 -6 141 16 168 3 b 290 -19 227 -15 258 -19 b 423 1 333 -19 377 -12 b 539 68 469 15 507 38 b 581 0 545 36 559 13 b 661 -19 602 -13 629 -19 b 685 -18 668 -19 675 -19 b 713 -14 694 -17 703 -16 b 740 -8 722 -12 731 -10 b 761 -1 748 -5 756 -3 l 761 108 b 739 106 753 106 745 106 l 722 106 b 692 118 707 106 697 110 b 685 160 687 126 685 140 z m 526 360 l 526 242 b 508 178 526 217 520 196 b 463 136 496 161 481 147 b 406 113 445 125 426 117 b 349 106 385 108 366 106 b 302 110 335 106 319 107 b 255 124 285 113 269 117 b 218 153 241 131 228 141 b 203 197 208 165 203 180 b 213 249 203 218 206 235 b 242 284 220 264 230 275 b 283 305 254 293 268 300 b 332 317 299 310 315 314 b 438 331 367 323 402 328 b 526 360 473 334 502 344 z m 324 807 l 482 807 l 482 957 l 324 957 z m 203 1026 l 603 1026 l 603 1117 l 203 1117 z "},"Ǣ":{"ha":1338,"x_min":0,"x_max":0,"o":"m 483 992 l -10 0 l 183 0 l 303 254 l 635 254 l 635 0 l 1292 0 l 1292 150 l 800 150 l 800 440 l 1253 440 l 1253 582 l 800 582 l 800 842 l 1283 842 l 1283 992 z m 367 386 l 585 842 l 635 842 l 635 386 z m 663 1078 l 1063 1078 l 1063 1168 l 663 1168 z "},"ǣ":{"ha":1235,"x_min":0,"x_max":0,"o":"m 1192 226 l 1033 226 b 971 138 1020 188 1000 159 b 864 106 942 116 906 106 b 779 124 831 106 803 112 b 720 171 755 136 735 151 b 687 238 705 190 694 213 b 676 318 680 264 676 290 l 1197 318 b 1186 484 1201 377 1197 433 b 1128 617 1175 535 1156 580 b 1022 706 1101 655 1066 684 b 864 738 978 727 925 738 b 738 715 820 738 778 730 b 636 640 697 700 663 675 b 588 690 622 661 606 677 b 528 720 569 703 549 713 b 461 734 506 727 484 732 b 393 738 438 736 415 738 b 279 726 354 738 316 734 b 178 688 242 719 209 706 b 104 614 148 669 124 644 b 71 499 85 583 74 545 l 229 499 b 278 585 233 538 249 566 b 388 613 306 603 343 613 b 436 609 403 613 419 611 b 481 595 453 607 468 602 b 515 565 495 588 506 578 b 528 515 523 552 528 536 b 511 463 528 492 522 475 b 467 438 500 452 485 443 b 401 426 448 432 426 428 b 321 414 376 423 350 419 b 222 398 288 410 254 405 b 133 364 189 391 159 380 b 69 299 106 348 85 326 b 44 190 53 271 44 235 b 65 98 44 155 51 124 b 120 33 78 72 97 50 b 203 -6 144 16 171 3 b 304 -19 234 -15 268 -19 b 476 11 365 -19 422 -9 b 603 113 529 31 571 65 b 715 10 631 63 668 29 b 867 -19 763 -10 813 -19 b 1074 46 946 -19 1015 2 b 1192 226 1132 89 1171 150 z m 526 357 l 526 250 b 510 188 526 226 521 205 b 469 142 500 170 486 155 b 413 115 453 130 434 121 b 347 106 391 109 369 106 b 297 110 331 106 314 107 b 250 124 279 113 264 117 b 216 152 236 131 225 141 b 203 197 207 164 203 179 b 213 249 203 218 206 235 b 242 284 220 264 230 275 b 283 305 254 293 268 300 b 333 317 299 310 316 314 b 390 324 352 319 371 322 b 445 330 410 325 428 328 b 492 339 462 332 478 335 b 526 357 507 343 518 349 z m 1039 422 l 676 422 b 692 495 678 448 683 472 b 727 556 700 518 712 538 b 783 597 742 573 761 587 b 857 613 804 607 829 613 b 992 560 915 613 960 595 b 1039 422 1024 526 1040 480 z m 424 807 l 824 807 l 824 897 l 424 897 z "},"Ǧ":{"ha":1054,"x_min":0,"x_max":0,"o":"m 971 0 l 971 522 l 549 522 l 549 390 l 813 390 b 793 276 812 349 805 311 b 740 190 781 242 763 213 b 653 135 716 166 687 148 b 535 118 619 123 579 117 b 398 150 482 118 436 129 b 304 235 359 171 328 200 b 251 357 280 271 262 312 b 233 496 239 402 233 449 b 251 635 233 543 239 589 b 304 756 262 680 280 721 b 398 842 328 792 359 820 b 535 874 436 863 482 874 b 625 861 566 874 596 869 b 703 824 654 853 680 840 b 760 762 726 807 745 786 b 790 676 776 737 786 709 l 960 676 b 913 824 953 732 938 781 b 818 930 888 866 856 902 b 688 994 780 958 737 979 b 535 1015 640 1008 588 1015 b 335 974 461 1015 394 1001 b 186 861 277 946 227 908 b 92 696 145 814 114 759 b 60 496 71 633 60 566 b 92 294 60 425 71 357 b 186 129 114 231 145 176 b 335 17 227 82 277 45 b 535 -24 394 -10 461 -24 b 694 7 595 -24 648 -13 b 833 117 741 27 787 64 l 860 0 z m 592 1085 l 742 1283 l 613 1283 l 514 1160 l 417 1283 l 289 1283 l 438 1085 z "},"ǧ":{"ha":824,"x_min":0,"x_max":0,"o":"m 747 38 l 747 718 l 589 718 l 589 619 l 586 619 b 499 709 566 660 537 690 b 374 738 461 728 419 738 b 237 708 323 738 277 728 b 135 630 197 689 163 663 b 71 515 107 597 86 559 b 49 378 56 472 49 426 b 67 232 49 326 55 277 b 124 112 79 187 98 147 b 224 30 151 77 184 50 b 371 0 265 10 313 0 b 495 33 415 0 457 11 b 586 126 534 56 564 87 l 589 126 l 589 17 b 544 -119 589 -43 574 -88 b 404 -167 515 -151 468 -167 b 346 -163 384 -167 364 -166 b 295 -148 327 -161 310 -156 b 256 -115 280 -140 267 -129 b 232 -61 244 -101 237 -83 l 74 -61 b 110 -167 77 -103 89 -138 b 185 -236 130 -195 155 -219 b 285 -274 216 -254 249 -266 b 394 -285 322 -281 358 -285 b 656 -205 508 -285 596 -258 b 747 38 717 -152 747 -71 z m 396 125 b 310 146 363 125 334 132 b 252 200 287 160 267 178 b 218 276 237 222 225 247 b 207 363 211 304 207 333 b 217 452 207 392 210 422 b 249 533 223 482 234 509 b 307 590 263 556 283 575 b 396 613 331 605 361 613 b 484 593 430 613 459 606 b 544 540 509 580 528 563 b 578 464 559 518 570 493 b 589 375 585 435 589 406 b 578 284 589 344 585 314 b 545 203 572 254 560 227 b 485 147 530 180 510 161 b 396 125 461 132 431 125 z m 474 807 l 624 1006 l 494 1006 l 396 882 l 299 1006 l 171 1006 l 319 807 z "},"Ǩ":{"ha":951,"x_min":0,"x_max":0,"o":"m 106 992 l 106 0 l 279 0 l 279 333 l 421 474 l 746 0 l 963 0 l 539 596 l 935 992 l 721 992 l 279 540 l 279 992 z m 610 1061 l 760 1260 l 631 1260 l 532 1136 l 435 1260 l 307 1260 l 456 1061 z "},"ǩ":{"ha":746,"x_min":0,"x_max":0,"o":"m 88 992 l 88 0 l 246 0 l 246 257 l 340 349 l 560 0 l 753 0 l 451 454 l 726 718 l 532 718 l 246 428 l 246 992 z m 496 1061 l 646 1260 l 517 1260 l 418 1136 l 321 1260 l 193 1260 l 342 1061 z "},"Ǫ":{"ha":1056,"x_min":0,"x_max":0,"o":"m 528 874 b 665 842 581 874 626 863 b 758 756 703 820 734 792 b 812 635 782 721 800 680 b 829 496 823 589 829 543 b 812 357 829 449 823 402 b 758 235 800 312 782 271 b 665 150 734 200 703 171 b 528 118 626 129 581 118 b 391 150 475 118 429 129 b 297 235 353 171 321 200 b 244 357 273 271 255 312 b 226 496 232 402 226 449 b 244 635 226 543 232 589 b 297 756 255 680 273 721 b 391 842 321 792 353 820 b 528 874 429 863 475 874 z m 528 1015 b 328 974 454 1015 387 1001 b 179 861 270 946 220 908 b 85 696 138 814 107 759 b 53 496 64 633 53 566 b 85 294 53 425 64 357 b 179 129 107 231 138 176 b 328 17 220 82 270 45 b 528 -24 387 -10 454 -24 b 727 17 602 -24 668 -10 b 876 129 786 45 836 82 b 970 294 917 176 948 231 b 1003 496 992 357 1003 425 b 970 696 1003 566 992 633 b 876 861 948 759 917 814 b 727 974 836 908 786 946 b 528 1015 668 1001 602 1015 z m 618 -24 l 543 -24 b 453 -87 504 -47 474 -68 b 406 -140 431 -107 416 -125 b 388 -181 395 -156 389 -169 b 385 -208 386 -192 385 -201 b 403 -278 385 -238 391 -261 b 445 -315 415 -294 429 -307 b 492 -331 461 -324 477 -329 b 525 -333 508 -332 519 -333 b 568 -328 539 -333 553 -332 b 610 -312 583 -325 597 -320 b 647 -280 624 -304 636 -293 b 671 -229 657 -266 665 -250 l 614 -217 b 579 -254 602 -235 590 -248 b 542 -264 568 -261 556 -264 b 504 -247 528 -264 515 -258 b 488 -203 493 -236 488 -221 b 493 -165 488 -190 489 -177 b 513 -124 497 -152 503 -139 b 553 -78 523 -110 536 -95 b 618 -24 571 -62 592 -44 z "},"ǫ":{"ha":824,"x_min":0,"x_max":0,"o":"m 413 -19 b 566 9 470 -19 521 -10 b 680 88 611 28 649 54 b 751 207 711 121 734 161 b 775 360 767 253 775 304 b 751 511 775 414 767 465 b 680 631 734 557 711 597 b 566 709 649 664 611 690 b 413 738 521 728 470 738 b 259 709 355 738 304 728 b 145 631 214 690 176 664 b 74 511 114 597 91 557 b 50 360 58 465 50 414 b 74 207 50 304 58 253 b 145 88 91 161 114 121 b 259 9 176 54 214 28 b 413 -19 304 -10 355 -19 z m 413 106 b 321 128 377 106 347 113 b 257 186 295 143 274 162 b 220 267 240 210 228 237 b 208 360 212 297 208 328 b 220 451 208 390 212 421 b 257 533 228 482 240 509 b 321 590 274 556 295 575 b 413 613 347 605 377 613 b 504 590 448 613 478 605 b 568 533 530 575 551 556 b 605 451 585 509 597 482 b 617 360 613 421 617 390 b 605 267 617 328 613 297 b 568 186 597 237 585 210 b 504 128 551 162 530 143 b 413 106 478 113 448 106 z m 503 -19 l 428 -19 b 338 -83 389 -43 359 -64 b 290 -136 316 -103 300 -120 b 272 -176 280 -152 274 -165 b 269 -204 270 -187 269 -197 b 288 -274 269 -234 275 -257 b 330 -311 300 -290 314 -303 b 377 -326 346 -319 362 -325 b 410 -329 392 -328 403 -329 b 453 -324 424 -329 438 -328 b 495 -308 468 -321 482 -316 b 531 -276 509 -300 521 -289 b 556 -225 542 -262 550 -245 l 499 -212 b 464 -250 487 -231 475 -244 b 426 -260 453 -256 440 -260 b 389 -243 413 -260 400 -254 b 372 -199 378 -232 372 -217 b 378 -160 372 -186 374 -173 b 398 -120 381 -148 388 -134 b 438 -74 408 -106 421 -91 b 503 -19 455 -58 477 -40 z "},"Ǭ":{"ha":1056,"x_min":0,"x_max":0,"o":"m 528 874 b 665 842 581 874 626 863 b 758 756 703 820 734 792 b 812 635 782 721 800 680 b 829 496 823 589 829 543 b 812 357 829 449 823 402 b 758 235 800 312 782 271 b 665 150 734 200 703 171 b 528 118 626 129 581 118 b 391 150 475 118 429 129 b 297 235 353 171 321 200 b 244 357 273 271 255 312 b 226 496 232 402 226 449 b 244 635 226 543 232 589 b 297 756 255 680 273 721 b 391 842 321 792 353 820 b 528 874 429 863 475 874 z m 528 1015 b 328 974 454 1015 387 1001 b 179 861 270 946 220 908 b 85 696 138 814 107 759 b 53 496 64 633 53 566 b 85 294 53 425 64 357 b 179 129 107 231 138 176 b 328 17 220 82 270 45 b 528 -24 387 -10 454 -24 b 727 17 602 -24 668 -10 b 876 129 786 45 836 82 b 970 294 917 176 948 231 b 1003 496 992 357 1003 425 b 970 696 1003 566 992 633 b 876 861 948 759 917 814 b 727 974 836 908 786 946 b 528 1015 668 1001 602 1015 z m 618 -24 l 543 -24 b 453 -87 504 -47 474 -68 b 406 -140 431 -107 416 -125 b 388 -181 395 -156 389 -169 b 385 -208 386 -192 385 -201 b 403 -278 385 -238 391 -261 b 445 -315 415 -294 429 -307 b 492 -331 461 -324 477 -329 b 525 -333 508 -332 519 -333 b 568 -328 539 -333 553 -332 b 610 -312 583 -325 597 -320 b 647 -280 624 -304 636 -293 b 671 -229 657 -266 665 -250 l 614 -217 b 579 -254 602 -235 590 -248 b 542 -264 568 -261 556 -264 b 504 -247 528 -264 515 -258 b 488 -203 493 -236 488 -221 b 493 -165 488 -190 489 -177 b 513 -124 497 -152 503 -139 b 553 -78 523 -110 536 -95 b 618 -24 571 -62 592 -44 z m 328 1085 l 728 1085 l 728 1175 l 328 1175 z "},"ǭ":{"ha":824,"x_min":0,"x_max":0,"o":"m 413 -19 b 566 9 470 -19 521 -10 b 680 88 611 28 649 54 b 751 207 711 121 734 161 b 775 360 767 253 775 304 b 751 511 775 414 767 465 b 680 631 734 557 711 597 b 566 709 649 664 611 690 b 413 738 521 728 470 738 b 259 709 355 738 304 728 b 145 631 214 690 176 664 b 74 511 114 597 91 557 b 50 360 58 465 50 414 b 74 207 50 304 58 253 b 145 88 91 161 114 121 b 259 9 176 54 214 28 b 413 -19 304 -10 355 -19 z m 413 106 b 321 128 377 106 347 113 b 257 186 295 143 274 162 b 220 267 240 210 228 237 b 208 360 212 297 208 328 b 220 451 208 390 212 421 b 257 533 228 482 240 509 b 321 590 274 556 295 575 b 413 613 347 605 377 613 b 504 590 448 613 478 605 b 568 533 530 575 551 556 b 605 451 585 509 597 482 b 617 360 613 421 617 390 b 605 267 617 328 613 297 b 568 186 597 237 585 210 b 504 128 551 162 530 143 b 413 106 478 113 448 106 z m 503 -19 l 428 -19 b 338 -83 389 -43 359 -64 b 290 -136 316 -103 300 -120 b 272 -176 280 -152 274 -165 b 269 -204 270 -187 269 -197 b 288 -274 269 -234 275 -257 b 330 -311 300 -290 314 -303 b 377 -326 346 -319 362 -325 b 410 -329 392 -328 403 -329 b 453 -324 424 -329 438 -328 b 495 -308 468 -321 482 -316 b 531 -276 509 -300 521 -289 b 556 -225 542 -262 550 -245 l 499 -212 b 464 -250 487 -231 475 -244 b 426 -260 453 -256 440 -260 b 389 -243 413 -260 400 -254 b 372 -199 378 -232 372 -217 b 378 -160 372 -186 374 -173 b 398 -120 381 -148 388 -134 b 438 -74 408 -106 421 -91 b 503 -19 455 -58 477 -40 z m 213 807 l 613 807 l 613 897 l 213 897 z "},"Ǳ":{"ha":1878,"x_min":0,"x_max":0,"o":"m 106 992 l 106 0 l 517 0 b 714 39 593 0 658 13 b 850 145 769 65 815 100 b 928 303 885 190 911 243 b 954 496 946 363 954 427 b 928 689 954 564 946 629 b 850 847 911 749 885 802 b 714 953 815 891 769 927 b 517 992 658 979 593 992 z m 279 142 l 279 850 l 450 850 b 616 823 518 850 573 841 b 717 748 659 805 693 780 b 767 635 742 716 759 678 b 781 496 776 592 781 546 b 767 356 781 446 776 399 b 717 244 759 313 742 276 b 616 169 693 212 659 187 b 450 142 573 151 518 142 z m 1079 992 l 1079 842 l 1613 842 l 1035 142 l 1035 0 l 1847 0 l 1847 150 l 1256 150 l 1833 860 l 1833 992 z "},"ǲ":{"ha":1697,"x_min":0,"x_max":0,"o":"m 106 992 l 106 0 l 517 0 b 714 39 593 0 658 13 b 850 145 769 65 815 100 b 928 303 885 190 911 243 b 954 496 946 363 954 427 b 928 689 954 564 946 629 b 850 847 911 749 885 802 b 714 953 815 891 769 927 b 517 992 658 979 593 992 z m 279 142 l 279 850 l 450 850 b 616 823 518 850 573 841 b 717 748 659 805 693 780 b 767 635 742 716 759 678 b 781 496 776 592 781 546 b 767 356 781 446 776 399 b 717 244 759 313 742 276 b 616 169 693 212 659 187 b 450 142 573 151 518 142 z m 1061 718 l 1061 593 l 1431 593 l 1033 111 l 1033 0 l 1665 0 l 1665 125 l 1233 125 l 1644 607 l 1644 718 z "},"ǳ":{"ha":1543,"x_min":0,"x_max":0,"o":"m 760 0 l 760 992 l 601 992 l 601 625 l 599 625 b 553 676 587 644 572 661 b 494 711 535 690 516 702 b 428 731 473 720 451 727 b 360 738 405 735 382 738 b 245 716 321 738 283 730 b 145 649 208 702 174 679 b 75 532 116 618 93 579 b 49 364 57 485 49 429 b 69 213 49 310 56 260 b 132 92 83 166 104 126 b 237 10 160 57 195 30 b 385 -19 279 -9 328 -19 b 514 8 430 -19 473 -10 b 607 97 555 26 586 56 l 610 97 l 610 0 z m 207 351 b 217 447 207 384 210 416 b 252 530 224 478 236 505 b 315 590 268 554 289 574 b 408 613 340 605 371 613 b 553 546 469 613 518 590 b 607 360 589 501 607 439 b 595 267 607 328 603 297 b 559 186 587 237 575 210 b 497 128 543 162 522 143 b 406 106 471 113 441 106 b 317 126 371 106 342 113 b 255 182 292 140 271 159 b 219 261 239 205 227 231 b 207 351 211 291 207 321 z m 907 718 l 907 593 l 1276 593 l 879 111 l 879 0 l 1511 0 l 1511 125 l 1079 125 l 1490 607 l 1490 718 z "},"Ǵ":{"ha":1054,"x_min":0,"x_max":0,"o":"m 971 0 l 971 522 l 549 522 l 549 390 l 813 390 b 793 276 812 349 805 311 b 740 190 781 242 763 213 b 653 135 716 166 687 148 b 535 118 619 123 579 117 b 398 150 482 118 436 129 b 304 235 359 171 328 200 b 251 357 280 271 262 312 b 233 496 239 402 233 449 b 251 635 233 543 239 589 b 304 756 262 680 280 721 b 398 842 328 792 359 820 b 535 874 436 863 482 874 b 625 861 566 874 596 869 b 703 824 654 853 680 840 b 760 762 726 807 745 786 b 790 676 776 737 786 709 l 960 676 b 913 824 953 732 938 781 b 818 930 888 866 856 902 b 688 994 780 958 737 979 b 535 1015 640 1008 588 1015 b 335 974 461 1015 394 1001 b 186 861 277 946 227 908 b 92 696 145 814 114 759 b 60 496 71 633 60 566 b 92 294 60 425 71 357 b 186 129 114 231 145 176 b 335 17 227 82 277 45 b 535 -24 394 -10 461 -24 b 694 7 595 -24 648 -13 b 833 117 741 27 787 64 l 860 0 z m 592 1283 l 467 1085 l 582 1085 l 779 1283 z "},"ǵ":{"ha":824,"x_min":0,"x_max":0,"o":"m 747 38 l 747 718 l 589 718 l 589 619 l 586 619 b 499 709 566 660 537 690 b 374 738 461 728 419 738 b 237 708 323 738 277 728 b 135 630 197 689 163 663 b 71 515 107 597 86 559 b 49 378 56 472 49 426 b 67 232 49 326 55 277 b 124 112 79 187 98 147 b 224 30 151 77 184 50 b 371 0 265 10 313 0 b 495 33 415 0 457 11 b 586 126 534 56 564 87 l 589 126 l 589 17 b 544 -119 589 -43 574 -88 b 404 -167 515 -151 468 -167 b 346 -163 384 -167 364 -166 b 295 -148 327 -161 310 -156 b 256 -115 280 -140 267 -129 b 232 -61 244 -101 237 -83 l 74 -61 b 110 -167 77 -103 89 -138 b 185 -236 130 -195 155 -219 b 285 -274 216 -254 249 -266 b 394 -285 322 -281 358 -285 b 656 -205 508 -285 596 -258 b 747 38 717 -152 747 -71 z m 396 125 b 310 146 363 125 334 132 b 252 200 287 160 267 178 b 218 276 237 222 225 247 b 207 363 211 304 207 333 b 217 452 207 392 210 422 b 249 533 223 482 234 509 b 307 590 263 556 283 575 b 396 613 331 605 361 613 b 484 593 430 613 459 606 b 544 540 509 580 528 563 b 578 464 559 518 570 493 b 589 375 585 435 589 406 b 578 284 589 344 585 314 b 545 203 572 254 560 227 b 485 147 530 180 510 161 b 396 125 461 132 431 125 z m 422 1013 l 297 814 l 413 814 l 610 1013 z "},"Ǹ":{"ha":1003,"x_min":0,"x_max":0,"o":"m 99 992 l 99 0 l 264 0 l 264 729 l 268 729 l 719 0 l 903 0 l 903 992 l 738 992 l 738 261 l 735 261 l 282 992 z m 483 1256 l 297 1256 l 494 1057 l 610 1057 z "},"ǹ":{"ha":797,"x_min":0,"x_max":0,"o":"m 83 718 l 83 0 l 242 0 l 242 424 b 254 497 242 450 246 474 b 289 558 263 520 274 541 b 343 598 304 575 322 588 b 415 613 364 608 388 613 b 519 574 463 613 497 600 b 556 451 542 549 554 508 l 556 0 l 714 0 l 714 493 b 646 676 714 575 691 636 b 460 738 600 717 538 738 b 331 703 413 738 369 726 b 236 610 292 681 260 650 l 233 613 l 233 718 z m 393 1006 l 207 1006 l 404 807 l 519 807 z "},"Ǻ":{"ha":926,"x_min":0,"x_max":0,"o":"m 371 992 l -10 0 l 169 0 l 263 263 l 658 263 l 751 0 l 938 0 l 556 992 z m 310 394 l 460 821 l 464 821 l 613 394 z m 381 1204 b 405 1265 381 1229 389 1250 b 464 1289 421 1281 441 1289 b 524 1265 488 1289 508 1281 b 547 1204 539 1250 547 1229 b 524 1144 547 1180 539 1160 b 464 1119 508 1128 488 1119 b 405 1144 441 1119 421 1128 b 381 1204 389 1160 381 1180 z m 464 1061 b 519 1072 483 1061 502 1065 b 565 1101 536 1078 551 1088 b 597 1146 579 1113 590 1128 b 608 1204 605 1163 608 1183 b 597 1263 608 1225 605 1245 b 565 1308 590 1280 579 1295 b 519 1338 551 1321 536 1331 b 464 1347 502 1344 483 1347 b 409 1338 444 1347 426 1344 b 363 1308 392 1331 377 1321 b 331 1263 350 1295 339 1280 b 319 1204 323 1245 319 1225 b 331 1146 319 1183 323 1163 b 362 1101 338 1128 348 1113 b 408 1072 375 1088 391 1078 b 464 1061 426 1065 444 1061 z m 493 1611 l 368 1413 l 483 1413 l 681 1611 z "},"ǻ":{"ha":772,"x_min":0,"x_max":0,"o":"m 685 160 l 685 529 b 660 626 685 567 676 599 b 594 690 643 652 621 674 b 501 726 566 707 536 719 b 397 738 467 734 432 738 b 281 726 357 738 319 734 b 178 688 243 719 209 706 b 104 614 148 669 124 644 b 71 499 85 583 74 545 l 229 499 b 278 585 233 538 249 566 b 388 613 306 603 343 613 b 438 609 403 613 420 611 b 485 595 455 607 471 602 b 522 565 500 588 512 578 b 536 515 531 552 536 536 b 519 463 536 492 530 475 b 472 438 507 452 491 443 b 403 426 452 432 429 428 b 321 414 377 423 350 419 b 222 398 288 410 254 405 b 133 364 189 391 159 380 b 69 299 106 348 85 326 b 44 190 53 271 44 235 b 65 98 44 155 51 124 b 119 33 78 72 96 50 b 197 -6 141 16 168 3 b 290 -19 227 -15 258 -19 b 423 1 333 -19 377 -12 b 539 68 469 15 507 38 b 581 0 545 36 559 13 b 661 -19 602 -13 629 -19 b 685 -18 668 -19 675 -19 b 713 -14 694 -17 703 -16 b 740 -8 722 -12 731 -10 b 761 -1 748 -5 756 -3 l 761 108 b 739 106 753 106 745 106 l 722 106 b 692 118 707 106 697 110 b 685 160 687 126 685 140 z m 526 360 l 526 242 b 508 178 526 217 520 196 b 463 136 496 161 481 147 b 406 113 445 125 426 117 b 349 106 385 108 366 106 b 302 110 335 106 319 107 b 255 124 285 113 269 117 b 218 153 241 131 228 141 b 203 197 208 165 203 180 b 213 249 203 218 206 235 b 242 284 220 264 230 275 b 283 305 254 293 268 300 b 332 317 299 310 315 314 b 438 331 367 323 402 328 b 526 360 473 334 502 344 z m 319 950 b 344 1011 319 975 328 995 b 403 1035 360 1027 380 1035 b 463 1011 427 1035 447 1027 b 486 950 478 995 486 975 b 463 890 486 926 478 906 b 403 865 447 873 427 865 b 344 890 380 865 360 873 b 319 950 328 906 319 926 z m 403 807 b 458 817 422 807 441 810 b 504 847 475 824 490 834 b 536 892 518 859 529 874 b 547 950 544 909 547 929 b 536 1008 547 971 544 991 b 504 1054 529 1026 518 1041 b 458 1083 490 1067 475 1077 b 403 1093 441 1090 422 1093 b 348 1083 383 1093 365 1090 b 302 1054 331 1077 316 1067 b 270 1008 289 1041 278 1026 b 258 950 262 991 258 971 b 269 892 258 929 262 909 b 301 847 277 874 287 859 b 347 817 314 834 330 824 b 403 807 365 810 383 807 z m 451 1365 l 326 1167 l 442 1167 l 639 1365 z "},"Ǽ":{"ha":1338,"x_min":0,"x_max":0,"o":"m 483 992 l -10 0 l 183 0 l 303 254 l 635 254 l 635 0 l 1292 0 l 1292 150 l 800 150 l 800 440 l 1253 440 l 1253 582 l 800 582 l 800 842 l 1283 842 l 1283 992 z m 367 386 l 585 842 l 635 842 l 635 386 z m 879 1276 l 754 1078 l 869 1078 l 1067 1276 z "},"ǽ":{"ha":1235,"x_min":0,"x_max":0,"o":"m 1192 226 l 1033 226 b 971 138 1020 188 1000 159 b 864 106 942 116 906 106 b 779 124 831 106 803 112 b 720 171 755 136 735 151 b 687 238 705 190 694 213 b 676 318 680 264 676 290 l 1197 318 b 1186 484 1201 377 1197 433 b 1128 617 1175 535 1156 580 b 1022 706 1101 655 1066 684 b 864 738 978 727 925 738 b 738 715 820 738 778 730 b 636 640 697 700 663 675 b 588 690 622 661 606 677 b 528 720 569 703 549 713 b 461 734 506 727 484 732 b 393 738 438 736 415 738 b 279 726 354 738 316 734 b 178 688 242 719 209 706 b 104 614 148 669 124 644 b 71 499 85 583 74 545 l 229 499 b 278 585 233 538 249 566 b 388 613 306 603 343 613 b 436 609 403 613 419 611 b 481 595 453 607 468 602 b 515 565 495 588 506 578 b 528 515 523 552 528 536 b 511 463 528 492 522 475 b 467 438 500 452 485 443 b 401 426 448 432 426 428 b 321 414 376 423 350 419 b 222 398 288 410 254 405 b 133 364 189 391 159 380 b 69 299 106 348 85 326 b 44 190 53 271 44 235 b 65 98 44 155 51 124 b 120 33 78 72 97 50 b 203 -6 144 16 171 3 b 304 -19 234 -15 268 -19 b 476 11 365 -19 422 -9 b 603 113 529 31 571 65 b 715 10 631 63 668 29 b 867 -19 763 -10 813 -19 b 1074 46 946 -19 1015 2 b 1192 226 1132 89 1171 150 z m 526 357 l 526 250 b 510 188 526 226 521 205 b 469 142 500 170 486 155 b 413 115 453 130 434 121 b 347 106 391 109 369 106 b 297 110 331 106 314 107 b 250 124 279 113 264 117 b 216 152 236 131 225 141 b 203 197 207 164 203 179 b 213 249 203 218 206 235 b 242 284 220 264 230 275 b 283 305 254 293 268 300 b 333 317 299 310 316 314 b 390 324 352 319 371 322 b 445 330 410 325 428 328 b 492 339 462 332 478 335 b 526 357 507 343 518 349 z m 1039 422 l 676 422 b 692 495 678 448 683 472 b 727 556 700 518 712 538 b 783 597 742 573 761 587 b 857 613 804 607 829 613 b 992 560 915 613 960 595 b 1039 422 1024 526 1040 480 z m 679 1013 l 554 814 l 669 814 l 867 1013 z "},"Ǿ":{"ha":1056,"x_min":0,"x_max":0,"o":"m 1000 969 l 940 1019 l 836 903 b 701 985 797 938 752 966 b 528 1015 649 1005 592 1015 b 328 974 454 1015 387 1001 b 179 861 270 946 220 908 b 85 696 138 814 107 759 b 53 496 64 633 53 566 b 82 306 53 428 63 365 b 165 147 101 246 129 194 l 56 22 l 114 -28 l 219 90 b 355 7 258 55 303 27 b 528 -24 406 -13 464 -24 b 727 17 602 -24 668 -10 b 876 129 786 45 836 82 b 970 294 917 176 948 231 b 1003 496 992 357 1003 425 b 974 686 1003 563 993 627 b 890 846 954 745 926 799 z m 322 206 l 778 719 b 817 613 796 687 809 652 b 829 496 825 575 829 536 b 812 357 829 449 823 402 b 758 235 800 312 782 271 b 665 150 734 200 703 171 b 528 118 626 129 581 118 b 410 142 483 118 444 126 b 322 206 377 157 347 179 z m 733 786 l 276 272 b 238 378 259 305 246 340 b 226 496 230 416 226 455 b 244 635 226 543 232 589 b 297 756 255 680 273 721 b 391 842 321 792 353 820 b 528 874 429 863 475 874 b 648 850 574 874 614 866 b 733 786 682 834 710 813 z m 613 1292 l 488 1093 l 603 1093 l 800 1292 z "},"ǿ":{"ha":824,"x_min":0,"x_max":0,"o":"m 550 554 l 240 215 b 216 285 229 237 221 260 b 208 360 211 310 208 335 b 220 451 208 390 212 421 b 257 533 228 482 240 509 b 321 590 274 556 295 575 b 413 613 347 605 377 613 b 491 597 442 613 468 607 b 550 554 514 587 533 573 z m 44 0 l 89 -39 l 178 58 b 281 1 207 33 242 14 b 413 -19 321 -13 364 -19 b 566 9 470 -19 521 -10 b 680 88 611 28 649 54 b 751 207 711 121 734 161 b 775 360 767 253 775 304 b 690 619 775 463 747 550 l 781 718 l 736 757 l 649 661 b 545 717 619 685 584 704 b 413 738 506 731 462 738 b 259 709 355 738 304 728 b 145 631 214 690 176 664 b 74 511 114 597 91 557 b 50 360 58 465 50 414 b 135 100 50 254 78 168 z m 275 164 l 585 503 b 609 434 596 481 604 459 b 617 360 614 409 617 385 b 605 267 617 328 613 297 b 568 186 597 237 585 210 b 504 128 551 162 530 143 b 413 106 478 113 448 106 b 334 121 383 106 357 111 b 275 164 311 131 292 145 z m 446 1029 l 321 831 l 436 831 l 633 1029 z "},"Ȁ":{"ha":926,"x_min":0,"x_max":0,"o":"m 371 992 l -10 0 l 169 0 l 263 263 l 658 263 l 751 0 l 938 0 l 556 992 z m 310 394 l 460 821 l 464 821 l 613 394 z m 683 1092 l 558 1290 l 369 1290 l 569 1092 z m 407 1092 l 282 1290 l 93 1290 l 293 1092 z "},"ȁ":{"ha":772,"x_min":0,"x_max":0,"o":"m 685 160 l 685 529 b 660 626 685 567 676 599 b 594 690 643 652 621 674 b 501 726 566 707 536 719 b 397 738 467 734 432 738 b 281 726 357 738 319 734 b 178 688 243 719 209 706 b 104 614 148 669 124 644 b 71 499 85 583 74 545 l 229 499 b 278 585 233 538 249 566 b 388 613 306 603 343 613 b 438 609 403 613 420 611 b 485 595 455 607 471 602 b 522 565 500 588 512 578 b 536 515 531 552 536 536 b 519 463 536 492 530 475 b 472 438 507 452 491 443 b 403 426 452 432 429 428 b 321 414 377 423 350 419 b 222 398 288 410 254 405 b 133 364 189 391 159 380 b 69 299 106 348 85 326 b 44 190 53 271 44 235 b 65 98 44 155 51 124 b 119 33 78 72 96 50 b 197 -6 141 16 168 3 b 290 -19 227 -15 258 -19 b 423 1 333 -19 377 -12 b 539 68 469 15 507 38 b 581 0 545 36 559 13 b 661 -19 602 -13 629 -19 b 685 -18 668 -19 675 -19 b 713 -14 694 -17 703 -16 b 740 -8 722 -12 731 -10 b 761 -1 748 -5 756 -3 l 761 108 b 739 106 753 106 745 106 l 722 106 b 692 118 707 106 697 110 b 685 160 687 126 685 140 z m 526 360 l 526 242 b 508 178 526 217 520 196 b 463 136 496 161 481 147 b 406 113 445 125 426 117 b 349 106 385 108 366 106 b 302 110 335 106 319 107 b 255 124 285 113 269 117 b 218 153 241 131 228 141 b 203 197 208 165 203 180 b 213 249 203 218 206 235 b 242 284 220 264 230 275 b 283 305 254 293 268 300 b 332 317 299 310 315 314 b 438 331 367 323 402 328 b 526 360 473 334 502 344 z m 615 818 l 490 1017 l 301 1017 l 501 818 z m 339 818 l 214 1017 l 25 1017 l 225 818 z "},"Ȃ":{"ha":926,"x_min":0,"x_max":0,"o":"m 371 992 l -10 0 l 169 0 l 263 263 l 658 263 l 751 0 l 938 0 l 556 992 z m 310 394 l 460 821 l 464 821 l 613 394 z m 607 1093 l 688 1093 b 622 1239 682 1157 660 1206 b 469 1289 584 1272 533 1289 b 312 1241 406 1289 353 1273 b 239 1093 271 1209 246 1160 l 318 1093 b 367 1172 325 1128 342 1155 b 458 1199 393 1190 423 1199 b 555 1175 495 1199 528 1191 b 607 1093 582 1159 600 1132 z "},"ȃ":{"ha":772,"x_min":0,"x_max":0,"o":"m 685 160 l 685 529 b 660 626 685 567 676 599 b 594 690 643 652 621 674 b 501 726 566 707 536 719 b 397 738 467 734 432 738 b 281 726 357 738 319 734 b 178 688 243 719 209 706 b 104 614 148 669 124 644 b 71 499 85 583 74 545 l 229 499 b 278 585 233 538 249 566 b 388 613 306 603 343 613 b 438 609 403 613 420 611 b 485 595 455 607 471 602 b 522 565 500 588 512 578 b 536 515 531 552 536 536 b 519 463 536 492 530 475 b 472 438 507 452 491 443 b 403 426 452 432 429 428 b 321 414 377 423 350 419 b 222 398 288 410 254 405 b 133 364 189 391 159 380 b 69 299 106 348 85 326 b 44 190 53 271 44 235 b 65 98 44 155 51 124 b 119 33 78 72 96 50 b 197 -6 141 16 168 3 b 290 -19 227 -15 258 -19 b 423 1 333 -19 377 -12 b 539 68 469 15 507 38 b 581 0 545 36 559 13 b 661 -19 602 -13 629 -19 b 685 -18 668 -19 675 -19 b 713 -14 694 -17 703 -16 b 740 -8 722 -12 731 -10 b 761 -1 748 -5 756 -3 l 761 108 b 739 106 753 106 745 106 l 722 106 b 692 118 707 106 697 110 b 685 160 687 126 685 140 z m 526 360 l 526 242 b 508 178 526 217 520 196 b 463 136 496 161 481 147 b 406 113 445 125 426 117 b 349 106 385 108 366 106 b 302 110 335 106 319 107 b 255 124 285 113 269 117 b 218 153 241 131 228 141 b 203 197 208 165 203 180 b 213 249 203 218 206 235 b 242 284 220 264 230 275 b 283 305 254 293 268 300 b 332 317 299 310 315 314 b 438 331 367 323 402 328 b 526 360 473 334 502 344 z m 535 819 l 615 819 b 550 965 610 883 588 932 b 397 1015 512 999 461 1015 b 240 967 333 1015 281 999 b 167 819 198 935 174 886 l 246 819 b 295 899 253 855 270 881 b 386 925 321 916 351 925 b 483 901 423 925 455 917 b 535 819 510 886 527 858 z "},"Ȅ":{"ha":875,"x_min":0,"x_max":0,"o":"m 106 992 l 106 0 l 829 0 l 829 150 l 279 150 l 279 440 l 779 440 l 779 582 l 279 582 l 279 842 l 819 842 l 819 992 z m 690 1092 l 565 1290 l 376 1290 l 576 1092 z m 414 1092 l 289 1290 l 100 1290 l 300 1092 z "},"ȅ":{"ha":772,"x_min":0,"x_max":0,"o":"m 576 422 l 207 422 b 223 497 208 449 213 474 b 262 558 233 520 246 541 b 320 598 278 575 297 588 b 396 613 343 608 368 613 b 469 597 423 613 447 607 b 524 555 491 586 509 572 b 560 494 540 538 552 518 b 576 422 569 471 575 447 z m 207 318 l 735 318 b 724 474 741 372 738 424 b 660 608 711 525 689 569 b 548 702 630 647 593 678 b 396 738 503 726 452 738 b 251 707 342 738 294 727 b 142 624 209 687 172 659 b 73 503 112 590 89 549 b 49 358 57 458 49 409 b 72 206 49 303 56 252 b 140 86 87 159 109 119 b 250 8 170 53 206 27 b 400 -19 294 -10 344 -19 b 512 -3 439 -19 476 -14 b 608 44 547 7 580 23 b 682 121 637 65 662 90 b 725 225 702 151 717 186 l 575 225 b 512 135 561 185 540 155 b 400 106 484 116 446 106 b 314 123 367 106 338 111 b 254 169 290 134 270 150 b 219 238 238 189 227 212 b 207 318 211 263 207 290 z m 639 818 l 514 1017 l 325 1017 l 525 818 z m 363 818 l 238 1017 l 49 1017 l 249 818 z "},"Ȇ":{"ha":875,"x_min":0,"x_max":0,"o":"m 106 992 l 106 0 l 829 0 l 829 150 l 279 150 l 279 440 l 779 440 l 779 582 l 279 582 l 279 842 l 819 842 l 819 992 z m 622 1093 l 703 1093 b 638 1239 697 1157 675 1206 b 485 1289 600 1272 549 1289 b 327 1241 421 1289 368 1273 b 254 1093 286 1209 262 1160 l 333 1093 b 383 1172 341 1128 357 1155 b 474 1199 408 1190 438 1199 b 570 1175 511 1199 543 1191 b 622 1093 597 1159 615 1132 z "},"ȇ":{"ha":772,"x_min":0,"x_max":0,"o":"m 576 422 l 207 422 b 223 497 208 449 213 474 b 262 558 233 520 246 541 b 320 598 278 575 297 588 b 396 613 343 608 368 613 b 469 597 423 613 447 607 b 524 555 491 586 509 572 b 560 494 540 538 552 518 b 576 422 569 471 575 447 z m 207 318 l 735 318 b 724 474 741 372 738 424 b 660 608 711 525 689 569 b 548 702 630 647 593 678 b 396 738 503 726 452 738 b 251 707 342 738 294 727 b 142 624 209 687 172 659 b 73 503 112 590 89 549 b 49 358 57 458 49 409 b 72 206 49 303 56 252 b 140 86 87 159 109 119 b 250 8 170 53 206 27 b 400 -19 294 -10 344 -19 b 512 -3 439 -19 476 -14 b 608 44 547 7 580 23 b 682 121 637 65 662 90 b 725 225 702 151 717 186 l 575 225 b 512 135 561 185 540 155 b 400 106 484 116 446 106 b 314 123 367 106 338 111 b 254 169 290 134 270 150 b 219 238 238 189 227 212 b 207 318 211 263 207 290 z m 529 819 l 610 819 b 544 965 604 883 582 932 b 392 1015 506 999 456 1015 b 234 967 328 1015 275 999 b 161 819 193 935 169 886 l 240 819 b 290 899 248 855 264 881 b 381 925 315 916 345 925 b 477 901 418 925 450 917 b 529 819 504 886 522 858 z "},"Ȉ":{"ha":386,"x_min":0,"x_max":0,"o":"m 106 992 l 106 0 l 279 0 l 279 992 z m 404 1092 l 279 1290 l 90 1290 l 290 1092 z m 128 1092 l 3 1290 l -186 1290 l 14 1092 z "},"ȉ":{"ha":381,"x_min":0,"x_max":0,"o":"m 133 0 l 292 0 l 292 718 l 133 718 z m 439 818 l 314 1017 l 125 1017 l 325 818 z m 163 818 l 38 1017 l -151 1017 l 49 818 z "},"Ȋ":{"ha":386,"x_min":0,"x_max":0,"o":"m 106 992 l 106 0 l 279 0 l 279 992 z m 336 1093 l 417 1093 b 351 1239 411 1157 389 1206 b 199 1289 313 1272 263 1289 b 41 1241 135 1289 82 1273 b -32 1093 0 1209 -25 1160 l 47 1093 b 97 1172 55 1128 71 1155 b 188 1199 122 1190 152 1199 b 284 1175 225 1199 257 1191 b 336 1093 311 1159 329 1132 z "},"ȋ":{"ha":390,"x_min":0,"x_max":0,"o":"m 115 0 l 274 0 l 274 718 l 115 718 z m 339 819 l 419 819 b 354 965 414 883 392 932 b 201 1015 316 999 265 1015 b 44 967 138 1015 85 999 b -29 819 3 935 -22 886 l 50 819 b 99 899 57 855 74 881 b 190 925 125 916 155 925 b 287 901 227 925 259 917 b 339 819 314 886 331 858 z "},"Ȍ":{"ha":1056,"x_min":0,"x_max":0,"o":"m 528 874 b 665 842 581 874 626 863 b 758 756 703 820 734 792 b 812 635 782 721 800 680 b 829 496 823 589 829 543 b 812 357 829 449 823 402 b 758 235 800 312 782 271 b 665 150 734 200 703 171 b 528 118 626 129 581 118 b 391 150 475 118 429 129 b 297 235 353 171 321 200 b 244 357 273 271 255 312 b 226 496 232 402 226 449 b 244 635 226 543 232 589 b 297 756 255 680 273 721 b 391 842 321 792 353 820 b 528 874 429 863 475 874 z m 528 1015 b 328 974 454 1015 387 1001 b 179 861 270 946 220 908 b 85 696 138 814 107 759 b 53 496 64 633 53 566 b 85 294 53 425 64 357 b 179 129 107 231 138 176 b 328 17 220 82 270 45 b 528 -24 387 -10 454 -24 b 727 17 602 -24 668 -10 b 876 129 786 45 836 82 b 970 294 917 176 948 231 b 1003 496 992 357 1003 425 b 970 696 1003 566 992 633 b 876 861 948 759 917 814 b 727 974 836 908 786 946 b 528 1015 668 1001 602 1015 z m 753 1092 l 628 1290 l 439 1290 l 639 1092 z m 476 1092 l 351 1290 l 163 1290 l 363 1092 z "},"ȍ":{"ha":824,"x_min":0,"x_max":0,"o":"m 413 -19 b 566 9 470 -19 521 -10 b 680 88 611 28 649 54 b 751 207 711 121 734 161 b 775 360 767 253 775 304 b 751 511 775 414 767 465 b 680 631 734 557 711 597 b 566 709 649 664 611 690 b 413 738 521 728 470 738 b 259 709 355 738 304 728 b 145 631 214 690 176 664 b 74 511 114 597 91 557 b 50 360 58 465 50 414 b 74 207 50 304 58 253 b 145 88 91 161 114 121 b 259 9 176 54 214 28 b 413 -19 304 -10 355 -19 z m 413 106 b 321 128 377 106 347 113 b 257 186 295 143 274 162 b 220 267 240 210 228 237 b 208 360 212 297 208 328 b 220 451 208 390 212 421 b 257 533 228 482 240 509 b 321 590 274 556 295 575 b 413 613 347 605 377 613 b 504 590 448 613 478 605 b 568 533 530 575 551 556 b 605 451 585 509 597 482 b 617 360 613 421 617 390 b 605 267 617 328 613 297 b 568 186 597 237 585 210 b 504 128 551 162 530 143 b 413 106 478 113 448 106 z m 651 818 l 526 1017 l 338 1017 l 538 818 z m 375 818 l 250 1017 l 61 1017 l 261 818 z "}}}
